{
.appVersion = "3151";
.formatVersion = 3;
DisplayStrings = (
"Julee



",
"AÁĂÂÄÀĀĄÅǺÃÆǼBCĆČÇĈĊDÐĎĐEÉĔĚÊËĖÈĒEĘFGĞĜĠHĦĤIĲÍĬÎÏİÌĪĮĨJĴKLĹĽĿŁMNŃŇÑŊOÓŎÔÖÒO/hungarumlautcomb.case ŐŌØØǾÕŒPÞQRŔŘSŚŠŞŜTŦŤUÚŬÛÜÙŰŪŲŮŨVWẂŴẄẀXYÝŶŸỲZŹŽŻĢĶĻŅŖŢȘȚaáăâäàāąåǻãæǽbcćčçĉċdðďđeéĕěêëėèēęfgğĝġhħĥiıíĭîïìĳīįĩjȷĵkĸlĺľŀłmnńŉňñŋoóŏôöòőōøǿõœpþqrŕřsśšşŝßtŧťuúŭûüùűūģķļņŗţșțųůũvwẃŵẅẁxyýŷÿỳzźžż",
"AÁĂÂÄÀĀĄÅǺÃÆǼBCĆČÇĈĊDÐĎĐEÉĔĚÊËĖÈĒĘ
FGĞĜĢĠHĦĤIĲÍĬÎÏİÌĪĮĨJĴKĶLĹĽĻĿŁMNŃŇŅÑŊ
OÓŎÔÖÒŐŌØǾÕŒPÞQRŔŘŖSŚŠŞŜȘ
TŦŤŢ/commaaccent ̦Ț
UÚŬÛÜÙŰŪŲŮŨVWẂŴẄẀ
XYÝŶŸỲZŹŽŻ
aáăâäàāąåǻãæǽ
bcćčçĉċdðďđeéĕěêëėèēę
fgğĝģġhħĥiıíĭîï/idotaccent ìĳīįĩjȷĵ
kķĸlĺľļŀłmnńŉňņñŋ
oóŏôöòőōøǿõœpþq
rŕřŗsśšşŝșßtŧťţț
uúŭûüùűūųůũvwẃŵẅẁx
yýŷÿỳzźžż"
);
classes = (
{
automatic = 1;
code = "A Aacute Abreve Acircumflex Adieresis Agrave Amacron Aogonek Aring Aringacute Atilde AE AEacute B C Cacute Ccaron Ccedilla Ccircumflex Cdotaccent D Eth Dcaron Dcroat E Eacute Ebreve Ecaron Ecircumflex Edieresis Edotaccent Egrave Emacron Eogonek F G Gbreve Gcircumflex Gdotaccent H Hbar Hcircumflex I IJ Iacute Ibreve Icircumflex Idieresis Idotaccent Igrave Imacron Iogonek Itilde J Jcircumflex K L Lacute Lcaron Ldot Lslash M N Nacute Ncaron Ntilde Eng O Oacute Obreve Ocircumflex Odieresis Ograve Ohungarumlaut Omacron Oslash Oslashacute Otilde OE P Thorn Q R Racute Rcaron S Sacute Scaron Scedilla Scircumflex T Tbar Tcaron U Uacute Ubreve Ucircumflex Udieresis Ugrave Uhungarumlaut Umacron Uogonek Uring Utilde V W Wacute Wcircumflex Wdieresis Wgrave X Y Yacute Ycircumflex Ydieresis Ygrave Z Zacute Zcaron Zdotaccent uni0122 uni0136 uni013B uni0145 uni0156 uni0162 uni0218 uni021A uni0394 uni03A9";
name = Uppercase;
}
);
customParameters = (
{
name = "Use Typo Metrics";
value = 1;
},
{
name = fsType;
value = (
);
}
);
date = "2023-02-16 13:35:01 +0000";
familyName = Julee;
featurePrefixes = (
{
automatic = 1;
code = "languagesystem DFLT dflt;

languagesystem latn dflt;
languagesystem latn CAT;
";
name = Languagesystems;
}
);
features = (
{
automatic = 1;
code = "feature locl;

glyphs = (
{
glyphname = A;
lastChange = "2023-02-16 13:48:31 +0000";
layers = (
{
anchors = (
{
name = bottom;
pos = (251,0);
},
{
name = ogonek;
pos = (551,0);
},
{
name = top;
pos = (323,206);
}
);
background = {
shapes = (
{
closed = 1;
nodes = (
(370,671,o),
(348,677,o),
(337,677,c),
(227,619,l),
(201,516,o),
(148,370,o),
(94,238,c),
(55,242,o),
(34,251,o),
(26,251,cs),
(24,251,o),
(23,249,o),
(23,244,cs),
(23,237,o),
(28,211,o),
(38,200,c),
(51,197,o),
(64,194,o),
(76,192,c),
(38,102,o),
(2,21,o),
(-24,-31,c),
(-24,-34,o),
(-13,-34,o),
(-12,-34,cs),
(7,-34,o),
(21,-28,o),
(32,-19,c),
(72,54,o),
(106,120,o),
(137,184,c),
(160,182,o),
(182,182,o),
(207,182,cs),
(254,182,o),
(302,186,o),
(345,193,c),
(370,106,o),
(397,28,o),
(419,-19,c),
(427,-28,o),
(438,-34,o),
(458,-34,cs),
(462,-34,o),
(466,-33,o),
(466,-31,c),
(431,99,o),
(376,332,o),
(376,550,cs),
(376,586,o),
(377,623,o),
(381,658,c,{
name = hr00;
})
);
},
{
closed = 1;
nodes = (
(201,325,o),
(237,415,o),
(276,522,c),
(284,444,o),
(304,349,o),
(328,258,c),
(273,242,o),
(214,236,o),
(161,235,c)
);
}
);
};
layerId = master01;
shapes = (
{
closed = 1;
nodes = (
(7,-34,o),
(21,-28,o),
(32,-19,c),
(72,54,o),
(106,120,o),
(137,184,c),
(160,182,o),
(182,182,o),
(207,182,cs),
(254,182,o),
(302,186,o),
(345,193,c),
(370,106,o),
(397,28,o),
(419,-19,c),
(427,-28,o),
(438,-34,o),
(458,-34,cs),
(462,-34,o),
(466,-33,o),
(466,-31,c),
(431,99,o),
(376,332,o),
(376,550,cs),
(376,586,o),
(377,623,o),
(381,658,c,{
name = hr00;
}),
(370,671,o),
(348,677,o),
(337,677,c),
(227,619,l),
(201,516,o),
(148,370,o),
(94,238,c),
(55,242,o),
(34,251,o),
(26,251,cs),
(24,251,o),
(23,249,o),
(23,244,cs),
(23,237,o),
(28,211,o),
(38,200,c),
(51,197,o),
(64,194,o),
(76,192,c),
(38,102,o),
(2,21,o),
(-24,-31,c),
(-24,-34,o),
(-13,-34,o),
(-12,-34,cs)
);
},
{
closed = 1;
nodes = (
(201,325,o),
(237,415,o),
(276,522,c),
(284,444,o),
(304,349,o),
(328,258,c),
(273,242,o),
(214,236,o),
(161,235,c)
);
}
);
width = 502;
}
);
unicode = 65;
},
{
glyphname = Aacute;
lastChange = "2023-02-16 13:48:22 +0000";
layers = (
{
background = {
shapes = (
{
closed = 1;
nodes = (
(370,671,o),
(348,677,o),
(337,677,c),
(227,619,l),
(201,516,o),
(148,370,o),
(94,238,c),
(55,242,o),
(34,251,o),
(26,251,cs),
(24,251,o),
(23,249,o),
(23,244,cs),
(23,237,o),
(28,211,o),
(38,200,c),
(51,197,o),
(64,194,o),
(76,192,c),
(38,102,o),
(2,21,o),
(-24,-31,c),
(-24,-34,o),
(-13,-34,o),
(-12,-34,cs),
(7,-34,o),
(21,-28,o),
(32,-19,c),
(72,54,o),
(106,120,o),
(137,184,c),
(160,182,o),
(182,182,o),
(207,182,cs),
(254,182,o),
(302,186,o),
(345,193,c),
(370,106,o),
(397,28,o),
(419,-19,c),
(427,-28,o),
(438,-34,o),
(458,-34,cs),
(462,-34,o),
(466,-33,o),
(466,-31,c),
(431,99,o),
(376,332,o),
(376,550,cs),
(376,586,o),
(377,623,o),
(381,658,c,{
name = hr00;
})
);
},
{
closed = 1;
nodes = (
(201,325,o),
(237,415,o),
(276,522,c),
(284,444,o),
(304,349,o),
(328,258,c),
(273,242,o),
(214,236,o),
(161,235,c)
);
},
{
closed = 1;
nodes = (
(395,894,l),
(356,841,o),
(294,778,o),
(204,737,c),
(204,722,o),
(228,700,o),
(237,699,c),
(311,722,o),
(363,746,o),
(423,797,c),
(411,884,l,{
name = hr00;
})
);
}
);
};
layerId = master01;
shapes = (
{
ref = A;
},
{
pos = (163,0);
ref = acutecomb.case;
}
);
width = 502;
}
);
unicode = 193;
},
{
glyphname = Abreve;
lastChange = "2023-02-16 13:48:22 +0000";
layers = (
{
background = {
shapes = (
{
closed = 1;
nodes = (
(370,671,o),
(348,677,o),
(337,677,c),
(227,619,l),
(201,516,o),
(148,370,o),
(94,238,c),
(55,242,o),
(34,251,o),
(26,251,cs),
(24,251,o),
(23,249,o),
(23,244,cs),
(23,237,o),
(28,211,o),
(38,200,c),
(51,197,o),
(64,194,o),
(76,192,c),
(38,102,o),
(2,21,o),
(-24,-31,c),
(-24,-34,o),
(-13,-34,o),
(-12,-34,cs),
(7,-34,o),
(21,-28,o),
(32,-19,c),
(72,54,o),
(106,120,o),
(137,184,c),
(160,182,o),
(182,182,o),
(207,182,cs),
(254,182,o),
(302,186,o),
(345,193,c),
(370,106,o),
(397,28,o),
(419,-19,c),
(427,-28,o),
(438,-34,o),
(458,-34,cs),
(462,-34,o),
(466,-33,o),
(466,-31,c),
(431,99,o),
(376,332,o),
(376,550,cs),
(376,586,o),
(377,623,o),
(381,658,c,{
name = hr00;
})
);
},
{
closed = 1;
nodes = (
(201,325,o),
(237,415,o),
(276,522,c),
(284,444,o),
(304,349,o),
(328,258,c),
(273,242,o),
(214,236,o),
(161,235,c)
);
},
{
closed = 1;
nodes = (
(389,769,o),
(270,758,o),
(270,840,c),
(255,850,l),
(204,823,l),
(204,755,o),
(252,725,o),
(313,725,cs),
(394,725,o),
(455,787,o),
(455,858,cs),
(441,868,l),
(389,841,l,{
name = hr00;
})
);
}
);
};
layerId = master01;
shapes = (
{
ref = A;
},
{
pos = (146,0);
ref = brevecomb.case;
}
);
width = 502;
}
);
unicode = 258;
},
{
glyphname = Acircumflex;
lastChange = "2023-02-16 13:48:22 +0000";
layers = (
{
background = {
shapes = (
{
closed = 1;
nodes = (
(370,671,o),
(348,677,o),
(337,677,c),
(227,619,l),
(201,516,o),
(148,370,o),
(94,238,c),
(55,242,o),
(34,251,o),
(26,251,cs),
(24,251,o),
(23,249,o),
(23,244,cs),
(23,237,o),
(28,211,o),
(38,200,c),
(51,197,o),
(64,194,o),
(76,192,c),
(38,102,o),
(2,21,o),
(-24,-31,c),
(-24,-34,o),
(-13,-34,o),
(-12,-34,cs),
(7,-34,o),
(21,-28,o),
(32,-19,c),
(72,54,o),
(106,120,o),
(137,184,c),
(160,182,o),
(182,182,o),
(207,182,cs),
(254,182,o),
(302,186,o),
(345,193,c),
(370,106,o),
(397,28,o),
(419,-19,c),
(427,-28,o),
(438,-34,o),
(458,-34,cs),
(462,-34,o),
(466,-33,o),
(466,-31,c),
(431,99,o),
(376,332,o),
(376,550,cs),
(376,586,o),
(377,623,o),
(381,658,c,{
name = hr00;
})
);
},
{
closed = 1;
nodes = (
(201,325,o),
(237,415,o),
(276,522,c),
(284,444,o),
(304,349,o),
(328,258,c),
(273,242,o),
(214,236,o),
(161,235,c)
);
},
{
closed = 1;
nodes = (
(333,884,l),
(299,831,o),
(257,786,o),
(184,737,c),
(184,722,o),
(208,700,o),
(217,699,c),
(260,716,o),
(305,746,o),
(338,777,c),
(350,751,o),
(365,727,o),
(386,705,c),
(449,715,l),
(459,731,l),
(414,776,o),
(383,822,o),
(357,884,c,{
name = hr00;
})
);
}
);
};
layerId = master01;
shapes = (
{
ref = A;
},
{
pos = (135,0);
ref = circumflexcomb.case;
}
);
width = 502;
}
);
unicode = 194;
},
{
glyphname = Adieresis;
lastChange = "2023-02-16 13:48:22 +0000";
layers = (
{
background = {
shapes = (
{
closed = 1;
nodes = (
(370,671,o),
(348,677,o),
(337,677,c),
(227,619,l),
(201,516,o),
(148,370,o),
(94,238,c),
(55,242,o),
(34,251,o),
(26,251,cs),
(24,251,o),
(23,249,o),
(23,244,cs),
(23,237,o),
(28,211,o),
(38,200,c),
(51,197,o),
(64,194,o),
(76,192,c),
(38,102,o),
(2,21,o),
(-24,-31,c),
(-24,-34,o),
(-13,-34,o),
(-12,-34,cs),
(7,-34,o),
(21,-28,o),
(32,-19,c),
(72,54,o),
(106,120,o),
(137,184,c),
(160,182,o),
(182,182,o),
(207,182,cs),
(254,182,o),
(302,186,o),
(345,193,c),
(370,106,o),
(397,28,o),
(419,-19,c),
(427,-28,o),
(438,-34,o),
(458,-34,cs),
(462,-34,o),
(466,-33,o),
(466,-31,c),
(431,99,o),
(376,332,o),
(376,550,cs),
(376,586,o),
(377,623,o),
(381,658,c,{
name = hr00;
})
);
},
{
closed = 1;
nodes = (
(201,325,o),
(237,415,o),
(276,522,c),
(284,444,o),
(304,349,o),
(328,258,c),
(273,242,o),
(214,236,o),
(161,235,c)
);
},
{
closed = 1;
nodes = (
(190,817,o),
(219,843,o),
(275,851,c),
(296,834,o),
(304,810,o),
(304,790,cs),
(304,750,o),
(270,726,o),
(238,726,cs),
(206,726,o),
(190,755,o),
(190,779,cs,{
name = hr00;
})
);
},
{
closed = 1;
nodes = (
(377,817,o),
(406,843,o),
(462,851,c),
(483,834,o),
(491,810,o),
(491,790,cs),
(491,750,o),
(457,726,o),
(425,726,cs),
(393,726,o),
(377,755,o),
(377,779,cs)
);
}
);
};
layerId = master01;
shapes = (
{
ref = A;
},
{
pos = (122,0);
ref = dieresiscomb.case;
}
);
width = 502;
}
);
unicode = 196;
},
{
glyphname = Agrave;
lastChange = "2023-02-16 13:48:22 +0000";
layers = (
{
background = {
shapes = (
{
closed = 1;
nodes = (
(370,671,o),
(348,677,o),
(337,677,c),
(227,619,l),
(201,516,o),
(148,370,o),
(94,238,c),
(55,242,o),
(34,251,o),
(26,251,cs),
(24,251,o),
(23,249,o),
(23,244,cs),
(23,237,o),
(28,211,o),
(38,200,c),
(51,197,o),
(64,194,o),
(76,192,c),
(38,102,o),
(2,21,o),
(-24,-31,c),
(-24,-34,o),
(-13,-34,o),
(-12,-34,cs),
(7,-34,o),
(21,-28,o),
(32,-19,c),
(72,54,o),
(106,120,o),
(137,184,c),
(160,182,o),
(182,182,o),
(207,182,cs),
(254,182,o),
(302,186,o),
(345,193,c),
(370,106,o),
(397,28,o),
(419,-19,c),
(427,-28,o),
(438,-34,o),
(458,-34,cs),
(462,-34,o),
(466,-33,o),
(466,-31,c),
(431,99,o),
(376,332,o),
(376,550,cs),
(376,586,o),
(377,623,o),
(381,658,c,{
name = hr00;
})
);
},
{
closed = 1;
nodes = (
(201,325,o),
(237,415,o),
(276,522,c),
(284,444,o),
(304,349,o),
(328,258,c),
(273,242,o),
(214,236,o),
(161,235,c)
);
},
{
closed = 1;
nodes = (
(258,894,l),
(297,841,o),
(359,778,o),
(449,737,c),
(449,722,o),
(425,700,o),
(416,699,c),
(342,722,o),
(290,746,o),
(230,797,c),
(242,884,l,{
name = hr00;
})
);
}
);
};
layerId = master01;
shapes = (
{
ref = A;
},
{
pos = (163,0);
ref = gravecomb.case;
}
);
width = 502;
}
);
unicode = 192;
},
{
glyphname = Amacron;
lastChange = "2023-02-16 13:48:22 +0000";
layers = (
{
background = {
shapes = (
{
closed = 1;
nodes = (
(370,671,o),
(348,677,o),
(337,677,c),
(227,619,l),
(201,516,o),
(148,370,o),
(94,238,c),
(55,242,o),
(34,251,o),
(26,251,cs),
(24,251,o),
(23,249,o),
(23,244,cs),
(23,237,o),
(28,211,o),
(38,200,c),
(51,197,o),
(64,194,o),
(76,192,c),
(38,102,o),
(2,21,o),
(-24,-31,c),
(-24,-34,o),
(-13,-34,o),
(-12,-34,cs),
(7,-34,o),
(21,-28,o),
(32,-19,c),
(72,54,o),
(106,120,o),
(137,184,c),
(160,182,o),
(182,182,o),
(207,182,cs),
(254,182,o),
(302,186,o),
(345,193,c),
(370,106,o),
(397,28,o),
(419,-19,c),
(427,-28,o),
(438,-34,o),
(458,-34,cs),
(462,-34,o),
(466,-33,o),
(466,-31,c),
(431,99,o),
(376,332,o),
(376,550,cs),
(376,586,o),
(377,623,o),
(381,658,c,{
name = hr00;
})
);
},
{
closed = 1;
nodes = (
(201,325,o),
(237,415,o),
(276,522,c),
(284,444,o),
(304,349,o),
(328,258,c),
(273,242,o),
(214,236,o),
(161,235,c)
);
},
{
closed = 1;
nodes = (
(432,844,l),
(400,823,o),
(357,805,o),
(283,805,cs),
(231,805,o),
(207,813,o),
(203,813,cs),
(200,813,o),
(198,810,o),
(198,807,cs),
(198,796,o),
(207,765,o),
(215,759,c),
(251,747,o),
(289,742,o),
(326,742,cs),
(358,742,o),
(389,746,o),
(421,753,c),
(445,825,l,{
name = hr00;
})
);
}
);
};
layerId = master01;
shapes = (
{
ref = A;
},
{
pos = (159,0);
ref = macroncomb.case;
}
);
width = 502;
}
);
unicode = 256;
},
{
glyphname = Aogonek;
lastChange = "2023-02-16 13:48:31 +0000";
layers = (
{
background = {
shapes = (
{
closed = 1;
nodes = (
(370,671,o),
(348,677,o),
(337,677,c),
(227,619,l),
(201,516,o),
(148,370,o),
(94,238,c),
(55,242,o),
(34,251,o),
(26,251,cs),
(24,251,o),
(23,249,o),
(23,244,cs),
(23,237,o),
(28,211,o),
(38,200,c),
(51,197,o),
(64,194,o),
(76,192,c),
(38,102,o),
(2,21,o),
(-24,-31,c),
(-24,-34,o),
(-13,-34,o),
(-12,-34,cs),
(7,-34,o),
(21,-28,o),
(32,-19,c),
(72,54,o),
(106,120,o),
(137,184,c),
(160,182,o),
(182,182,o),
(207,182,cs),
(254,182,o),
(302,186,o),
(345,193,c),
(370,106,o),
(397,28,o),
(419,-19,c),
(427,-28,o),
(438,-34,o),
(458,-34,cs),
(462,-34,o),
(466,-33,o),
(466,-31,c),
(431,99,o),
(376,332,o),
(376,550,cs),
(376,586,o),
(377,623,o),
(381,658,c,{
name = hr00;
})
);
},
{
closed = 1;
nodes = (
(201,325,o),
(237,415,o),
(276,522,c),
(284,444,o),
(304,349,o),
(328,258,c),
(273,242,o),
(214,236,o),
(161,235,c)
);
},
{
closed = 1;
nodes = (
(368,-30,o),
(335,-89,o),
(335,-131,cs),
(335,-184,o),
(365,-225,o),
(425,-225,cs),
(473,-225,o),
(525,-178,o),
(551,-114,c),
(547,-107,o),
(534,-100,o),
(525,-100,c),
(502,-141,o),
(475,-166,o),
(447,-166,cs),
(414,-166,o),
(397,-142,o),
(397,-109,cs),
(397,-75,o),
(415,-33,o),
(454,0,c),
(413,0,l,{
name = hr00;
})
);
}
);
};
layerId = master01;
shapes = (
{
ref = A;
},
{
pos = (239,0);
ref = ogonekcomb;
}
);
width = 502;
}
);
unicode = 260;
},
{
glyphname = Aring;
lastChange = "2023-02-16 13:48:22 +0000";
layers = (
{
background = {
shapes = (
{
closed = 1;
nodes = (
(370,671,o),
(348,677,o),
(337,677,c),
(227,619,l),
(201,516,o),
(148,370,o),
(94,238,c),
(55,242,o),
(34,251,o),
(26,251,cs),
(24,251,o),
(23,249,o),
(23,244,cs),
(23,237,o),
(28,211,o),
(38,200,c),
(51,197,o),
(64,194,o),
(76,192,c),
(38,102,o),
(2,21,o),
(-24,-31,cs),
(-25,-33,o),
(-20,-34,o),
(-12,-34,cs),
(-3,-34,o),
(21,-28,o),
(32,-19,c),
(72,54,o),
(106,120,o),
(137,184,c),
(160,182,o),
(182,182,o),
(207,182,cs),
(254,182,o),
(302,186,o),
(345,193,c),
(370,106,o),
(397,28,o),
(419,-19,c),
(427,-28,o),
(448,-34,o),
(458,-34,cs),
(465,-34,o),
(467,-33,o),
(466,-31,cs),
(425,121,o),
(357,413,o),
(381,658,c,{
name = hr00;
})
);
},
{
closed = 1;
nodes = (
(287,882,o),
(241,839,o),
(241,780,cs),
(241,723,o),
(279,698,o),
(325,698,cs),
(386,698,o),
(434,741,o),
(434,800,cs),
(434,857,o),
(395,882,o),
(350,882,cs)
);
},
{
closed = 1;
nodes = (
(360,831,o),
(374,820,o),
(374,795,cs),
(374,768,o),
(355,749,o),
(331,749,cs),
(315,749,o),
(301,760,o),
(301,785,cs),
(301,812,o),
(319,831,o),
(343,831,cs)
);
},
{
closed = 1;
nodes = (
(201,325,o),
(237,415,o),
(276,522,c),
(284,444,o),
(304,349,o),
(328,258,c),
(273,242,o),
(214,236,o),
(161,235,c)
);
}
);
};
layerId = master01;
shapes = (
{
ref = A;
},
{
pos = (176,0);
ref = ringcomb.case;
}
);
width = 502;
}
);
unicode = 197;
},
{
glyphname = Aringacute;
lastChange = "2023-02-16 13:48:46 +0000";
layers = (
{
background = {
shapes = (
{
closed = 1;
nodes = (
(370,671,o),
(348,677,o),
(337,677,c),
(227,619,l),
(201,516,o),
(148,370,o),
(94,238,c),
(55,242,o),
(34,251,o),
(26,251,cs),
(24,251,o),
(23,249,o),
(23,244,cs),
(23,237,o),
(28,211,o),
(38,200,c),
(51,197,o),
(64,194,o),
(76,192,c),
(38,102,o),
(2,21,o),
(-24,-31,c),
(-24,-34,o),
(-13,-34,o),
(-12,-34,cs),
(7,-34,o),
(21,-28,o),
(32,-19,c),
(72,54,o),
(106,120,o),
(137,184,c),
(160,182,o),
(182,182,o),
(207,182,cs),
(254,182,o),
(302,186,o),
(345,193,c),
(370,106,o),
(397,28,o),
(419,-19,c),
(427,-28,o),
(438,-34,o),
(458,-34,cs),
(462,-34,o),
(466,-33,o),
(466,-31,c),
(431,99,o),
(376,332,o),
(376,550,cs),
(376,586,o),
(377,623,o),
(381,658,c,{
name = hr00;
})
);
},
{
closed = 1;
nodes = (
(201,325,o),
(237,415,o),
(276,522,c),
(284,444,o),
(304,349,o),
(328,258,c),
(273,242,o),
(214,236,o),
(161,235,c)
);
},
{
closed = 1;
nodes = (
(280,882,o),
(234,839,o),
(234,780,cs),
(234,723,o),
(272,698,o),
(318,698,cs),
(379,698,o),
(427,741,o),
(427,800,cs),
(427,857,o),
(388,882,o),
(343,882,cs,{
name = hr00;
})
);
},
{
closed = 1;
nodes = (
(353,831,o),
(367,820,o),
(367,795,cs),
(367,768,o),
(348,749,o),
(324,749,cs),
(308,749,o),
(294,760,o),
(294,785,cs),
(294,812,o),
(312,831,o),
(336,831,cs)
);
},
{
closed = 1;
nodes = (
(421,837,o),
(455,856,o),
(494,889,c),
(484,964,l),
(470,973,l),
(443,937,o),
(404,896,o),
(351,862,c),
(380,821,l)
);
}
);
};
layerId = master01;
shapes = (
{
closed = 1;
nodes = (
(379,698,o),
(427,741,o),
(427,800,cs),
(427,857,o),
(388,882,o),
(343,882,cs,{
name = hr00;
}),
(280,882,o),
(234,839,o),
(234,780,cs),
(234,723,o),
(272,698,o),
(318,698,cs)
);
},
{
ref = A;
},
{
closed = 1;
nodes = (
(308,749,o),
(294,760,o),
(294,785,cs),
(294,812,o),
(312,831,o),
(336,831,cs),
(353,831,o),
(367,820,o),
(367,795,cs),
(367,768,o),
(348,749,o),
(324,749,cs)
);
},
{
closed = 1;
nodes = (
(421,837,o),
(455,856,o),
(494,889,c),
(484,964,l),
(470,973,l),
(443,937,o),
(404,896,o),
(351,862,c),
(380,821,l)
);
}
);
width = 502;
}
);
unicode = 506;
},
{
glyphname = Atilde;
lastChange = "2023-02-16 13:48:22 +0000";
layers = (
{
background = {
shapes = (
{
closed = 1;
nodes = (
(370,671,o),
(348,677,o),
(337,677,c),
(227,619,l),
(201,516,o),
(148,370,o),
(94,238,c),
(55,242,o),
(34,251,o),
(26,251,cs),
(24,251,o),
(23,249,o),
(23,244,cs),
(23,237,o),
(28,211,o),
(38,200,c),
(51,197,o),
(64,194,o),
(76,192,c),
(38,102,o),
(2,21,o),
(-24,-31,c),
(-24,-34,o),
(-13,-34,o),
(-12,-34,cs),
(7,-34,o),
(21,-28,o),
(32,-19,c),
(72,54,o),
(106,120,o),
(137,184,c),
(160,182,o),
(182,182,o),
(207,182,cs),
(254,182,o),
(302,186,o),
(345,193,c),
(370,106,o),
(397,28,o),
(419,-19,c),
(427,-28,o),
(438,-34,o),
(458,-34,cs),
(462,-34,o),
(466,-33,o),
(466,-31,c),
(431,99,o),
(376,332,o),
(376,550,cs),
(376,586,o),
(377,623,o),
(381,658,c,{
name = hr00;
})
);
},
{
closed = 1;
nodes = (
(201,325,o),
(237,415,o),
(276,522,c),
(284,444,o),
(304,349,o),
(328,258,c),
(273,242,o),
(214,236,o),
(161,235,c)
);
},
{
closed = 1;
nodes = (
(239,745,o),
(258,752,o),
(275,752,cs),
(301,752,o),
(324,735,o),
(368,735,cs,{
name = hr01;
}),
(410,735,o),
(449,764,o),
(477,829,c),
(477,837,o),
(466,850,o),
(451,850,c),
(432,822,o),
(408,806,o),
(377,806,cs),
(334,806,o),
(317,835,o),
(265,835,cs,{
name = hr02;
}),
(234,835,o),
(196,813,o),
(180,783,c),
(198,731,l),
(212,723,l)
);
}
);
};
layerId = master01;
shapes = (
{
ref = A;
},
{
pos = (112,0);
ref = tildecomb.case;
}
);
width = 502;
}
);
unicode = 195;
},
{
glyphname = AE;
lastChange = "2023-02-16 13:48:55 +0000";
layers = (
{
anchors = (
{
name = bottom;
pos = (382,0);
},
{
name = top;
pos = (492,206);
}
);
background = {
shapes = (
{
closed = 1;
nodes = (
(273,627,l),
(253,523,o),
(205,399,o),
(151,282,c),
(109,283,o),
(71,287,o),
(42,295,cs),
(40,295,o),
(39,293,o),
(39,288,cs),
(39,281,o),
(44,263,o),
(54,252,c),
(77,244,o),
(103,239,o),
(130,236,c),
(80,131,o),
(28,35,o),
(-8,-31,cs),
(-9,-33,o),
(-4,-34,o),
(4,-34,cs),
(13,-34,o),
(37,-28,o),
(48,-19,c),
(91,45,o),
(144,135,o),
(194,231,c),
(239,230,o),
(285,233,o),
(332,237,c),
(345,78,o),
(393,-33,o),
(515,-33,cs,{
name = hr01;
}),
(639,-33,o),
(696,68,o),
(719,199,c),
(707,209,o),
(695,213,o),
(688,213,cs),
(685,213,o),
(682,210,o),
(681,205,cs),
(661,117,o),
(621,24,o),
(529,24,cs),
(438,24,o),
(414,127,o),
(410,247,c),
(485,258,o),
(555,273,o),
(613,287,c),
(643,356,l),
(634,373,l),
(565,343,o),
(487,320,o),
(410,305,c),
(413,392,o),
(433,499,o),
(448,566,c),
(531,553,o),
(615,553,o),
(706,565,c),
(739,651,l),
(722,677,l),
(651,640,o),
(486,603,o),
(346,677,c)
);
},
{
closed = 1;
nodes = (
(268,376,o),
(311,474,o),
(344,561,c),
(335,503,o),
(328,415,o),
(328,349,cs),
(328,329,o),
(328,310,o),
(329,292,c),
(291,287,o),
(255,283,o),
(220,282,c)
);
}
);
};
layerId = master01;
shapes = (
{
closed = 1;
nodes = (
(13,-34,o),
(37,-28,o),
(48,-19,c),
(91,45,o),
(144,135,o),
(194,231,c),
(239,230,o),
(285,233,o),
(332,237,c),
(345,78,o),
(393,-33,o),
(515,-33,cs,{
name = hr01;
}),
(639,-33,o),
(696,68,o),
(719,199,c),
(707,209,o),
(695,213,o),
(688,213,cs),
(685,213,o),
(682,210,o),
(681,205,cs),
(661,117,o),
(621,24,o),
(529,24,cs),
(438,24,o),
(414,127,o),
(410,247,c),
(485,258,o),
(555,273,o),
(613,287,c),
(643,356,l),
(634,373,l),
(565,343,o),
(487,320,o),
(410,305,c),
(413,392,o),
(433,499,o),
(448,566,c),
(531,553,o),
(615,553,o),
(706,565,c),
(739,651,l),
(722,677,l),
(651,640,o),
(486,603,o),
(346,677,c),
(273,627,l),
(253,523,o),
(205,399,o),
(151,282,c),
(109,283,o),
(71,287,o),
(42,295,cs),
(40,295,o),
(39,293,o),
(39,288,cs),
(39,281,o),
(44,263,o),
(54,252,c),
(77,244,o),
(103,239,o),
(130,236,c),
(80,131,o),
(28,35,o),
(-8,-31,cs),
(-9,-33,o),
(-4,-34,o),
(4,-34,cs)
);
},
{
closed = 1;
nodes = (
(268,376,o),
(311,474,o),
(344,561,c),
(335,503,o),
(328,415,o),
(328,349,cs),
(328,329,o),
(328,310,o),
(329,292,c),
(291,287,o),
(255,283,o),
(220,282,c)
);
}
);
width = 764;
}
);
unicode = 198;
},
{
glyphname = AEacute;
lastChange = "2023-02-16 13:48:56 +0000";
layers = (
{
background = {
shapes = (
{
closed = 1;
nodes = (
(273,627,l),
(253,523,o),
(205,399,o),
(151,282,c),
(109,283,o),
(71,287,o),
(42,295,cs),
(40,295,o),
(39,293,o),
(39,288,cs),
(39,281,o),
(44,263,o),
(54,252,c),
(77,244,o),
(103,239,o),
(130,236,c),
(80,131,o),
(28,35,o),
(-8,-31,cs),
(-9,-33,o),
(-4,-34,o),
(4,-34,cs),
(13,-34,o),
(37,-28,o),
(48,-19,c),
(91,45,o),
(144,135,o),
(194,231,c),
(239,230,o),
(285,233,o),
(332,237,c),
(345,78,o),
(393,-33,o),
(515,-33,cs,{
name = hr01;
}),
(639,-33,o),
(696,68,o),
(719,199,c),
(707,209,o),
(695,213,o),
(688,213,cs),
(685,213,o),
(682,210,o),
(681,205,cs),
(661,117,o),
(621,24,o),
(529,24,cs),
(438,24,o),
(414,127,o),
(410,247,c),
(485,258,o),
(555,273,o),
(613,287,c),
(643,356,l),
(634,373,l),
(565,343,o),
(487,320,o),
(410,305,c),
(413,392,o),
(433,499,o),
(448,566,c),
(531,553,o),
(615,553,o),
(706,565,c),
(739,651,l),
(722,677,l),
(651,640,o),
(486,603,o),
(346,677,c)
);
},
{
closed = 1;
nodes = (
(268,376,o),
(311,474,o),
(344,561,c),
(335,503,o),
(328,415,o),
(328,349,cs),
(328,329,o),
(328,310,o),
(329,292,c),
(291,287,o),
(255,283,o),
(220,282,c)
);
},
{
closed = 1;
nodes = (
(573,894,l),
(534,841,o),
(472,778,o),
(382,737,c),
(382,722,o),
(406,700,o),
(415,699,c),
(489,722,o),
(541,746,o),
(601,797,c),
(589,884,l,{
name = hr00;
})
);
}
);
};
layerId = master01;
shapes = (
{
ref = AE;
},
{
pos = (332,0);
ref = acutecomb.case;
}
);
width = 764;
}
);
unicode = 508;
},
{
glyphname = B;
lastChange = "2023-02-16 13:49:08 +0000";
layers = (
{
anchors = (
{
name = bottom;
pos = (255,0);
},
{
name = center;
pos = (255,103);
},
{
name = top;
pos = (255,206);
}
);
background = {
shapes = (
{
closed = 1;
nodes = (
(265,314,o),
(387,271,o),
(387,178,cs),
(387,78,o),
(289,17,o),
(152,17,cs),
(79,17,o),
(44,32,o),
(33,32,cs),
(31,32,o),
(30,31,o),
(30,25,cs),
(30,18,o),
(34,0,o),
(45,-11,c),
(118,-27,o),
(158,-28,o),
(214,-28,cs),
(409,-28,o),
(499,70,o),
(499,169,cs),
(499,258,o),
(422,348,o),
(247,361,c),
(256,364,o),
(428,439,o),
(428,513,cs),
(428,628,o),
(201,577,o),
(79,682,c),
(38,615,l),
(109,544,o),
(126,383,o),
(126,235,cs),
(126,164,o),
(118,100,o),
(112,60,cs),
(112,58,o),
(113,57,o),
(119,57,cs),
(126,57,o),
(144,63,o),
(151,72,c),
(165,100,o),
(180,208,o),
(183,320,c,{
name = hr00;
})
);
},
{
closed = 1;
nodes = (
(209,544,o),
(315,538,o),
(315,498,cs),
(315,476,o),
(263,424,o),
(184,393,c),
(184,525,o),
(168,566,o),
(168,566,c)
);
}
);
};
layerId = master01;
shapes = (
{
closed = 1;
nodes = (
(409,-28,o),
(499,70,o),
(499,169,cs),
(499,258,o),
(422,348,o),
(247,361,c),
(256,364,o),
(428,439,o),
(428,513,cs),
(428,628,o),
(201,577,o),
(79,682,c),
(38,615,l),
(109,544,o),
(126,383,o),
(126,235,cs),
(126,164,o),
(118,100,o),
(112,60,cs),
(112,58,o),
(113,57,o),
(119,57,cs),
(126,57,o),
(144,63,o),
(151,72,c),
(165,100,o),
(180,208,o),
(183,320,c,{
name = hr00;
}),
(265,314,o),
(387,271,o),
(387,178,cs),
(387,78,o),
(289,17,o),
(152,17,cs),
(79,17,o),
(44,32,o),
(33,32,cs),
(31,32,o),
(30,31,o),
(30,25,cs),
(30,18,o),
(34,0,o),
(45,-11,c),
(118,-27,o),
(158,-28,o),
(214,-28,cs)
);
},
{
closed = 1;
nodes = (
(184,525,o),
(169,564,o),
(168,566,c),
(209,544,o),
(315,538,o),
(315,498,cs),
(315,476,o),
(263,424,o),
(184,393,c)
);
}
);
width = 509;
}
);
unicode = 66;
},
{
glyphname = C;
lastChange = "2023-02-16 13:49:28 +0000";
layers = (
{
anchors = (
{
name = bottom;
pos = (206,0);
},
{
name = top;
pos = (360,206);
}
);
background = {
shapes = (
{
closed = 1;
nodes = (
(446,677,l),
(133,629,o),
(30,416,o),
(30,252,cs),
(30,85,o),
(104,-32,o),
(233,-32,cs),
(337,-32,o),
(450,79,o),
(478,269,c),
(466,279,o),
(454,283,o),
(447,283,cs),
(444,283,o),
(441,280,o),
(440,275,cs),
(398,129,o),
(341,55,o),
(248,55,cs),
(183,55,o),
(119,133,o),
(119,307,cs),
(119,420,o),
(174,569,o),
(371,569,cs),
(389,569,o),
(409,568,o),
(430,565,c),
(463,651,l,{
name = hr00;
})
);
}
);
};
layerId = master01;
shapes = (
{
closed = 1;
nodes = (
(337,-32,o),
(450,79,o),
(478,269,c),
(466,279,o),
(454,283,o),
(447,283,cs),
(444,283,o),
(441,280,o),
(440,275,cs),
(398,129,o),
(341,55,o),
(248,55,cs),
(183,55,o),
(119,133,o),
(119,307,cs),
(119,420,o),
(174,569,o),
(371,569,cs),
(389,569,o),
(409,568,o),
(430,565,c),
(463,651,l,{
name = hr00;
}),
(446,677,l),
(133,629,o),
(30,416,o),
(30,252,cs),
(30,85,o),
(104,-32,o),
(233,-32,cs)
);
}
);
width = 488;
}
);
unicode = 67;
},
{
glyphname = Cacute;
lastChange = "2023-02-16 13:49:22 +0000";
layers = (
{
background = {
shapes = (
{
closed = 1;
nodes = (
(446,677,l),
(133,629,o),
(30,416,o),
(30,252,cs),
(30,85,o),
(104,-32,o),
(233,-32,cs),
(337,-32,o),
(450,79,o),
(478,269,c),
(466,279,o),
(454,283,o),
(447,283,cs),
(444,283,o),
(441,280,o),
(440,275,cs),
(398,129,o),
(341,55,o),
(248,55,cs),
(183,55,o),
(119,133,o),
(119,307,cs),
(119,420,o),
(174,569,o),
(371,569,cs),
(389,569,o),
(409,568,o),
(430,565,c),
(463,651,l,{
name = hr00;
})
);
},
{
closed = 1;
nodes = (
(462,894,l),
(423,841,o),
(361,778,o),
(271,737,c),
(271,722,o),
(295,700,o),
(304,699,c),
(378,722,o),
(430,746,o),
(490,797,c),
(478,884,l,{
name = hr00;
})
);
}
);
};
layerId = master01;
shapes = (
{
ref = C;
},
{
pos = (200,0);
ref = acutecomb.case;
}
);
width = 488;
}
);
unicode = 262;
},
{
glyphname = Ccaron;
lastChange = "2023-02-16 13:49:22 +0000";
layers = (
{
background = {
shapes = (
{
closed = 1;
nodes = (
(446,677,l),
(133,629,o),
(30,416,o),
(30,252,cs),
(30,85,o),
(104,-32,o),
(233,-32,cs),
(337,-32,o),
(450,79,o),
(478,269,c),
(466,279,o),
(454,283,o),
(447,283,cs),
(444,283,o),
(441,280,o),
(440,275,cs),
(398,129,o),
(341,55,o),
(248,55,cs),
(183,55,o),
(119,133,o),
(119,307,cs),
(119,420,o),
(174,569,o),
(371,569,cs),
(389,569,o),
(409,568,o),
(430,565,c),
(463,651,l,{
name = hr00;
})
);
},
{
closed = 1;
nodes = (
(362,709,l),
(396,762,o),
(438,807,o),
(511,856,c),
(511,871,o),
(487,893,o),
(478,894,c),
(435,876,o),
(389,846,o),
(357,816,c),
(345,842,o),
(329,866,o),
(309,888,c),
(246,878,l),
(236,862,l),
(281,817,o),
(312,771,o),
(338,709,c,{
name = hr00;
})
);
}
);
};
layerId = master01;
shapes = (
{
ref = C;
},
{
pos = (172,0);
ref = caroncomb.case;
}
);
width = 488;
}
);
unicode = 268;
},
{
glyphname = Ccedilla;
lastChange = "2023-02-16 13:49:28 +0000";
layers = (
{
background = {
shapes = (
{
closed = 1;
nodes = (
(446,677,l),
(133,629,o),
(30,416,o),
(30,252,cs),
(30,109,o),
(83,3,o),
(179,-25,c),
(150,-89,l),
(164,-108,l),
(176,-102,o),
(189,-99,o),
(202,-99,cs),
(231,-99,o),
(244,-117,o),
(244,-136,cs),
(244,-158,o),
(225,-183,o),
(194,-183,cs),
(170,-183,o),
(142,-169,o),
(128,-143,c),
(103,-191,l),
(108,-206,l),
(131,-219,o),
(157,-225,o),
(181,-225,cs,{
name = hr01;
}),
(265,-225,o),
(308,-171,o),
(308,-124,cs),
(308,-79,o),
(269,-57,o),
(230,-57,cs),
(217,-57,o),
(205,-59,o),
(194,-63,c),
(211,-30,l),
(218,-31,o),
(225,-32,o),
(233,-32,cs),
(337,-32,o),
(450,79,o),
(478,269,c),
(466,279,o),
(454,283,o),
(447,283,cs),
(444,283,o),
(441,280,o),
(440,275,cs),
(398,129,o),
(341,55,o),
(248,55,cs,{
name = hr02;
}),
(183,55,o),
(119,133,o),
(119,307,cs),
(119,420,o),
(174,569,o),
(371,569,cs),
(389,569,o),
(409,568,o),
(430,565,c),
(463,651,l)
);
}
);
};
layerId = master01;
shapes = (
{
ref = C;
},
{
pos = (26,0);
ref = cedillacomb;
}
);
width = 488;
}
);
unicode = 199;
},
{
glyphname = Ccircumflex;
lastChange = "2023-02-16 13:49:22 +0000";
layers = (
{
background = {
shapes = (
{
closed = 1;
nodes = (
(446,677,l),
(133,629,o),
(30,416,o),
(30,252,cs),
(30,85,o),
(104,-32,o),
(233,-32,cs),
(337,-32,o),
(450,79,o),
(478,269,c),
(466,279,o),
(454,283,o),
(447,283,cs),
(444,283,o),
(441,280,o),
(440,275,cs),
(398,129,o),
(341,55,o),
(248,55,cs),
(183,55,o),
(119,133,o),
(119,307,cs),
(119,420,o),
(174,569,o),
(371,569,cs),
(389,569,o),
(409,568,o),
(430,565,c),
(463,651,l,{
name = hr00;
})
);
},
{
closed = 1;
nodes = (
(377,884,l),
(343,831,o),
(301,786,o),
(228,737,c),
(228,722,o),
(252,700,o),
(261,699,c),
(304,716,o),
(349,746,o),
(382,777,c),
(394,751,o),
(409,727,o),
(430,705,c),
(493,715,l),
(503,731,l),
(458,776,o),
(427,822,o),
(401,884,c,{
name = hr00;
})
);
}
);
};
layerId = master01;
shapes = (
{
ref = C;
},
{
pos = (172,0);
ref = circumflexcomb.case;
}
);
width = 488;
}
);
unicode = 264;
},
{
glyphname = Cdotaccent;
lastChange = "2023-02-16 13:49:22 +0000";
layers = (
{
background = {
shapes = (
{
closed = 1;
nodes = (
(446,677,l),
(133,629,o),
(30,416,o),
(30,252,cs),
(30,85,o),
(104,-32,o),
(233,-32,cs),
(337,-32,o),
(450,79,o),
(478,269,c),
(466,279,o),
(454,283,o),
(447,283,cs),
(444,283,o),
(441,280,o),
(440,275,cs),
(398,129,o),
(341,55,o),
(248,55,cs),
(183,55,o),
(119,133,o),
(119,307,cs),
(119,420,o),
(174,569,o),
(371,569,cs),
(389,569,o),
(409,568,o),
(430,565,c),
(463,651,l,{
name = hr00;
})
);
},
{
closed = 1;
nodes = (
(290,821,o),
(326,854,o),
(393,863,c),
(419,842,o),
(428,813,o),
(428,789,cs),
(428,741,o),
(387,712,o),
(349,712,cs),
(310,712,o),
(290,747,o),
(290,777,cs,{
name = hr00;
})
);
}
);
};
layerId = master01;
shapes = (
{
ref = C;
},
{
pos = (241,0);
ref = dotaccentcomb.case;
}
);
width = 488;
}
);
unicode = 266;
},
{
glyphname = D;
lastChange = "2023-02-16 13:49:34 +0000";
layers = (
{
anchors = (
{
name = bottom;
pos = (271,0);
},
{
name = center;
pos = (271,103);
},
{
name = top;
pos = (309,206);
}
);
background = {
shapes = (
{
closed = 1;
nodes = (
(307,446,o),
(425,350,o),
(425,227,cs),
(425,117,o),
(319,17,o),
(158,17,cs),
(84,17,o),
(49,32,o),
(38,32,cs),
(36,32,o),
(35,31,o),
(35,25,cs),
(35,18,o),
(40,0,o),
(50,-11,c),
(123,-27,o),
(163,-28,o),
(218,-28,cs),
(325,-28,o),
(534,35,o),
(534,227,cs),
(534,429,o),
(267,497,o),
(79,682,c),
(37,615,l),
(108,544,o),
(126,383,o),
(126,235,cs),
(126,164,o),
(118,100,o),
(112,60,cs),
(112,58,o),
(113,57,o),
(119,57,cs),
(126,57,o),
(143,63,o),
(151,72,c),
(167,105,o),
(184,242,o),
(184,372,cs),
(184,420,o),
(184,467,o),
(181,512,c,{
name = hr00;
})
);
}
);
};
layerId = master01;
shapes = (
{
closed = 1;
nodes = (
(325,-28,o),
(534,35,o),
(534,227,cs),
(534,429,o),
(267,497,o),
(79,682,c),
(37,615,l),
(108,544,o),
(126,383,o),
(126,235,cs),
(126,164,o),
(118,100,o),
(112,60,cs),
(112,58,o),
(113,57,o),
(119,57,cs),
(126,57,o),
(143,63,o),
(151,72,c),
(167,105,o),
(184,242,o),
(184,372,cs),
(184,420,o),
(184,467,o),
(181,512,c,{
name = hr00;
}),
(307,446,o),
(425,350,o),
(425,227,cs),
(425,117,o),
(319,17,o),
(158,17,cs),
(84,17,o),
(49,32,o),
(38,32,cs),
(36,32,o),
(35,31,o),
(35,25,cs),
(35,18,o),
(40,0,o),
(50,-11,c),
(123,-27,o),
(163,-28,o),
(218,-28,cs)
);
}
);
width = 541;
}
);
unicode = 68;
},
{
glyphname = Eth;
lastChange = "2023-02-16 13:49:47 +0000";
layers = (
{
background = {
shapes = (
{
closed = 1;
nodes = (
(307,446,o),
(425,350,o),
(425,227,cs),
(425,117,o),
(319,17,o),
(158,17,cs),
(84,17,o),
(49,32,o),
(38,32,cs),
(36,32,o),
(35,31,o),
(35,25,cs),
(35,18,o),
(40,0,o),
(50,-11,c),
(123,-27,o),
(163,-28,o),
(218,-28,cs),
(325,-28,o),
(534,35,o),
(534,227,cs),
(534,429,o),
(267,497,o),
(79,682,c),
(37,615,l),
(99,552,o),
(121,420,o),
(125,288,c),
(110,288,ls),
(71,288,o),
(38,290,o),
(0,296,c),
(0,296,o),
(-4,296,o),
(-4,290,c),
(-2,277,o),
(9,242,o),
(19,236,c),
(54,227,o),
(90,222,o),
(126,220,c),
(125,155,o),
(116,97,o),
(112,60,cs),
(112,58,o),
(113,57,o),
(119,57,cs),
(126,57,o),
(143,63,o),
(151,72,c),
(160,91,o),
(170,148,o),
(177,219,c),
(217,219,o),
(255,223,o),
(294,230,c),
(327,308,l),
(316,326,l),
(281,313,o),
(240,298,o),
(182,292,c),
(183,318,o),
(184,345,o),
(184,372,cs),
(184,420,o),
(184,467,o),
(181,512,c,{
name = hr00;
})
);
}
);
};
layerId = master01;
shapes = (
{
closed = 1;
nodes = (
(325,-28,o),
(534,35,o),
(534,227,cs),
(534,429,o),
(267,497,o),
(79,682,c),
(37,615,l),
(99,552,o),
(121,420,o),
(125,288,c),
(110,288,ls),
(71,288,o),
(38,290,o),
(0,296,c),
(-1,296,o),
(-4,296,o),
(-4,290,c),
(-2,277,o),
(9,242,o),
(19,236,c),
(54,227,o),
(90,222,o),
(126,220,c),
(125,155,o),
(116,97,o),
(112,60,cs),
(112,58,o),
(113,57,o),
(119,57,cs),
(126,57,o),
(143,63,o),
(151,72,c),
(160,91,o),
(170,148,o),
(177,219,c),
(217,219,o),
(255,223,o),
(294,230,c),
(327,308,l),
(316,326,l),
(281,313,o),
(240,298,o),
(182,292,c),
(183,318,o),
(184,345,o),
(184,372,cs),
(184,420,o),
(184,467,o),
(181,512,c,{
name = hr00;
}),
(307,446,o),
(425,350,o),
(425,227,cs),
(425,117,o),
(319,17,o),
(158,17,cs),
(84,17,o),
(49,32,o),
(38,32,cs),
(36,32,o),
(35,31,o),
(35,25,cs),
(35,18,o),
(40,0,o),
(50,-11,c),
(123,-27,o),
(163,-28,o),
(218,-28,cs)
);
}
);
width = 541;
}
);
unicode = 208;
},
{
glyphname = Dcaron;
lastChange = "2023-02-16 13:49:34 +0000";
layers = (
{
background = {
shapes = (
{
closed = 1;
nodes = (
(307,446,o),
(425,350,o),
(425,227,cs),
(425,117,o),
(319,17,o),
(158,17,cs),
(84,17,o),
(49,32,o),
(38,32,cs),
(36,32,o),
(35,31,o),
(35,25,cs),
(35,18,o),
(40,0,o),
(50,-11,c),
(123,-27,o),
(163,-28,o),
(218,-28,cs),
(325,-28,o),
(534,35,o),
(534,227,cs),
(534,429,o),
(267,497,o),
(79,682,c),
(37,615,l),
(108,544,o),
(126,383,o),
(126,235,cs),
(126,164,o),
(118,100,o),
(112,60,cs),
(112,58,o),
(113,57,o),
(119,57,cs),
(126,57,o),
(143,63,o),
(151,72,c),
(167,105,o),
(184,242,o),
(184,372,cs),
(184,420,o),
(184,467,o),
(181,512,c,{
name = hr00;
})
);
},
{
closed = 1;
nodes = (
(296,709,l),
(330,762,o),
(372,807,o),
(445,856,c),
(445,871,o),
(421,893,o),
(412,894,c),
(369,876,o),
(323,846,o),
(291,816,c),
(279,842,o),
(263,866,o),
(243,888,c),
(180,878,l),
(170,862,l),
(215,817,o),
(246,771,o),
(272,709,c,{
name = hr00;
})
);
}
);
};
layerId = master01;
shapes = (
{
ref = D;
},
{
pos = (121,0);
ref = caroncomb.case;
}
);
width = 541;
}
);
unicode = 270;
},
{
glyphname = Dcroat;
lastChange = "2023-02-16 13:47:57 +0000";
layers = (
{
background = {
shapes = (
{
closed = 1;
nodes = (
(307,446,o),
(425,350,o),
(425,227,cs),
(425,117,o),
(319,17,o),
(158,17,cs),
(84,17,o),
(49,32,o),
(38,32,cs),
(36,32,o),
(35,31,o),
(35,25,cs),
(35,18,o),
(40,0,o),
(50,-11,c),
(123,-27,o),
(163,-28,o),
(218,-28,cs),
(325,-28,o),
(534,35,o),
(534,227,cs),
(534,429,o),
(267,497,o),
(79,682,c),
(37,615,l),
(99,552,o),
(121,420,o),
(125,288,c),
(110,288,ls),
(71,288,o),
(38,290,o),
(0,296,c),
(0,296,o),
(-4,296,o),
(-4,290,c),
(-2,277,o),
(9,242,o),
(19,236,c),
(54,227,o),
(90,222,o),
(126,220,c),
(125,155,o),
(116,97,o),
(112,60,cs),
(112,58,o),
(113,57,o),
(119,57,cs),
(126,57,o),
(143,63,o),
(151,72,c),
(160,91,o),
(170,148,o),
(177,219,c),
(217,219,o),
(255,223,o),
(294,230,c),
(327,308,l),
(316,326,l),
(281,313,o),
(240,298,o),
(182,292,c),
(183,318,o),
(184,345,o),
(184,372,cs),
(184,420,o),
(184,467,o),
(181,512,c,{
name = hr00;
})
);
}
);
};
layerId = master01;
shapes = (
{
ref = Eth;
}
);
width = 541;
}
);
unicode = 272;
},
{
glyphname = E;
lastChange = "2023-02-16 13:52:31 +0000";
layers = (
{
anchors = (
{
name = bottom;
pos = (271,0);
},
{
name = ogonek;
pos = (488,0);
},
{
name = top;
pos = (344,206);
},
{
name = topleft;
pos = (20,206);
}
);
background = {
shapes = (
{
closed = 1;
nodes = (
(412,384,l),
(369,367,o),
(305,349,o),
(215,349,cs),
(192,349,l),
(199,426,o),
(212,503,o),
(226,563,c),
(263,558,o),
(300,556,o),
(337,556,cs),
(382,556,o),
(427,559,o),
(474,565,c),
(507,651,l),
(490,677,l),
(415,639,o),
(328,627,o),
(241,626,c),
(253,661,l),
(227,677,l),
(154,627,l),
(83,633,l),
(82,633,o),
(81,632,o),
(81,628,cs),
(81,621,o),
(88,597,o),
(101,588,c),
(109,585,o),
(117,584,o),
(125,582,c),
(115,521,o),
(109,408,o),
(107,352,c),
(93,353,o),
(78,355,o),
(64,357,c),
(64,357,o),
(59,357,o),
(59,351,cs),
(60,340,o),
(73,307,o),
(86,303,c),
(106,299,l),
(109,126,o),
(148,-33,o),
(285,-33,cs),
(409,-33,o),
(468,68,o),
(494,199,c),
(482,209,o),
(470,213,o),
(463,213,cs),
(460,213,o),
(457,210,o),
(456,205,cs),
(422,84,o),
(382,25,o),
(298,25,cs),
(222,25,o),
(187,127,o),
(187,250,cs),
(187,263,o),
(187,276,o),
(188,290,c),
(214,288,o),
(241,287,o),
(267,287,cs),
(306,287,o),
(354,291,o),
(391,298,c),
(421,367,l,{
name = hr00;
})
);
}
);
};
layerId = master01;
shapes = (
{
closed = 1;
nodes = (
(409,-33,o),
(468,68,o),
(494,199,c),
(482,209,o),
(470,213,o),
(463,213,cs),
(460,213,o),
(457,210,o),
(456,205,cs),
(422,84,o),
(382,25,o),
(298,25,cs),
(222,25,o),
(187,127,o),
(187,250,cs),
(187,263,o),
(187,276,o),
(188,290,c),
(214,288,o),
(241,287,o),
(267,287,cs),
(306,287,o),
(354,291,o),
(391,298,c),
(421,367,l,{
name = hr00;
}),
(412,384,l),
(369,367,o),
(305,349,o),
(215,349,cs),
(192,349,l),
(199,426,o),
(212,503,o),
(226,563,c),
(263,558,o),
(300,556,o),
(337,556,cs),
(382,556,o),
(427,559,o),
(474,565,c),
(507,651,l),
(490,677,l),
(415,639,o),
(328,627,o),
(241,626,c),
(253,661,l),
(227,677,l),
(154,627,l),
(83,633,l),
(82,633,o),
(81,632,o),
(81,628,cs),
(81,621,o),
(88,597,o),
(101,588,c),
(109,585,o),
(117,584,o),
(125,582,c),
(115,521,o),
(109,408,o),
(107,352,c),
(93,353,o),
(78,355,o),
(64,357,c),
(63,357,o),
(59,357,o),
(59,351,cs),
(60,340,o),
(73,307,o),
(86,303,c),
(106,299,l),
(109,126,o),
(148,-33,o),
(285,-33,cs)
);
}
);
width = 542;
}
);
unicode = 69;
},
{
glyphname = Eacute;
lastChange = "2023-02-16 13:52:06 +0000";
layers = (
{
background = {
shapes = (
{
closed = 1;
nodes = (
(412,384,l),
(369,367,o),
(305,349,o),
(215,349,cs),
(192,349,l),
(199,426,o),
(212,503,o),
(226,563,c),
(263,558,o),
(300,556,o),
(337,556,cs),
(382,556,o),
(427,559,o),
(474,565,c),
(507,651,l),
(490,677,l),
(415,639,o),
(328,627,o),
(241,626,c),
(253,661,l),
(227,677,l),
(154,627,l),
(83,633,l),
(82,633,o),
(81,632,o),
(81,628,cs),
(81,621,o),
(88,597,o),
(101,588,c),
(109,585,o),
(117,584,o),
(125,582,c),
(115,521,o),
(109,408,o),
(107,352,c),
(93,353,o),
(78,355,o),
(64,357,c),
(64,357,o),
(59,357,o),
(59,351,cs),
(60,340,o),
(73,307,o),
(86,303,c),
(106,299,l),
(109,126,o),
(148,-33,o),
(285,-33,cs),
(409,-33,o),
(468,68,o),
(494,199,c),
(482,209,o),
(470,213,o),
(463,213,cs),
(460,213,o),
(457,210,o),
(456,205,cs),
(422,84,o),
(382,25,o),
(298,25,cs),
(222,25,o),
(187,127,o),
(187,250,cs),
(187,263,o),
(187,276,o),
(188,290,c),
(214,288,o),
(241,287,o),
(267,287,cs),
(306,287,o),
(354,291,o),
(391,298,c),
(421,367,l,{
name = hr00;
})
);
},
{
closed = 1;
nodes = (
(416,894,l),
(377,841,o),
(315,778,o),
(225,737,c),
(225,722,o),
(249,700,o),
(258,699,c),
(332,722,o),
(384,746,o),
(444,797,c),
(432,884,l,{
name = hr00;
})
);
}
);
};
layerId = master01;
shapes = (
{
ref = E;
},
{
pos = (184,0);
ref = acutecomb.case;
}
);
width = 542;
}
);
unicode = 201;
},
{
glyphname = Ebreve;
lastChange = "2023-02-16 13:52:06 +0000";
layers = (
{
background = {
shapes = (
{
closed = 1;
nodes = (
(412,384,l),
(369,367,o),
(305,349,o),
(215,349,cs),
(192,349,l),
(199,426,o),
(212,503,o),
(226,563,c),
(263,558,o),
(300,556,o),
(337,556,cs),
(382,556,o),
(427,559,o),
(474,565,c),
(507,651,l),
(490,677,l),
(415,639,o),
(328,627,o),
(241,626,c),
(253,661,l),
(227,677,l),
(154,627,l),
(83,633,l),
(82,633,o),
(81,632,o),
(81,628,cs),
(81,621,o),
(88,597,o),
(101,588,c),
(109,585,o),
(117,584,o),
(125,582,c),
(115,521,o),
(109,408,o),
(107,352,c),
(93,353,o),
(78,355,o),
(64,357,c),
(64,357,o),
(59,357,o),
(59,351,cs),
(60,340,o),
(73,307,o),
(86,303,c),
(106,299,l),
(109,126,o),
(148,-33,o),
(285,-33,cs),
(409,-33,o),
(468,68,o),
(494,199,c),
(482,209,o),
(470,213,o),
(463,213,cs),
(460,213,o),
(457,210,o),
(456,205,cs),
(422,84,o),
(382,25,o),
(298,25,cs),
(222,25,o),
(187,127,o),
(187,250,cs),
(187,263,o),
(187,276,o),
(188,290,c),
(214,288,o),
(241,287,o),
(267,287,cs),
(306,287,o),
(354,291,o),
(391,298,c),
(421,367,l,{
name = hr00;
})
);
},
{
closed = 1;
nodes = (
(402,769,o),
(283,758,o),
(283,840,c),
(268,850,l),
(217,823,l),
(217,755,o),
(265,725,o),
(326,725,cs),
(407,725,o),
(468,787,o),
(468,858,cs),
(454,868,l),
(402,841,l,{
name = hr00;
})
);
}
);
};
layerId = master01;
shapes = (
{
ref = E;
},
{
pos = (167,0);
ref = brevecomb.case;
}
);
width = 542;
}
);
unicode = 276;
},
{
glyphname = Ecaron;
lastChange = "2023-02-16 13:52:06 +0000";
layers = (
{
background = {
shapes = (
{
closed = 1;
nodes = (
(412,384,l),
(369,367,o),
(305,349,o),
(215,349,cs),
(192,349,l),
(199,426,o),
(212,503,o),
(226,563,c),
(263,558,o),
(300,556,o),
(337,556,cs),
(382,556,o),
(427,559,o),
(474,565,c),
(507,651,l),
(490,677,l),
(415,639,o),
(328,627,o),
(241,626,c),
(253,661,l),
(227,677,l),
(154,627,l),
(83,633,l),
(82,633,o),
(81,632,o),
(81,628,cs),
(81,621,o),
(88,597,o),
(101,588,c),
(109,585,o),
(117,584,o),
(125,582,c),
(115,521,o),
(109,408,o),
(107,352,c),
(93,353,o),
(78,355,o),
(64,357,c),
(64,357,o),
(59,357,o),
(59,351,cs),
(60,340,o),
(73,307,o),
(86,303,c),
(106,299,l),
(109,126,o),
(148,-33,o),
(285,-33,cs),
(409,-33,o),
(468,68,o),
(494,199,c),
(482,209,o),
(470,213,o),
(463,213,cs),
(460,213,o),
(457,210,o),
(456,205,cs),
(422,84,o),
(382,25,o),
(298,25,cs),
(222,25,o),
(187,127,o),
(187,250,cs),
(187,263,o),
(187,276,o),
(188,290,c),
(214,288,o),
(241,287,o),
(267,287,cs),
(306,287,o),
(354,291,o),
(391,298,c),
(421,367,l,{
name = hr00;
})
);
},
{
closed = 1;
nodes = (
(332,709,l),
(366,762,o),
(408,807,o),
(481,856,c),
(481,871,o),
(457,893,o),
(448,894,c),
(405,876,o),
(359,846,o),
(327,816,c),
(315,842,o),
(299,866,o),
(279,888,c),
(216,878,l),
(206,862,l),
(251,817,o),
(282,771,o),
(308,709,c,{
name = hr00;
})
);
}
);
};
layerId = master01;
shapes = (
{
ref = E;
},
{
pos = (156,0);
ref = caroncomb.case;
}
);
width = 542;
}
);
unicode = 282;
},
{
glyphname = Ecircumflex;
lastChange = "2023-02-16 13:52:06 +0000";
layers = (
{
background = {
shapes = (
{
closed = 1;
nodes = (
(412,384,l),
(369,367,o),
(305,349,o),
(215,349,cs),
(192,349,l),
(199,426,o),
(212,503,o),
(226,563,c),
(263,558,o),
(300,556,o),
(337,556,cs),
(382,556,o),
(427,559,o),
(474,565,c),
(507,651,l),
(490,677,l),
(415,639,o),
(328,627,o),
(241,626,c),
(253,661,l),
(227,677,l),
(154,627,l),
(83,633,l),
(82,633,o),
(81,632,o),
(81,628,cs),
(81,621,o),
(88,597,o),
(101,588,c),
(109,585,o),
(117,584,o),
(125,582,c),
(115,521,o),
(109,408,o),
(107,352,c),
(93,353,o),
(78,355,o),
(64,357,c),
(64,357,o),
(59,357,o),
(59,351,cs),
(60,340,o),
(73,307,o),
(86,303,c),
(106,299,l),
(109,126,o),
(148,-33,o),
(285,-33,cs),
(409,-33,o),
(468,68,o),
(494,199,c),
(482,209,o),
(470,213,o),
(463,213,cs),
(460,213,o),
(457,210,o),
(456,205,cs),
(422,84,o),
(382,25,o),
(298,25,cs),
(222,25,o),
(187,127,o),
(187,250,cs),
(187,263,o),
(187,276,o),
(188,290,c),
(214,288,o),
(241,287,o),
(267,287,cs),
(306,287,o),
(354,291,o),
(391,298,c),
(421,367,l,{
name = hr00;
})
);
},
{
closed = 1;
nodes = (
(342,884,l),
(308,831,o),
(266,786,o),
(193,737,c),
(193,722,o),
(217,700,o),
(226,699,c),
(269,716,o),
(314,746,o),
(347,777,c),
(359,751,o),
(374,727,o),
(395,705,c),
(458,715,l),
(468,731,l),
(423,776,o),
(392,822,o),
(366,884,c,{
name = hr00;
})
);
}
);
};
layerId = master01;
shapes = (
{
ref = E;
},
{
pos = (156,0);
ref = circumflexcomb.case;
}
);
width = 542;
}
);
unicode = 202;
},
{
glyphname = Edieresis;
lastChange = "2023-02-16 13:52:06 +0000";
layers = (
{
background = {
shapes = (
{
closed = 1;
nodes = (
(412,384,l),
(369,367,o),
(305,349,o),
(215,349,cs),
(192,349,l),
(199,426,o),
(212,503,o),
(226,563,c),
(263,558,o),
(300,556,o),
(337,556,cs),
(382,556,o),
(427,559,o),
(474,565,c),
(507,651,l),
(490,677,l),
(415,639,o),
(328,627,o),
(241,626,c),
(253,661,l),
(227,677,l),
(154,627,l),
(83,633,l),
(82,633,o),
(81,632,o),
(81,628,cs),
(81,621,o),
(88,597,o),
(101,588,c),
(109,585,o),
(117,584,o),
(125,582,c),
(115,521,o),
(109,408,o),
(107,352,c),
(93,353,o),
(78,355,o),
(64,357,c),
(64,357,o),
(59,357,o),
(59,351,cs),
(60,340,o),
(73,307,o),
(86,303,c),
(106,299,l),
(109,126,o),
(148,-33,o),
(285,-33,cs),
(409,-33,o),
(468,68,o),
(494,199,c),
(482,209,o),
(470,213,o),
(463,213,cs),
(460,213,o),
(457,210,o),
(456,205,cs),
(422,84,o),
(382,25,o),
(298,25,cs),
(222,25,o),
(187,127,o),
(187,250,cs),
(187,263,o),
(187,276,o),
(188,290,c),
(214,288,o),
(241,287,o),
(267,287,cs),
(306,287,o),
(354,291,o),
(391,298,c),
(421,367,l,{
name = hr00;
})
);
},
{
closed = 1;
nodes = (
(184,817,o),
(213,843,o),
(269,851,c),
(290,834,o),
(298,810,o),
(298,790,cs),
(298,750,o),
(264,726,o),
(232,726,cs),
(200,726,o),
(184,755,o),
(184,779,cs,{
name = hr00;
})
);
},
{
closed = 1;
nodes = (
(371,817,o),
(400,843,o),
(456,851,c),
(477,834,o),
(485,810,o),
(485,790,cs),
(485,750,o),
(451,726,o),
(419,726,cs),
(387,726,o),
(371,755,o),
(371,779,cs)
);
}
);
};
layerId = master01;
shapes = (
{
ref = E;
},
{
pos = (143,0);
ref = dieresiscomb.case;
}
);
width = 542;
}
);
unicode = 203;
},
{
glyphname = Edotaccent;
lastChange = "2023-02-16 13:52:06 +0000";
layers = (
{
background = {
shapes = (
{
closed = 1;
nodes = (
(412,384,l),
(369,367,o),
(305,349,o),
(215,349,cs),
(192,349,l),
(199,426,o),
(212,503,o),
(226,563,c),
(263,558,o),
(300,556,o),
(337,556,cs),
(382,556,o),
(427,559,o),
(474,565,c),
(507,651,l),
(490,677,l),
(415,639,o),
(328,627,o),
(241,626,c),
(253,661,l),
(227,677,l),
(154,627,l),
(83,633,l),
(82,633,o),
(81,632,o),
(81,628,cs),
(81,621,o),
(88,597,o),
(101,588,c),
(109,585,o),
(117,584,o),
(125,582,c),
(115,521,o),
(109,408,o),
(107,352,c),
(93,353,o),
(78,355,o),
(64,357,c),
(64,357,o),
(59,357,o),
(59,351,cs),
(60,340,o),
(73,307,o),
(86,303,c),
(106,299,l),
(109,126,o),
(148,-33,o),
(285,-33,cs),
(409,-33,o),
(468,68,o),
(494,199,c),
(482,209,o),
(470,213,o),
(463,213,cs),
(460,213,o),
(457,210,o),
(456,205,cs),
(422,84,o),
(382,25,o),
(298,25,cs),
(222,25,o),
(187,127,o),
(187,250,cs),
(187,263,o),
(187,276,o),
(188,290,c),
(214,288,o),
(241,287,o),
(267,287,cs),
(306,287,o),
(354,291,o),
(391,298,c),
(421,367,l,{
name = hr00;
})
);
},
{
closed = 1;
nodes = (
(272,821,o),
(308,854,o),
(375,863,c),
(401,842,o),
(410,813,o),
(410,789,cs),
(410,741,o),
(369,712,o),
(331,712,cs),
(292,712,o),
(272,747,o),
(272,777,cs,{
name = hr00;
})
);
}
);
};
layerId = master01;
shapes = (
{
ref = E;
},
{
pos = (225,0);
ref = dotaccentcomb.case;
}
);
width = 542;
}
);
unicode = 278;
},
{
glyphname = Egrave;
lastChange = "2023-02-16 13:52:06 +0000";
layers = (
{
background = {
shapes = (
{
closed = 1;
nodes = (
(412,384,l),
(369,367,o),
(305,349,o),
(215,349,cs),
(192,349,l),
(199,426,o),
(212,503,o),
(226,563,c),
(263,558,o),
(300,556,o),
(337,556,cs),
(382,556,o),
(427,559,o),
(474,565,c),
(507,651,l),
(490,677,l),
(415,639,o),
(328,627,o),
(241,626,c),
(253,661,l),
(227,677,l),
(154,627,l),
(83,633,l),
(82,633,o),
(81,632,o),
(81,628,cs),
(81,621,o),
(88,597,o),
(101,588,c),
(109,585,o),
(117,584,o),
(125,582,c),
(115,521,o),
(109,408,o),
(107,352,c),
(93,353,o),
(78,355,o),
(64,357,c),
(64,357,o),
(59,357,o),
(59,351,cs),
(60,340,o),
(73,307,o),
(86,303,c),
(106,299,l),
(109,126,o),
(148,-33,o),
(285,-33,cs),
(409,-33,o),
(468,68,o),
(494,199,c),
(482,209,o),
(470,213,o),
(463,213,cs),
(460,213,o),
(457,210,o),
(456,205,cs),
(422,84,o),
(382,25,o),
(298,25,cs),
(222,25,o),
(187,127,o),
(187,250,cs),
(187,263,o),
(187,276,o),
(188,290,c),
(214,288,o),
(241,287,o),
(267,287,cs),
(306,287,o),
(354,291,o),
(391,298,c),
(421,367,l,{
name = hr00;
})
);
},
{
closed = 1;
nodes = (
(230,894,l),
(269,841,o),
(331,778,o),
(421,737,c),
(421,722,o),
(397,700,o),
(388,699,c),
(314,722,o),
(262,746,o),
(202,797,c),
(214,884,l,{
name = hr00;
})
);
}
);
};
layerId = master01;
shapes = (
{
ref = E;
},
{
pos = (184,0);
ref = gravecomb.case;
}
);
width = 542;
}
);
unicode = 200;
},
{
glyphname = Emacron;
lastChange = "2023-02-16 13:52:06 +0000";
layers = (
{
background = {
shapes = (
{
closed = 1;
nodes = (
(412,384,l),
(369,367,o),
(305,349,o),
(215,349,cs),
(192,349,l),
(199,426,o),
(212,503,o),
(226,563,c),
(263,558,o),
(300,556,o),
(337,556,cs),
(382,556,o),
(427,559,o),
(474,565,c),
(507,651,l),
(490,677,l),
(415,639,o),
(328,627,o),
(241,626,c),
(253,661,l),
(227,677,l),
(154,627,l),
(83,633,l),
(82,633,o),
(81,632,o),
(81,628,cs),
(81,621,o),
(88,597,o),
(101,588,c),
(109,585,o),
(117,584,o),
(125,582,c),
(115,521,o),
(109,408,o),
(107,352,c),
(93,353,o),
(78,355,o),
(64,357,c),
(64,357,o),
(59,357,o),
(59,351,cs),
(60,340,o),
(73,307,o),
(86,303,c),
(106,299,l),
(109,126,o),
(148,-33,o),
(285,-33,cs),
(409,-33,o),
(468,68,o),
(494,199,c),
(482,209,o),
(470,213,o),
(463,213,cs),
(460,213,o),
(457,210,o),
(456,205,cs),
(422,84,o),
(382,25,o),
(298,25,cs),
(222,25,o),
(187,127,o),
(187,250,cs),
(187,263,o),
(187,276,o),
(188,290,c),
(214,288,o),
(241,287,o),
(267,287,cs),
(306,287,o),
(354,291,o),
(391,298,c),
(421,367,l,{
name = hr00;
})
);
},
{
closed = 1;
nodes = (
(452,844,l),
(420,823,o),
(377,805,o),
(303,805,cs),
(251,805,o),
(227,813,o),
(223,813,cs),
(220,813,o),
(218,810,o),
(218,807,cs),
(218,796,o),
(227,765,o),
(235,759,c),
(271,747,o),
(309,742,o),
(346,742,cs),
(378,742,o),
(409,746,o),
(441,753,c),
(465,825,l,{
name = hr00;
})
);
}
);
};
layerId = master01;
shapes = (
{
ref = E;
},
{
pos = (180,0);
ref = macroncomb.case;
}
);
width = 542;
}
);
unicode = 274;
},
{
glyphname = Eogonek;
lastChange = "2023-02-16 13:52:31 +0000";
layers = (
{
background = {
shapes = (
{
closed = 1;
nodes = (
(412,384,l),
(369,367,o),
(305,349,o),
(215,349,cs),
(192,349,l),
(199,426,o),
(212,503,o),
(226,563,c),
(263,558,o),
(300,556,o),
(337,556,cs),
(382,556,o),
(427,559,o),
(474,565,c),
(507,651,l),
(490,677,l),
(415,639,o),
(328,627,o),
(241,626,c),
(253,661,l),
(227,677,l),
(154,627,l),
(83,633,l),
(82,633,o),
(81,632,o),
(81,628,cs),
(81,621,o),
(88,597,o),
(101,588,c),
(109,585,o),
(117,584,o),
(125,582,c),
(115,521,o),
(109,408,o),
(107,352,c),
(93,353,o),
(78,355,o),
(64,357,c),
(64,357,o),
(59,357,o),
(59,351,cs),
(60,340,o),
(73,307,o),
(86,303,c),
(106,299,l),
(109,126,o),
(148,-33,o),
(285,-33,cs),
(409,-33,o),
(468,68,o),
(494,199,c),
(482,209,o),
(470,213,o),
(463,213,cs),
(460,213,o),
(457,210,o),
(456,205,cs),
(422,84,o),
(382,25,o),
(298,25,cs),
(222,25,o),
(187,127,o),
(187,250,cs),
(187,263,o),
(187,276,o),
(188,290,c),
(214,288,o),
(241,287,o),
(267,287,cs),
(306,287,o),
(354,291,o),
(391,298,c),
(421,367,l,{
name = hr00;
})
);
},
{
closed = 1;
nodes = (
(305,-30,o),
(272,-89,o),
(272,-131,cs),
(272,-184,o),
(302,-225,o),
(362,-225,cs),
(410,-225,o),
(462,-178,o),
(488,-114,c),
(484,-107,o),
(471,-100,o),
(462,-100,c),
(439,-141,o),
(412,-166,o),
(384,-166,cs),
(351,-166,o),
(334,-142,o),
(334,-109,cs),
(334,-75,o),
(352,-33,o),
(391,0,c),
(350,0,l,{
name = hr00;
})
);
}
);
};
layerId = master01;
shapes = (
{
ref = E;
},
{
pos = (176,0);
ref = ogonekcomb;
}
);
width = 542;
}
);
unicode = 280;
},
{
glyphname = F;
lastChange = "2023-02-16 13:47:52 +0000";
layers = (
{
anchors = (
{
name = bottom;
pos = (217,0);
},
{
name = top;
pos = (217,206);
}
);
background = {
shapes = (
{
closed = 1;
nodes = (
(377,376,l),
(338,361,o),
(283,346,o),
(209,342,c),
(211,381,o),
(213,419,o),
(213,458,cs),
(213,492,o),
(212,526,o),
(210,560,c),
(238,557,o),
(266,556,o),
(295,556,cs),
(338,556,o),
(383,559,o),
(430,565,c),
(463,651,l),
(446,677,l),
(373,640,o),
(287,628,o),
(203,626,c),
(202,638,o),
(200,649,o),
(198,661,c),
(172,677,l),
(102,629,l),
(83,630,o),
(65,631,o),
(47,633,c),
(46,633,o),
(45,632,o),
(45,628,cs),
(45,621,o),
(52,597,o),
(65,588,c),
(79,584,o),
(93,580,o),
(108,577,c),
(116,526,o),
(129,440,o),
(134,342,c),
(113,343,o),
(93,345,o),
(72,349,c),
(72,349,o),
(69,349,o),
(69,343,cs),
(70,332,o),
(79,299,o),
(89,295,c),
(104,291,o),
(119,288,o),
(135,285,c),
(135,274,o),
(136,264,o),
(136,253,cs),
(136,70,o),
(105,-28,o),
(106,-28,c),
(106,-32,o),
(108,-33,o),
(117,-33,cs,{
name = hr01;
}),
(128,-33,o),
(155,-26,o),
(165,-14,c),
(180,78,o),
(195,178,o),
(204,279,c),
(214,278,o),
(224,278,o),
(234,278,cs),
(274,278,o),
(316,284,o),
(355,290,c),
(386,359,l)
);
}
);
};
layerId = master01;
shapes = (
{
closed = 1;
nodes = (
(128,-33,o),
(155,-26,o),
(165,-14,c),
(180,78,o),
(195,178,o),
(204,279,c),
(214,278,o),
(224,278,o),
(234,278,cs),
(274,278,o),
(316,284,o),
(355,290,c),
(386,359,l),
(377,376,l),
(338,361,o),
(283,346,o),
(209,342,c),
(211,381,o),
(213,419,o),
(213,458,cs),
(213,492,o),
(212,526,o),
(210,560,c),
(238,557,o),
(266,556,o),
(295,556,cs),
(338,556,o),
(383,559,o),
(430,565,c),
(463,651,l),
(446,677,l),
(373,640,o),
(287,628,o),
(203,626,c),
(202,638,o),
(200,649,o),
(198,661,c),
(172,677,l),
(102,629,l),
(83,630,o),
(65,631,o),
(47,633,c),
(46,633,o),
(45,632,o),
(45,628,cs),
(45,621,o),
(52,597,o),
(65,588,c),
(79,584,o),
(93,580,o),
(108,577,c),
(116,526,o),
(129,440,o),
(134,342,c),
(113,343,o),
(93,345,o),
(72,349,c),
(72,349,o),
(69,349,o),
(69,343,cs),
(70,332,o),
(79,299,o),
(89,295,c),
(104,291,o),
(119,288,o),
(135,285,c),
(135,274,o),
(136,264,o),
(136,253,cs),
(136,70,o),
(105,-28,o),
(106,-28,c),
(106,-32,o),
(108,-33,o),
(117,-33,cs,{
name = hr01;
})
);
}
);
width = 433;
}
);
unicode = 70;
},
{
glyphname = G;
lastChange = "2023-02-16 14:04:02 +0000";
layers = (
{
anchors = (
{
name = bottom;
pos = (250,0);
},
{
name = top;
pos = (341,206);
}
);
background = {
shapes = (
{
closed = 1;
nodes = (
(485,31,o),
(471,111,o),
(471,192,cs),
(471,261,o),
(482,325,o),
(503,365,c),
(421,402,l),
(397,386,l),
(391,352,o),
(387,316,o),
(387,285,cs),
(387,260,o),
(388,236,o),
(391,212,c),
(361,108,o),
(309,55,o),
(243,55,cs),
(181,55,o),
(119,133,o),
(119,307,cs),
(119,420,o),
(174,569,o),
(371,569,cs),
(389,569,o),
(409,568,o),
(430,565,c),
(463,651,l),
(446,677,l),
(133,629,o),
(30,416,o),
(30,252,cs),
(30,85,o),
(99,-32,o),
(218,-32,cs),
(296,-32,o),
(364,26,o),
(406,129,c),
(417,84,o),
(433,41,o),
(452,-4,c),
(459,-13,o),
(479,-18,o),
(487,-19,c),
(495,-18,o),
(496,-16,o),
(496,-14,cs,{
name = hr00;
})
);
}
);
};
layerId = master01;
shapes = (
{
closed = 1;
nodes = (
(296,-32,o),
(364,26,o),
(406,129,c),
(417,84,o),
(433,41,o),
(452,-4,c),
(459,-13,o),
(479,-18,o),
(487,-19,c),
(495,-18,o),
(496,-16,o),
(496,-14,cs,{
name = hr00;
}),
(485,31,o),
(471,111,o),
(471,192,cs),
(471,261,o),
(482,325,o),
(503,365,c),
(421,402,l),
(397,386,l),
(391,352,o),
(387,316,o),
(387,285,cs),
(387,260,o),
(388,236,o),
(391,212,c),
(361,108,o),
(309,55,o),
(243,55,cs),
(181,55,o),
(119,133,o),
(119,307,cs),
(119,420,o),
(174,569,o),
(371,569,cs),
(389,569,o),
(409,568,o),
(430,565,c),
(463,651,l),
(446,677,l),
(133,629,o),
(30,416,o),
(30,252,cs),
(30,85,o),
(99,-32,o),
(218,-32,cs)
);
}
);
width = 538;
}
);
unicode = 71;
},
{
glyphname = Gbreve;
lastChange = "2023-02-16 13:52:38 +0000";
layers = (
{
background = {
shapes = (
{
closed = 1;
nodes = (
(485,31,o),
(471,111,o),
(471,192,cs),
(471,261,o),
(482,325,o),
(503,365,c),
(421,402,l),
(397,386,l),
(391,352,o),
(387,316,o),
(387,285,cs),
(387,260,o),
(388,236,o),
(391,212,c),
(361,108,o),
(309,55,o),
(243,55,cs),
(181,55,o),
(119,133,o),
(119,307,cs),
(119,420,o),
(174,569,o),
(371,569,cs),
(389,569,o),
(409,568,o),
(430,565,c),
(463,651,l),
(446,677,l),
(133,629,o),
(30,416,o),
(30,252,cs),
(30,85,o),
(99,-32,o),
(218,-32,cs),
(296,-32,o),
(364,26,o),
(406,129,c),
(417,84,o),
(433,41,o),
(452,-4,c),
(459,-13,o),
(479,-18,o),
(487,-19,c),
(495,-18,o),
(496,-16,o),
(496,-14,cs,{
name = hr00;
})
);
},
{
closed = 1;
nodes = (
(403,769,o),
(284,758,o),
(284,840,c),
(269,850,l),
(218,823,l),
(218,755,o),
(266,725,o),
(327,725,cs),
(408,725,o),
(469,787,o),
(469,858,cs),
(455,868,l),
(403,841,l,{
name = hr00;
})
);
}
);
};
layerId = master01;
shapes = (
{
ref = G;
},
{
pos = (164,0);
ref = brevecomb.case;
}
);
width = 538;
}
);
unicode = 286;
},
{
glyphname = Gcircumflex;
lastChange = "2023-02-16 13:52:38 +0000";
layers = (
{
background = {
shapes = (
{
closed = 1;
nodes = (
(485,31,o),
(471,111,o),
(471,192,cs),
(471,261,o),
(482,325,o),
(503,365,c),
(421,402,l),
(397,386,l),
(391,352,o),
(387,316,o),
(387,285,cs),
(387,260,o),
(388,236,o),
(391,212,c),
(361,108,o),
(309,55,o),
(243,55,cs),
(181,55,o),
(119,133,o),
(119,307,cs),
(119,420,o),
(174,569,o),
(371,569,cs),
(389,569,o),
(409,568,o),
(430,565,c),
(463,651,l),
(446,677,l),
(133,629,o),
(30,416,o),
(30,252,cs),
(30,85,o),
(99,-32,o),
(218,-32,cs),
(296,-32,o),
(364,26,o),
(406,129,c),
(417,84,o),
(433,41,o),
(452,-4,c),
(459,-13,o),
(479,-18,o),
(487,-19,c),
(495,-18,o),
(496,-16,o),
(496,-14,cs,{
name = hr00;
})
);
},
{
closed = 1;
nodes = (
(353,884,l),
(319,831,o),
(277,786,o),
(204,737,c),
(204,722,o),
(228,700,o),
(237,699,c),
(280,716,o),
(325,746,o),
(358,777,c),
(370,751,o),
(385,727,o),
(406,705,c),
(469,715,l),
(479,731,l),
(434,776,o),
(403,822,o),
(377,884,c,{
name = hr00;
})
);
}
);
};
layerId = master01;
shapes = (
{
ref = G;
},
{
pos = (153,0);
ref = circumflexcomb.case;
}
);
width = 538;
}
);
unicode = 284;
},
{
glyphname = Gcommaaccent;
lastChange = "2023-02-16 14:04:02 +0000";
layers = (
{
background = {
shapes = (
{
closed = 1;
nodes = (
(485,31,o),
(471,111,o),
(471,192,cs),
(471,261,o),
(482,325,o),
(503,365,c),
(421,402,l),
(397,386,l),
(391,352,o),
(387,316,o),
(387,285,cs),
(387,260,o),
(388,236,o),
(391,212,c),
(361,108,o),
(309,55,o),
(243,55,cs),
(181,55,o),
(119,133,o),
(119,307,cs),
(119,420,o),
(174,569,o),
(371,569,cs),
(389,569,o),
(409,568,o),
(430,565,c),
(463,651,l),
(446,677,l),
(133,629,o),
(30,416,o),
(30,252,cs),
(30,85,o),
(99,-32,o),
(218,-32,cs),
(296,-32,o),
(364,26,o),
(406,129,c),
(417,84,o),
(433,41,o),
(452,-4,c),
(459,-13,o),
(479,-18,o),
(487,-19,c),
(495,-18,o),
(496,-16,o),
(496,-14,cs,{
name = hr00;
})
);
},
{
closed = 1;
nodes = (
(306,-108,o),
(281,-78,o),
(244,-78,cs),
(207,-78,o),
(171,-104,o),
(171,-151,c),
(214,-213,l),
(211,-253,o),
(191,-289,o),
(138,-314,c),
(138,-324,o),
(148,-345,o),
(154,-345,cs),
(167,-345,o),
(306,-289,o),
(306,-154,cs,{
name = hr00;
})
);
}
);
};
layerId = master01;
shapes = (
{
ref = G;
},
{
pos = (129,0);
ref = commaaccent;
}
);
width = 538;
}
);
unicode = 290;
},
{
glyphname = Gdotaccent;
lastChange = "2023-02-16 13:52:38 +0000";
layers = (
{
background = {
shapes = (
{
closed = 1;
nodes = (
(485,31,o),
(471,111,o),
(471,192,cs),
(471,261,o),
(482,325,o),
(503,365,c),
(421,402,l),
(397,386,l),
(391,352,o),
(387,316,o),
(387,285,cs),
(387,260,o),
(388,236,o),
(391,212,c),
(361,108,o),
(309,55,o),
(243,55,cs),
(181,55,o),
(119,133,o),
(119,307,cs),
(119,420,o),
(174,569,o),
(371,569,cs),
(389,569,o),
(409,568,o),
(430,565,c),
(463,651,l),
(446,677,l),
(133,629,o),
(30,416,o),
(30,252,cs),
(30,85,o),
(99,-32,o),
(218,-32,cs),
(296,-32,o),
(364,26,o),
(406,129,c),
(417,84,o),
(433,41,o),
(452,-4,c),
(459,-13,o),
(479,-18,o),
(487,-19,c),
(495,-18,o),
(496,-16,o),
(496,-14,cs,{
name = hr00;
})
);
},
{
closed = 1;
nodes = (
(273,821,o),
(309,854,o),
(376,863,c),
(402,842,o),
(411,813,o),
(411,789,cs),
(411,741,o),
(370,712,o),
(332,712,cs),
(293,712,o),
(273,747,o),
(273,777,cs,{
name = hr00;
})
);
}
);
};
layerId = master01;
shapes = (
{
ref = G;
},
{
pos = (222,0);
ref = dotaccentcomb.case;
}
);
width = 538;
}
);
unicode = 288;
},
{
glyphname = H;
lastChange = "2023-02-16 13:53:41 +0000";
layers = (
{
anchors = (
{
name = bottom;
pos = (306,0);
},
{
name = center;
pos = (306,103);
},
{
name = top;
pos = (330,206);
},
{
name = topleft;
pos = (20,206);
}
);
background = {
shapes = (
{
closed = 1;
nodes = (
(522,34,o),
(515,150,o),
(515,273,cs),
(515,417,o),
(525,544,o),
(561,636,c),
(476,677,l),
(450,661,l),
(438,584,o),
(431,509,o),
(431,432,cs),
(431,411,o),
(431,390,o),
(432,369,c),
(364,338,o),
(281,326,o),
(208,323,c),
(211,368,o),
(213,413,o),
(213,458,cs),
(213,527,o),
(209,596,o),
(198,661,c),
(172,677,l),
(85,636,l),
(85,636,o),
(124,495,o),
(134,325,c),
(93,329,o),
(72,338,o),
(64,338,cs),
(62,338,o),
(60,337,o),
(60,329,cs),
(60,321,o),
(65,297,o),
(75,288,c),
(98,282,o),
(117,278,o),
(135,276,c),
(135,268,o),
(136,260,o),
(136,253,cs),
(136,70,o),
(105,-28,o),
(106,-28,c),
(106,-32,o),
(108,-33,o),
(117,-33,cs,{
name = hr01;
}),
(128,-33,o),
(155,-26,o),
(165,-14,c),
(180,75,o),
(195,172,o),
(204,270,c),
(215,269,o),
(226,269,o),
(237,269,cs),
(304,269,o),
(372,279,o),
(437,292,c),
(445,191,o),
(462,88,o),
(483,-19,c),
(491,-28,o),
(512,-34,o),
(522,-34,cs,{
name = hr02;
}),
(529,-34,o),
(530,-33,o),
(530,-31,cs)
);
}
);
};
layerId = master01;
shapes = (
{
closed = 1;
nodes = (
(529,-34,o),
(530,-33,o),
(530,-31,cs),
(522,34,o),
(515,150,o),
(515,273,cs),
(515,417,o),
(525,544,o),
(561,636,c),
(476,677,l),
(450,661,l),
(438,584,o),
(431,509,o),
(431,432,cs),
(431,411,o),
(431,390,o),
(432,369,c),
(364,338,o),
(281,326,o),
(208,323,c),
(211,368,o),
(213,413,o),
(213,458,cs),
(213,527,o),
(209,596,o),
(198,661,c),
(172,677,l),
(85,636,l),
(85,636,o),
(124,495,o),
(134,325,c),
(93,329,o),
(72,338,o),
(64,338,cs),
(62,338,o),
(60,337,o),
(60,329,cs),
(60,321,o),
(65,297,o),
(75,288,c),
(98,282,o),
(117,278,o),
(135,276,c),
(135,268,o),
(136,260,o),
(136,253,cs),
(136,70,o),
(105,-28,o),
(106,-28,c),
(106,-32,o),
(108,-33,o),
(117,-33,cs,{
name = hr01;
}),
(128,-33,o),
(155,-26,o),
(165,-14,c),
(180,75,o),
(195,172,o),
(204,270,c),
(215,269,o),
(226,269,o),
(237,269,cs),
(304,269,o),
(372,279,o),
(437,292,c),
(445,191,o),
(462,88,o),
(483,-19,c),
(491,-28,o),
(512,-34,o),
(522,-34,cs,{
name = hr02;
})
);
}
);
width = 611;
}
);
unicode = 72;
},
{
glyphname = Hbar;
lastChange = "2023-02-16 13:46:41 +0000";
layers = (
{
background = {
shapes = (
{
closed = 1;
nodes = (
(417,447,o),
(497,459,o),
(569,476,c),
(576,495,l),
(543,542,l),
(420,504,o),
(224,474,o),
(73,458,c),
(61,450,o),
(58,440,o),
(58,433,cs),
(58,428,o),
(65,424,o),
(119,424,cs),
(163,424,o),
(233,427,o),
(327,437,cs,{
name = hr00;
})
);
},
{
closed = 1;
nodes = (
(522,34,o),
(515,150,o),
(515,273,cs),
(515,417,o),
(525,544,o),
(561,636,c),
(476,677,l),
(450,661,l),
(438,584,o),
(431,509,o),
(431,432,cs),
(431,411,o),
(431,390,o),
(432,369,c),
(364,338,o),
(281,326,o),
(208,323,c),
(211,368,o),
(213,413,o),
(213,458,cs),
(213,527,o),
(209,596,o),
(198,661,c),
(172,677,l),
(85,636,l),
(85,636,o),
(124,495,o),
(134,325,c),
(93,329,o),
(72,338,o),
(64,338,cs),
(62,338,o),
(60,337,o),
(60,329,cs),
(60,321,o),
(65,297,o),
(75,288,c),
(98,282,o),
(117,278,o),
(135,276,c),
(135,268,o),
(136,260,o),
(136,253,cs),
(136,70,o),
(105,-28,o),
(106,-28,c),
(106,-32,o),
(108,-33,o),
(117,-33,cs,{
name = hr01;
}),
(128,-33,o),
(155,-26,o),
(165,-14,c),
(180,75,o),
(195,172,o),
(204,270,c),
(215,269,o),
(226,269,o),
(237,269,cs),
(304,269,o),
(372,279,o),
(437,292,c),
(445,191,o),
(462,88,o),
(483,-19,c),
(491,-28,o),
(512,-34,o),
(522,-34,cs,{
name = hr02;
}),
(529,-34,o),
(530,-33,o),
(530,-31,cs)
);
}
);
};
layerId = master01;
shapes = (
{
closed = 1;
nodes = (
(163,424,o),
(233,427,o),
(327,437,cs,{
name = hr00;
}),
(417,447,o),
(497,459,o),
(569,476,c),
(576,495,l),
(543,542,l),
(420,504,o),
(224,474,o),
(73,458,c),
(61,450,o),
(58,440,o),
(58,433,cs),
(58,428,o),
(65,424,o),
(119,424,cs)
);
},
{
ref = H;
}
);
width = 611;
}
);
unicode = 294;
},
{
glyphname = Hcircumflex;
lastChange = "2023-02-16 13:53:41 +0000";
layers = (
{
background = {
shapes = (
{
closed = 1;
nodes = (
(522,34,o),
(515,150,o),
(515,273,cs),
(515,417,o),
(525,544,o),
(561,636,c),
(476,677,l),
(450,661,l),
(438,584,o),
(431,509,o),
(431,432,cs),
(431,411,o),
(431,390,o),
(432,369,c),
(364,338,o),
(281,326,o),
(208,323,c),
(211,368,o),
(213,413,o),
(213,458,cs),
(213,527,o),
(209,596,o),
(198,661,c),
(172,677,l),
(85,636,l),
(85,636,o),
(124,495,o),
(134,325,c),
(93,329,o),
(72,338,o),
(64,338,cs),
(62,338,o),
(60,337,o),
(60,329,cs),
(60,321,o),
(65,297,o),
(75,288,c),
(98,282,o),
(117,278,o),
(135,276,c),
(135,268,o),
(136,260,o),
(136,253,cs),
(136,70,o),
(105,-28,o),
(106,-28,c),
(106,-32,o),
(108,-33,o),
(117,-33,cs,{
name = hr01;
}),
(128,-33,o),
(155,-26,o),
(165,-14,c),
(180,75,o),
(195,172,o),
(204,270,c),
(215,269,o),
(226,269,o),
(237,269,cs),
(304,269,o),
(372,279,o),
(437,292,c),
(445,191,o),
(462,88,o),
(483,-19,c),
(491,-28,o),
(512,-34,o),
(522,-34,cs,{
name = hr02;
}),
(529,-34,o),
(530,-33,o),
(530,-31,cs)
);
},
{
closed = 1;
nodes = (
(341,884,l),
(307,831,o),
(265,786,o),
(192,737,c),
(192,722,o),
(216,700,o),
(225,699,c),
(268,716,o),
(313,746,o),
(346,777,c),
(358,751,o),
(373,727,o),
(394,705,c),
(457,715,l),
(467,731,l),
(422,776,o),
(391,822,o),
(365,884,c,{
name = hr00;
})
);
}
);
};
layerId = master01;
shapes = (
{
ref = H;
},
{
pos = (142,0);
ref = circumflexcomb.case;
}
);
width = 611;
}
);
unicode = 292;
},
{
glyphname = I;
lastChange = "2023-02-16 13:53:56 +0000";
layers = (
{
anchors = (
{
name = bottom;
pos = (131,0);
},
{
name = ogonek;
pos = (232,0);
},
{
name = top;
pos = (141,206);
},
{
name = topleft;
pos = (20,206);
}
);
background = {
shapes = (
{
closed = 1;
nodes = (
(172,122,o),
(191,454,o),
(196,631,c),
(106,677,l),
(80,659,l),
(100,532,o),
(109,369,o),
(109,235,cs),
(109,153,o),
(104,66,o),
(90,-29,cs),
(90,-31,o),
(91,-33,o),
(98,-33,cs),
(109,-33,o),
(136,-26,o),
(144,-17,c,{
name = hr00;
})
);
}
);
};
layerId = master01;
shapes = (
{
closed = 1;
nodes = (
(109,-33,o),
(136,-26,o),
(144,-17,c,{
name = hr00;
}),
(172,122,o),
(191,454,o),
(196,631,c),
(106,677,l),
(80,659,l),
(100,532,o),
(109,369,o),
(109,235,cs),
(109,153,o),
(104,66,o),
(90,-29,cs),
(90,-31,o),
(91,-33,o),
(98,-33,cs)
);
}
);
width = 261;
}
);
unicode = 73;
},
{
glyphname = IJ;
lastChange = "2023-02-16 13:47:57 +0000";
layers = (
{
background = {
shapes = (
{
closed = 1;
nodes = (
(172,122,o),
(191,454,o),
(196,631,c),
(106,677,l),
(80,659,l),
(100,532,o),
(109,369,o),
(109,235,cs),
(109,153,o),
(104,66,o),
(90,-29,cs),
(90,-31,o),
(91,-33,o),
(98,-33,cs),
(109,-33,o),
(136,-26,o),
(144,-17,c,{
name = hr00;
})
);
},
{
closed = 1;
nodes = (
(209,-171,o),
(255,-216,o),
(309,-216,cs),
(378,-216,o),
(460,-145,o),
(495,-19,cs),
(532,115,o),
(547,411,o),
(554,573,c),
(575,582,o),
(596,594,o),
(618,607,c),
(627,615,o),
(633,636,o),
(633,645,cs),
(633,653,o),
(631,654,o),
(629,654,cs),
(592,642,o),
(533,627,o),
(474,627,cs),
(424,627,o),
(381,635,o),
(347,661,c),
(321,575,l),
(332,549,l),
(357,543,o),
(383,540,o),
(407,540,cs),
(419,540,o),
(432,540,o),
(444,542,c),
(452,451,o),
(456,317,o),
(456,257,cs),
(456,-38,o),
(394,-137,o),
(348,-137,cs),
(321,-137,o),
(299,-102,o),
(299,-52,c),
(276,-38,l),
(202,-74,l,{
name = hr00;
})
);
}
);
};
layerId = master01;
shapes = (
{
ref = I;
},
{
pos = (261,0);
ref = J;
}
);
width = 658;
}
);
unicode = 306;
},
{
glyphname = Iacute;
lastChange = "2023-02-16 13:53:47 +0000";
layers = (
{
background = {
shapes = (
{
closed = 1;
nodes = (
(172,122,o),
(191,454,o),
(196,631,c),
(106,677,l),
(80,659,l),
(100,532,o),
(109,369,o),
(109,235,cs),
(109,153,o),
(104,66,o),
(90,-29,cs),
(90,-31,o),
(91,-33,o),
(98,-33,cs),
(109,-33,o),
(136,-26,o),
(144,-17,c,{
name = hr00;
})
);
},
{
closed = 1;
nodes = (
(212,894,l),
(173,841,o),
(111,778,o),
(21,737,c),
(21,722,o),
(45,700,o),
(54,699,c),
(128,722,o),
(180,746,o),
(240,797,c),
(228,884,l,{
name = hr00;
})
);
}
);
};
layerId = master01;
shapes = (
{
ref = I;
},
{
pos = (-19,0);
ref = acutecomb.case;
}
);
width = 261;
}
);
unicode = 205;
},
{
glyphname = Ibreve;
lastChange = "2023-02-16 13:53:47 +0000";
layers = (
{
background = {
shapes = (
{
closed = 1;
nodes = (
(172,122,o),
(191,454,o),
(196,631,c),
(106,677,l),
(80,659,l),
(100,532,o),
(109,369,o),
(109,235,cs),
(109,153,o),
(104,66,o),
(90,-29,cs),
(90,-31,o),
(91,-33,o),
(98,-33,cs),
(109,-33,o),
(136,-26,o),
(144,-17,c,{
name = hr00;
})
);
},
{
closed = 1;
nodes = (
(224,769,o),
(105,758,o),
(105,840,c),
(90,850,l),
(39,823,l),
(39,755,o),
(87,725,o),
(148,725,cs),
(229,725,o),
(290,787,o),
(290,858,cs),
(276,868,l),
(224,841,l,{
name = hr00;
})
);
}
);
};
layerId = master01;
shapes = (
{
ref = I;
},
{
pos = (-36,0);
ref = brevecomb.case;
}
);
width = 261;
}
);
unicode = 300;
},
{
glyphname = Icircumflex;
lastChange = "2023-02-16 13:53:47 +0000";
layers = (
{
background = {
shapes = (
{
closed = 1;
nodes = (
(172,122,o),
(191,454,o),
(196,631,c),
(106,677,l),
(80,659,l),
(100,532,o),
(109,369,o),
(109,235,cs),
(109,153,o),
(104,66,o),
(90,-29,cs),
(90,-31,o),
(91,-33,o),
(98,-33,cs),
(109,-33,o),
(136,-26,o),
(144,-17,c,{
name = hr00;
})
);
},
{
closed = 1;
nodes = (
(142,884,l),
(108,831,o),
(66,786,o),
(-7,737,c),
(-7,722,o),
(17,700,o),
(26,699,c),
(69,716,o),
(114,746,o),
(147,777,c),
(159,751,o),
(174,727,o),
(195,705,c),
(258,715,l),
(268,731,l),
(223,776,o),
(192,822,o),
(166,884,c,{
name = hr00;
})
);
}
);
};
layerId = master01;
shapes = (
{
ref = I;
},
{
pos = (-47,0);
ref = circumflexcomb.case;
}
);
width = 261;
}
);
unicode = 206;
},
{
glyphname = Idieresis;
lastChange = "2023-02-16 13:53:47 +0000";
layers = (
{
background = {
shapes = (
{
closed = 1;
nodes = (
(172,122,o),
(191,454,o),
(196,631,c),
(106,677,l),
(80,659,l),
(100,532,o),
(109,369,o),
(109,235,cs),
(109,153,o),
(104,66,o),
(90,-29,cs),
(90,-31,o),
(91,-33,o),
(98,-33,cs),
(109,-33,o),
(136,-26,o),
(144,-17,c,{
name = hr00;
})
);
},
{
closed = 1;
nodes = (
(-8,817,o),
(21,843,o),
(77,851,c),
(98,834,o),
(106,810,o),
(106,790,cs),
(106,750,o),
(72,726,o),
(40,726,cs),
(8,726,o),
(-8,755,o),
(-8,779,cs,{
name = hr00;
})
);
},
{
closed = 1;
nodes = (
(179,817,o),
(208,843,o),
(264,851,c),
(285,834,o),
(293,810,o),
(293,790,cs),
(293,750,o),
(259,726,o),
(227,726,cs),
(195,726,o),
(179,755,o),
(179,779,cs)
);
}
);
};
layerId = master01;
shapes = (
{
ref = I;
},
{
pos = (-60,0);
ref = dieresiscomb.case;
}
);
width = 261;
}
);
unicode = 207;
},
{
glyphname = Idotaccent;
lastChange = "2023-02-16 13:53:47 +0000";
layers = (
{
background = {
shapes = (
{
closed = 1;
nodes = (
(172,122,o),
(191,454,o),
(196,631,c),
(106,677,l),
(80,659,l),
(100,532,o),
(109,369,o),
(109,235,cs),
(109,153,o),
(104,66,o),
(90,-29,cs),
(90,-31,o),
(91,-33,o),
(98,-33,cs),
(109,-33,o),
(136,-26,o),
(144,-17,c,{
name = hr00;
})
);
},
{
closed = 1;
nodes = (
(84,821,o),
(120,854,o),
(187,863,c),
(213,842,o),
(222,813,o),
(222,789,cs),
(222,741,o),
(181,712,o),
(143,712,cs),
(104,712,o),
(84,747,o),
(84,777,cs,{
name = hr00;
})
);
}
);
};
layerId = master01;
shapes = (
{
ref = I;
},
{
pos = (22,0);
ref = dotaccentcomb.case;
}
);
width = 261;
}
);
unicode = 304;
},
{
glyphname = Igrave;
lastChange = "2023-02-16 13:53:47 +0000";
layers = (
{
background = {
shapes = (
{
closed = 1;
nodes = (
(172,122,o),
(191,454,o),
(196,631,c),
(106,677,l),
(80,659,l),
(100,532,o),
(109,369,o),
(109,235,cs),
(109,153,o),
(104,66,o),
(90,-29,cs),
(90,-31,o),
(91,-33,o),
(98,-33,cs),
(109,-33,o),
(136,-26,o),
(144,-17,c,{
name = hr00;
})
);
},
{
closed = 1;
nodes = (
(49,894,l),
(88,841,o),
(150,778,o),
(240,737,c),
(240,722,o),
(216,700,o),
(207,699,c),
(133,722,o),
(81,746,o),
(21,797,c),
(33,884,l,{
name = hr00;
})
);
}
);
};
layerId = master01;
shapes = (
{
ref = I;
},
{
pos = (-19,0);
ref = gravecomb.case;
}
);
width = 261;
}
);
unicode = 204;
},
{
glyphname = Imacron;
lastChange = "2023-02-16 13:53:47 +0000";
layers = (
{
background = {
shapes = (
{
closed = 1;
nodes = (
(172,122,o),
(191,454,o),
(196,631,c),
(106,677,l),
(80,659,l),
(100,532,o),
(109,369,o),
(109,235,cs),
(109,153,o),
(104,66,o),
(90,-29,cs),
(90,-31,o),
(91,-33,o),
(98,-33,cs),
(109,-33,o),
(136,-26,o),
(144,-17,c,{
name = hr00;
})
);
},
{
closed = 1;
nodes = (
(241,864,l),
(209,843,o),
(166,825,o),
(92,825,cs),
(40,825,o),
(16,833,o),
(12,833,cs),
(9,833,o),
(7,830,o),
(7,827,cs),
(7,816,o),
(16,785,o),
(24,779,c),
(60,767,o),
(98,762,o),
(135,762,cs),
(167,762,o),
(198,766,o),
(230,773,c),
(254,845,l,{
name = hr00;
})
);
}
);
};
layerId = master01;
shapes = (
{
ref = I;
},
{
pos = (-23,0);
ref = macroncomb.case;
}
);
width = 261;
}
);
unicode = 298;
},
{
glyphname = Iogonek;
lastChange = "2023-02-16 13:53:56 +0000";
layers = (
{
background = {
shapes = (
{
closed = 1;
nodes = (
(172,122,o),
(191,454,o),
(196,631,c),
(106,677,l),
(80,659,l),
(100,532,o),
(109,369,o),
(109,235,cs),
(109,153,o),
(104,66,o),
(90,-29,cs),
(90,-31,o),
(91,-33,o),
(98,-33,cs),
(109,-33,o),
(136,-26,o),
(144,-17,c,{
name = hr00;
})
);
},
{
closed = 1;
nodes = (
(49,-30,o),
(16,-89,o),
(16,-131,cs),
(16,-184,o),
(46,-225,o),
(106,-225,cs),
(154,-225,o),
(206,-178,o),
(232,-114,c),
(228,-107,o),
(215,-100,o),
(206,-100,c),
(183,-141,o),
(156,-166,o),
(128,-166,cs),
(95,-166,o),
(78,-142,o),
(78,-109,cs),
(78,-75,o),
(96,-33,o),
(135,0,c),
(94,0,l,{
name = hr00;
})
);
}
);
};
layerId = master01;
shapes = (
{
ref = I;
},
{
pos = (-80,0);
ref = ogonekcomb;
}
);
width = 261;
}
);
unicode = 302;
},
{
glyphname = Itilde;
lastChange = "2023-02-16 13:53:47 +0000";
layers = (
{
background = {
shapes = (
{
closed = 1;
nodes = (
(172,122,o),
(191,454,o),
(196,631,c),
(106,677,l),
(80,659,l),
(100,532,o),
(109,369,o),
(109,235,cs),
(109,153,o),
(104,66,o),
(90,-29,cs),
(90,-31,o),
(91,-33,o),
(98,-33,cs),
(109,-33,o),
(136,-26,o),
(144,-17,c,{
name = hr00;
})
);
},
{
closed = 1;
nodes = (
(41,745,o),
(60,752,o),
(77,752,cs),
(103,752,o),
(126,735,o),
(170,735,cs,{
name = hr01;
}),
(212,735,o),
(251,764,o),
(279,829,c),
(279,837,o),
(268,850,o),
(253,850,c),
(234,822,o),
(210,806,o),
(179,806,cs),
(136,806,o),
(119,835,o),
(67,835,cs,{
name = hr02;
}),
(36,835,o),
(-2,813,o),
(-18,783,c),
(0,731,l),
(14,723,l)
);
}
);
};
layerId = master01;
shapes = (
{
ref = I;
},
{
pos = (-70,0);
ref = tildecomb.case;
}
);
width = 261;
}
);
unicode = 296;
},
{
glyphname = J;
lastChange = "2023-02-16 13:54:03 +0000";
layers = (
{
anchors = (
{
name = bottom;
pos = (199,0);
},
{
name = top;
pos = (228,206);
}
);
background = {
shapes = (
{
closed = 1;
nodes = (
(-52,-171,o),
(-6,-216,o),
(48,-216,cs),
(117,-216,o),
(199,-145,o),
(234,-19,cs),
(271,115,o),
(286,411,o),
(293,573,c),
(314,582,o),
(335,594,o),
(357,607,c),
(366,615,o),
(372,636,o),
(372,645,cs),
(372,653,o),
(370,654,o),
(368,654,cs),
(331,642,o),
(272,627,o),
(213,627,cs),
(163,627,o),
(120,635,o),
(86,661,c),
(60,575,l),
(71,549,l),
(96,543,o),
(122,540,o),
(146,540,cs),
(158,540,o),
(171,540,o),
(183,542,c),
(191,451,o),
(195,317,o),
(195,257,cs),
(195,-38,o),
(133,-137,o),
(87,-137,cs),
(60,-137,o),
(38,-102,o),
(38,-52,c),
(15,-38,l),
(-59,-74,l,{
name = hr00;
})
);
}
);
};
layerId = master01;
shapes = (
{
closed = 1;
nodes = (
(117,-216,o),
(199,-145,o),
(234,-19,cs),
(271,115,o),
(286,411,o),
(293,573,c),
(314,582,o),
(335,594,o),
(357,607,c),
(366,615,o),
(372,636,o),
(372,645,cs),
(372,653,o),
(370,654,o),
(368,654,cs),
(331,642,o),
(272,627,o),
(213,627,cs),
(163,627,o),
(120,635,o),
(86,661,c),
(60,575,l),
(71,549,l),
(96,543,o),
(122,540,o),
(146,540,cs),
(158,540,o),
(171,540,o),
(183,542,c),
(191,451,o),
(195,317,o),
(195,257,cs),
(195,-38,o),
(133,-137,o),
(87,-137,cs),
(60,-137,o),
(38,-102,o),
(38,-52,c),
(15,-38,l),
(-59,-74,l,{
name = hr00;
}),
(-52,-171,o),
(-6,-216,o),
(48,-216,cs)
);
}
);
width = 397;
}
);
unicode = 74;
},
{
glyphname = Jcircumflex;
lastChange = "2023-02-16 13:54:03 +0000";
layers = (
{
background = {
shapes = (
{
closed = 1;
nodes = (
(-52,-171,o),
(-6,-216,o),
(48,-216,cs),
(117,-216,o),
(199,-145,o),
(234,-19,cs),
(271,115,o),
(286,411,o),
(293,573,c),
(314,582,o),
(335,594,o),
(357,607,c),
(366,615,o),
(372,636,o),
(372,645,cs),
(372,653,o),
(370,654,o),
(368,654,cs),
(331,642,o),
(272,627,o),
(213,627,cs),
(163,627,o),
(120,635,o),
(86,661,c),
(60,575,l),
(71,549,l),
(96,543,o),
(122,540,o),
(146,540,cs),
(158,540,o),
(171,540,o),
(183,542,c),
(191,451,o),
(195,317,o),
(195,257,cs),
(195,-38,o),
(133,-137,o),
(87,-137,cs),
(60,-137,o),
(38,-102,o),
(38,-52,c),
(15,-38,l),
(-59,-74,l,{
name = hr00;
})
);
},
{
closed = 1;
nodes = (
(238,884,l),
(204,831,o),
(162,786,o),
(89,737,c),
(89,722,o),
(113,700,o),
(122,699,c),
(165,716,o),
(210,746,o),
(243,777,c),
(255,751,o),
(270,727,o),
(291,705,c),
(354,715,l),
(364,731,l),
(319,776,o),
(288,822,o),
(262,884,c,{
name = hr00;
})
);
}
);
};
layerId = master01;
shapes = (
{
ref = J;
},
{
pos = (40,0);
ref = circumflexcomb.case;
}
);
width = 397;
}
);
unicode = 308;
},
{
glyphname = K;
lastChange = "2023-02-16 14:04:18 +0000";
layers = (
{
anchors = (
{
name = bottom;
pos = (260,0);
},
{
name = top;
pos = (246,206);
}
);
background = {
shapes = (
{
closed = 1;
nodes = (
(150,42,o),
(159,124,o),
(167,214,c),
(184,240,o),
(202,265,o),
(219,289,c),
(288,167,o),
(373,30,o),
(435,-30,c),
(439,-31,o),
(443,-31,o),
(447,-31,cs),
(463,-31,o),
(480,-26,o),
(480,-19,c),
(414,68,o),
(311,268,o),
(278,369,c),
(341,454,o),
(409,539,o),
(491,640,c),
(462,663,l),
(375,643,l),
(302,539,o),
(236,422,o),
(174,309,c),
(183,426,o),
(188,546,o),
(191,631,c,{
name = hr01;
}),
(101,677,l),
(75,659,l),
(95,532,o),
(104,369,o),
(104,235,cs),
(104,153,o),
(99,71,o),
(85,-24,cs),
(85,-26,o),
(86,-28,o),
(93,-28,cs),
(104,-28,o),
(131,-21,o),
(139,-12,c)
);
}
);
};
layerId = master01;
shapes = (
{
closed = 1;
nodes = (
(463,-31,o),
(480,-26,o),
(480,-19,c),
(414,68,o),
(311,268,o),
(278,369,c),
(341,454,o),
(409,539,o),
(491,640,c),
(462,663,l),
(375,643,l),
(302,539,o),
(236,422,o),
(174,309,c),
(183,426,o),
(188,546,o),
(191,631,c,{
name = hr01;
}),
(101,677,l),
(75,659,l),
(95,532,o),
(104,369,o),
(104,235,cs),
(104,153,o),
(99,71,o),
(85,-24,cs),
(85,-26,o),
(86,-28,o),
(93,-28,cs),
(104,-28,o),
(131,-21,o),
(139,-12,c),
(150,42,o),
(159,124,o),
(167,214,c),
(184,240,o),
(202,265,o),
(219,289,c),
(288,167,o),
(373,30,o),
(435,-30,c),
(439,-31,o),
(443,-31,o),
(447,-31,cs)
);
}
);
width = 491;
}
);
unicode = 75;
},
{
glyphname = Kcommaaccent;
lastChange = "2023-02-16 14:04:18 +0000";
layers = (
{
background = {
shapes = (
{
closed = 1;
nodes = (
(150,42,o),
(159,124,o),
(167,214,c),
(184,240,o),
(202,265,o),
(219,289,c),
(288,167,o),
(373,30,o),
(435,-30,c),
(439,-31,o),
(443,-31,o),
(447,-31,cs),
(463,-31,o),
(480,-26,o),
(480,-19,c),
(414,68,o),
(311,268,o),
(278,369,c),
(341,454,o),
(409,539,o),
(491,640,c),
(462,663,l),
(375,643,l),
(302,539,o),
(236,422,o),
(174,309,c),
(183,426,o),
(188,546,o),
(191,631,c,{
name = hr01;
}),
(101,677,l),
(75,659,l),
(95,532,o),
(104,369,o),
(104,235,cs),
(104,153,o),
(99,71,o),
(85,-24,cs),
(85,-26,o),
(86,-28,o),
(93,-28,cs),
(104,-28,o),
(131,-21,o),
(139,-12,c)
);
},
{
closed = 1;
nodes = (
(317,-108,o),
(292,-78,o),
(255,-78,cs),
(218,-78,o),
(182,-104,o),
(182,-151,c),
(225,-213,l),
(222,-253,o),
(202,-289,o),
(149,-314,c),
(149,-324,o),
(159,-345,o),
(165,-345,cs),
(178,-345,o),
(317,-289,o),
(317,-154,cs,{
name = hr00;
})
);
}
);
};
layerId = master01;
shapes = (
{
ref = K;
},
{
pos = (139,0);
ref = commaaccent;
}
);
width = 491;
}
);
unicode = 310;
},
{
glyphname = L;
lastChange = "2023-02-16 14:04:27 +0000";
layers = (
{
anchors = (
{
name = bottom;
pos = (243,0);
},
{
name = center;
pos = (211,103);
},
{
name = top;
pos = (131,206);
},
{
name = topright;
pos = (311,211);
}
);
background = {
shapes = (
{
closed = 1;
nodes = (
(190,-14,o),
(243,-19,o),
(298,-19,cs),
(332,-19,o),
(367,-18,o),
(404,-14,c),
(437,72,l),
(420,98,l),
(343,57,o),
(260,46,o),
(178,46,cs),
(167,46,o),
(156,47,o),
(145,47,c),
(171,205,o),
(190,476,o),
(197,631,c),
(108,677,l),
(82,659,l),
(97,552,o),
(104,421,o),
(104,302,cs),
(104,195,o),
(100,97,o),
(80,-24,cs),
(80,-26,o),
(81,-28,o),
(88,-28,cs,{
name = hr01;
}),
(99,-28,o),
(126,-21,o),
(134,-12,c),
(137,0,l)
);
}
);
};
layerId = master01;
shapes = (
{
closed = 1;
nodes = (
(99,-28,o),
(126,-21,o),
(134,-12,c),
(137,0,l),
(190,-14,o),
(243,-19,o),
(298,-19,cs),
(332,-19,o),
(367,-18,o),
(404,-14,c),
(437,72,l),
(420,98,l),
(343,57,o),
(260,46,o),
(178,46,cs),
(167,46,o),
(156,47,o),
(145,47,c),
(171,205,o),
(190,476,o),
(197,631,c),
(108,677,l),
(82,659,l),
(97,552,o),
(104,421,o),
(104,302,cs),
(104,195,o),
(100,97,o),
(80,-24,cs),
(80,-26,o),
(81,-28,o),
(88,-28,cs,{
name = hr01;
})
);
}
);
width = 422;
}
);
unicode = 76;
},
{
glyphname = Lacute;
lastChange = "2023-02-16 13:54:23 +0000";
layers = (
{
background = {
shapes = (
{
closed = 1;
nodes = (
(190,-14,o),
(243,-19,o),
(298,-19,cs),
(332,-19,o),
(367,-18,o),
(404,-14,c),
(437,72,l),
(420,98,l),
(343,57,o),
(260,46,o),
(178,46,cs),
(167,46,o),
(156,47,o),
(145,47,c),
(171,205,o),
(190,476,o),
(197,631,c),
(108,677,l),
(82,659,l),
(97,552,o),
(104,421,o),
(104,302,cs),
(104,195,o),
(100,97,o),
(80,-24,cs),
(80,-26,o),
(81,-28,o),
(88,-28,cs,{
name = hr01;
}),
(99,-28,o),
(126,-21,o),
(134,-12,c),
(137,0,l)
);
},
{
closed = 1;
nodes = (
(211,894,l),
(172,841,o),
(110,778,o),
(20,737,c),
(20,722,o),
(44,700,o),
(53,699,c),
(127,722,o),
(179,746,o),
(239,797,c),
(227,884,l,{
name = hr00;
})
);
}
);
};
layerId = master01;
shapes = (
{
ref = L;
},
{
pos = (-29,0);
ref = acutecomb.case;
}
);
width = 422;
}
);
unicode = 313;
},
{
glyphname = Lcaron;
lastChange = "2023-02-16 13:57:53 +0000";
layers = (
{
background = {
shapes = (
{
closed = 1;
nodes = (
(190,-14,o),
(243,-19,o),
(298,-19,cs),
(332,-19,o),
(367,-18,o),
(404,-14,c),
(437,72,l),
(420,98,l),
(343,57,o),
(260,46,o),
(178,46,cs),
(167,46,o),
(156,47,o),
(145,47,c),
(171,205,o),
(190,476,o),
(197,631,c),
(108,677,l),
(82,659,l),
(97,552,o),
(104,421,o),
(104,302,cs),
(104,195,o),
(100,97,o),
(80,-24,cs),
(80,-26,o),
(81,-28,o),
(88,-28,cs,{
name = hr01;
}),
(99,-28,o),
(126,-21,o),
(134,-12,c),
(137,0,l)
);
},
{
closed = 1;
nodes = (
(402,695,o),
(377,725,o),
(340,725,cs),
(303,725,o),
(267,699,o),
(267,652,c),
(310,590,l),
(307,550,o),
(287,514,o),
(234,489,c),
(234,479,o),
(244,458,o),
(250,458,cs),
(263,458,o),
(402,514,o),
(402,649,cs,{
name = hr00;
})
);
}
);
};
layerId = master01;
shapes = (
{
ref = L;
},
{
pos = (201,1);
ref = caroncomb.alt;
}
);
width = 422;
}
);
unicode = 317;
},
{
glyphname = Lcommaaccent;
lastChange = "2023-02-16 14:04:27 +0000";
layers = (
{
background = {
shapes = (
{
closed = 1;
nodes = (
(190,-14,o),
(243,-19,o),
(298,-19,cs),
(332,-19,o),
(367,-18,o),
(404,-14,c),
(437,72,l),
(420,98,l),
(343,57,o),
(260,46,o),
(178,46,cs),
(167,46,o),
(156,47,o),
(145,47,c),
(171,205,o),
(190,476,o),
(197,631,c),
(108,677,l),
(82,659,l),
(97,552,o),
(104,421,o),
(104,302,cs),
(104,195,o),
(100,97,o),
(80,-24,cs),
(80,-26,o),
(81,-28,o),
(88,-28,cs,{
name = hr01;
}),
(99,-28,o),
(126,-21,o),
(134,-12,c),
(137,0,l)
);
},
{
closed = 1;
nodes = (
(300,-108,o),
(275,-78,o),
(238,-78,cs),
(201,-78,o),
(165,-104,o),
(165,-151,c),
(208,-213,l),
(205,-253,o),
(185,-289,o),
(132,-314,c),
(132,-324,o),
(142,-345,o),
(148,-345,cs),
(161,-345,o),
(300,-289,o),
(300,-154,cs,{
name = hr00;
})
);
}
);
};
layerId = master01;
shapes = (
{
ref = L;
},
{
pos = (122,0);
ref = commaaccent;
}
);
width = 422;
}
);
unicode = 315;
},
{
glyphname = Ldot;
lastChange = "2023-02-16 13:59:57 +0000";
layers = (
{
background = {
shapes = (
{
closed = 1;
nodes = (
(190,-14,o),
(243,-19,o),
(298,-19,cs),
(332,-19,o),
(367,-18,o),
(404,-14,c),
(437,72,l),
(420,98,l),
(343,57,o),
(260,46,o),
(178,46,cs),
(167,46,o),
(156,47,o),
(145,47,c),
(171,205,o),
(190,476,o),
(197,631,c),
(108,677,l),
(82,659,l),
(97,552,o),
(104,421,o),
(104,302,cs),
(104,195,o),
(100,97,o),
(80,-24,cs),
(80,-26,o),
(81,-28,o),
(88,-28,cs,{
name = hr01;
}),
(99,-28,o),
(126,-21,o),
(134,-12,c),
(137,0,l)
);
},
{
closed = 1;
nodes = (
(261,367,o),
(288,391,o),
(338,398,c),
(358,383,o),
(364,362,o),
(364,344,cs),
(364,307,o),
(334,287,o),
(305,287,cs),
(277,287,o),
(261,311,o),
(261,335,cs,{
name = hr00;
})
);
}
);
};
layerId = master01;
shapes = (
{
closed = 1;
nodes = (
(334,283,o),
(365,304,o),
(365,342,cs),
(365,361,o),
(359,383,o),
(338,399,c),
(286,392,o),
(258,366,o),
(258,333,cs,{
name = hr00;
}),
(258,308,o),
(275,283,o),
(304,283,cs)
);
},
{
ref = L;
}
);
width = 422;
}
);
unicode = 319;
},
{
glyphname = Lslash;
lastChange = "2023-02-16 13:46:41 +0000";
layers = (
{
background = {
shapes = (
{
closed = 1;
nodes = (
(134,-10,o),
(135,-7,o),
(135,-5,c),
(221,-20,o),
(306,-23,o),
(404,-14,c),
(437,72,l),
(420,98,l),
(333,52,o),
(238,44,o),
(145,47,c),
(157,120,o),
(167,216,o),
(176,315,c),
(209,328,o),
(242,344,o),
(281,366,c),
(281,439,l),
(263,449,l),
(244,434,o),
(224,412,o),
(182,386,c),
(189,477,o),
(194,564,o),
(197,631,c),
(108,677,l),
(82,659,l),
(95,566,o),
(102,453,o),
(103,347,c),
(75,335,o),
(41,323,o),
(0,310,c),
(0,295,o),
(11,278,o),
(21,274,c),
(51,280,o),
(78,285,o),
(103,292,c),
(103,235,ls),
(102,153,o),
(96,71,o),
(80,-24,cs),
(80,-26,o),
(81,-28,o),
(88,-28,cs),
(99,-28,o),
(126,-21,o),
(134,-12,c,{
name = hr00;
})
);
}
);
};
layerId = master01;
shapes = (
{
closed = 1;
nodes = (
(99,-28,o),
(126,-21,o),
(134,-12,c,{
name = hr00;
}),
(134,-10,o),
(135,-7,o),
(135,-5,c),
(221,-20,o),
(306,-23,o),
(404,-14,c),
(437,72,l),
(420,98,l),
(333,52,o),
(238,44,o),
(145,47,c),
(157,120,o),
(167,216,o),
(176,315,c),
(209,328,o),
(242,344,o),
(281,366,c),
(281,439,l),
(263,449,l),
(244,434,o),
(224,412,o),
(182,386,c),
(189,477,o),
(194,564,o),
(197,631,c),
(108,677,l),
(82,659,l),
(95,566,o),
(102,453,o),
(103,347,c),
(75,335,o),
(41,323,o),
(0,310,c),
(0,295,o),
(11,278,o),
(21,274,c),
(51,280,o),
(78,285,o),
(103,292,c),
(103,235,ls),
(102,153,o),
(96,71,o),
(80,-24,cs),
(80,-26,o),
(81,-28,o),
(88,-28,cs)
);
}
);
width = 422;
}
);
unicode = 321;
},
{
glyphname = M;
lastChange = "2023-02-16 13:47:52 +0000";
layers = (
{
anchors = (
{
name = bottom;
pos = (381,0);
},
{
name = top;
pos = (381,206);
}
);
background = {
shapes = (
{
closed = 1;
nodes = (
(672,34,o),
(665,150,o),
(665,273,cs),
(665,417,o),
(675,544,o),
(711,636,c),
(626,677,l),
(600,661,l),
(600,660,o),
(599,659,o),
(599,658,cs),
(509,482,o),
(438,335,o),
(381,182,c),
(331,347,o),
(275,507,o),
(207,661,c),
(181,677,l),
(78,636,l),
(78,636,o),
(106,479,o),
(106,297,cs),
(106,86,o),
(74,-24,o),
(76,-24,c),
(76,-27,o),
(77,-28,o),
(87,-28,cs,{
name = hr01;
}),
(97,-28,o),
(124,-21,o),
(136,-9,c),
(163,96,o),
(192,350,o),
(203,535,c),
(252,378,o),
(299,196,o),
(320,6,c),
(415,-35,l,{
name = hr02;
}),
(437,-19,l),
(425,26,l),
(457,196,o),
(502,338,o),
(584,529,c),
(582,497,o),
(581,464,o),
(581,432,cs),
(581,286,o),
(602,138,o),
(633,-19,c),
(641,-28,o),
(662,-34,o),
(672,-34,cs,{
name = hr03;
}),
(679,-34,o),
(680,-33,o),
(680,-31,cs)
);
}
);
};
layerId = master01;
shapes = (
{
closed = 1;
nodes = (
(437,-19,l),
(425,26,l),
(457,196,o),
(502,338,o),
(584,529,c),
(582,497,o),
(581,464,o),
(581,432,cs),
(581,286,o),
(602,138,o),
(633,-19,c),
(641,-28,o),
(662,-34,o),
(672,-34,cs,{
name = hr03;
}),
(679,-34,o),
(680,-33,o),
(680,-31,cs),
(672,34,o),
(665,150,o),
(665,273,cs),
(665,417,o),
(675,544,o),
(711,636,c),
(626,677,l),
(600,661,l),
(600,660,o),
(599,659,o),
(599,658,cs),
(509,482,o),
(438,335,o),
(381,182,c),
(331,347,o),
(275,507,o),
(207,661,c),
(181,677,l),
(78,636,l),
(78,636,o),
(106,479,o),
(106,297,cs),
(106,86,o),
(74,-24,o),
(76,-24,c),
(76,-27,o),
(77,-28,o),
(87,-28,cs,{
name = hr01;
}),
(97,-28,o),
(124,-21,o),
(136,-9,c),
(163,96,o),
(192,350,o),
(203,535,c),
(252,378,o),
(299,196,o),
(320,6,c),
(415,-35,l,{
name = hr02;
})
);
}
);
width = 761;
}
);
unicode = 77;
},
{
glyphname = N;
lastChange = "2023-02-16 14:04:38 +0000";
layers = (
{
anchors = (
{
name = bottom;
pos = (281,0);
},
{
name = top;
pos = (334,206);
}
);
background = {
shapes = (
{
closed = 1;
nodes = (
(68,636,o),
(106,479,o),
(106,297,cs),
(106,86,o),
(64,-24,o),
(66,-24,c),
(66,-27,o),
(67,-28,o),
(77,-28,cs,{
name = hr01;
}),
(87,-28,o),
(114,-21,o),
(126,-9,c),
(160,123,o),
(183,300,o),
(183,468,c),
(262,293,o),
(353,139,o),
(457,-14,cs),
(464,-25,o),
(486,-28,o),
(495,-28,cs),
(503,-28,o),
(504,-27,o),
(504,-25,cs),
(498,33,o),
(494,103,o),
(494,178,cs),
(494,339,o),
(511,520,o),
(558,636,c),
(482,677,l),
(457,661,l),
(435,547,o),
(423,436,o),
(423,325,cs),
(423,259,o),
(427,194,o),
(436,129,c),
(355,257,o),
(262,452,o),
(202,661,c),
(176,677,l),
(68,636,l)
);
}
);
};
layerId = master01;
shapes = (
{
closed = 1;
nodes = (
(87,-28,o),
(114,-21,o),
(126,-9,c),
(160,123,o),
(183,300,o),
(183,468,c),
(262,293,o),
(353,139,o),
(457,-14,cs),
(464,-25,o),
(486,-28,o),
(495,-28,cs),
(503,-28,o),
(504,-27,o),
(504,-25,cs),
(498,33,o),
(494,103,o),
(494,178,cs),
(494,339,o),
(511,520,o),
(558,636,c),
(482,677,l),
(457,661,l),
(435,547,o),
(423,436,o),
(423,325,cs),
(423,259,o),
(427,194,o),
(436,129,c),
(355,257,o),
(262,452,o),
(202,661,c),
(176,677,l),
(68,636,l),
(68,636,o),
(106,479,o),
(106,297,cs),
(106,86,o),
(64,-24,o),
(66,-24,c),
(66,-27,o),
(67,-28,o),
(77,-28,cs,{
name = hr01;
})
);
}
);
width = 588;
}
);
unicode = 78;
},
{
glyphname = Nacute;
lastChange = "2023-02-16 14:00:06 +0000";
layers = (
{
background = {
shapes = (
{
closed = 1;
nodes = (
(68,636,o),
(106,479,o),
(106,297,cs),
(106,86,o),
(64,-24,o),
(66,-24,c),
(66,-27,o),
(67,-28,o),
(77,-28,cs,{
name = hr01;
}),
(87,-28,o),
(114,-21,o),
(126,-9,c),
(160,123,o),
(183,300,o),
(183,468,c),
(262,293,o),
(353,139,o),
(457,-14,cs),
(464,-25,o),
(486,-28,o),
(495,-28,cs),
(503,-28,o),
(504,-27,o),
(504,-25,cs),
(498,33,o),
(494,103,o),
(494,178,cs),
(494,339,o),
(511,520,o),
(558,636,c),
(482,677,l),
(457,661,l),
(435,547,o),
(423,436,o),
(423,325,cs),
(423,259,o),
(427,194,o),
(436,129,c),
(355,257,o),
(262,452,o),
(202,661,c),
(176,677,l),
(68,636,l)
);
},
{
closed = 1;
nodes = (
(423,894,l),
(384,841,o),
(322,778,o),
(232,737,c),
(232,722,o),
(256,700,o),
(265,699,c),
(339,722,o),
(391,746,o),
(451,797,c),
(439,884,l,{
name = hr00;
})
);
}
);
};
layerId = master01;
shapes = (
{
ref = N;
},
{
pos = (174,0);
ref = acutecomb.case;
}
);
width = 588;
}
);
unicode = 323;
},
{
glyphname = Ncaron;
lastChange = "2023-02-16 14:00:06 +0000";
layers = (
{
background = {
shapes = (
{
closed = 1;
nodes = (
(68,636,o),
(106,479,o),
(106,297,cs),
(106,86,o),
(64,-24,o),
(66,-24,c),
(66,-27,o),
(67,-28,o),
(77,-28,cs,{
name = hr01;
}),
(87,-28,o),
(114,-21,o),
(126,-9,c),
(160,123,o),
(183,300,o),
(183,468,c),
(262,293,o),
(353,139,o),
(457,-14,cs),
(464,-25,o),
(486,-28,o),
(495,-28,cs),
(503,-28,o),
(504,-27,o),
(504,-25,cs),
(498,33,o),
(494,103,o),
(494,178,cs),
(494,339,o),
(511,520,o),
(558,636,c),
(482,677,l),
(457,661,l),
(435,547,o),
(423,436,o),
(423,325,cs),
(423,259,o),
(427,194,o),
(436,129,c),
(355,257,o),
(262,452,o),
(202,661,c),
(176,677,l),
(68,636,l)
);
},
{
closed = 1;
nodes = (
(333,709,l),
(367,762,o),
(409,807,o),
(482,856,c),
(482,871,o),
(458,893,o),
(449,894,c),
(406,876,o),
(360,846,o),
(328,816,c),
(316,842,o),
(300,866,o),
(280,888,c),
(217,878,l),
(207,862,l),
(252,817,o),
(283,771,o),
(309,709,c,{
name = hr00;
})
);
}
);
};
layerId = master01;
shapes = (
{
ref = N;
},
{
pos = (146,0);
ref = caroncomb.case;
}
);
width = 588;
}
);
unicode = 327;
},
{
glyphname = Ncommaaccent;
lastChange = "2023-02-16 14:04:38 +0000";
layers = (
{
background = {
shapes = (
{
closed = 1;
nodes = (
(68,636,o),
(106,479,o),
(106,297,cs),
(106,86,o),
(64,-24,o),
(66,-24,c),
(66,-27,o),
(67,-28,o),
(77,-28,cs,{
name = hr01;
}),
(87,-28,o),
(114,-21,o),
(126,-9,c),
(160,123,o),
(183,300,o),
(183,468,c),
(262,293,o),
(353,139,o),
(457,-14,cs),
(464,-25,o),
(486,-28,o),
(495,-28,cs),
(503,-28,o),
(504,-27,o),
(504,-25,cs),
(498,33,o),
(494,103,o),
(494,178,cs),
(494,339,o),
(511,520,o),
(558,636,c),
(482,677,l),
(457,661,l),
(435,547,o),
(423,436,o),
(423,325,cs),
(423,259,o),
(427,194,o),
(436,129,c),
(355,257,o),
(262,452,o),
(202,661,c),
(176,677,l),
(68,636,l)
);
},
{
closed = 1;
nodes = (
(347,-108,o),
(322,-78,o),
(285,-78,cs),
(248,-78,o),
(212,-104,o),
(212,-151,c),
(255,-213,l),
(252,-253,o),
(232,-289,o),
(179,-314,c),
(179,-324,o),
(189,-345,o),
(195,-345,cs),
(208,-345,o),
(347,-289,o),
(347,-154,cs,{
name = hr00;
})
);
}
);
};
layerId = master01;
shapes = (
{
ref = N;
},
{
pos = (169,0);
ref = commaaccentcomb;
}
);
width = 588;
}
);
unicode = 325;
},
{
glyphname = Ntilde;
lastChange = "2023-02-16 14:00:06 +0000";
layers = (
{
background = {
shapes = (
{
closed = 1;
nodes = (
(68,636,o),
(106,479,o),
(106,297,cs),
(106,86,o),
(64,-24,o),
(66,-24,c),
(66,-27,o),
(67,-28,o),
(77,-28,cs,{
name = hr01;
}),
(87,-28,o),
(114,-21,o),
(126,-9,c),
(160,123,o),
(183,300,o),
(183,468,c),
(262,293,o),
(353,139,o),
(457,-14,cs),
(464,-25,o),
(486,-28,o),
(495,-28,cs),
(503,-28,o),
(504,-27,o),
(504,-25,cs),
(498,33,o),
(494,103,o),
(494,178,cs),
(494,339,o),
(511,520,o),
(558,636,c),
(482,677,l),
(457,661,l),
(435,547,o),
(423,436,o),
(423,325,cs),
(423,259,o),
(427,194,o),
(436,129,c),
(355,257,o),
(262,452,o),
(202,661,c),
(176,677,l),
(68,636,l)
);
},
{
closed = 1;
nodes = (
(240,745,o),
(259,752,o),
(276,752,cs),
(302,752,o),
(325,735,o),
(369,735,cs,{
name = hr01;
}),
(411,735,o),
(450,764,o),
(478,829,c),
(478,837,o),
(467,850,o),
(452,850,c),
(433,822,o),
(409,806,o),
(378,806,cs),
(335,806,o),
(318,835,o),
(266,835,cs,{
name = hr02;
}),
(235,835,o),
(197,813,o),
(181,783,c),
(199,731,l),
(213,723,l)
);
}
);
};
layerId = master01;
shapes = (
{
ref = N;
},
{
pos = (123,0);
ref = tildecomb.case;
}
);
width = 588;
}
);
unicode = 209;
},
{
glyphname = Eng;
lastChange = "2023-02-16 13:47:52 +0000";
layers = (
{
anchors = (
{
name = bottom;
pos = (294,0);
},
{
name = top;
pos = (294,206);
}
);
background = {
shapes = (
{
closed = 1;
nodes = (
(68,636,o),
(106,479,o),
(106,297,cs),
(106,86,o),
(64,-24,o),
(66,-24,c),
(66,-27,o),
(67,-28,o),
(77,-28,cs,{
name = hr01;
}),
(87,-28,o),
(114,-21,o),
(126,-9,c),
(160,123,o),
(183,300,o),
(183,468,c),
(260,298,o),
(348,148,o),
(448,0,c),
(452,-18,o),
(453,-35,o),
(453,-51,cs),
(453,-123,o),
(422,-174,o),
(351,-174,cs),
(333,-174,o),
(312,-170,o),
(289,-163,c),
(266,-260,l),
(291,-278,l),
(476,-256,o),
(504,-143,o),
(504,-33,cs),
(504,37,o),
(494,111,o),
(494,178,cs),
(494,339,o),
(511,520,o),
(558,636,c),
(482,677,l),
(457,661,l),
(435,547,o),
(423,436,o),
(423,325,cs,{
name = hr02;
}),
(423,259,o),
(427,194,o),
(436,129,c),
(355,257,o),
(262,452,o),
(202,661,c),
(176,677,l),
(68,636,l)
);
}
);
};
layerId = master01;
shapes = (
{
closed = 1;
nodes = (
(476,-256,o),
(504,-143,o),
(504,-33,cs),
(504,37,o),
(494,111,o),
(494,178,cs),
(494,339,o),
(511,520,o),
(558,636,c),
(482,677,l),
(457,661,l),
(435,547,o),
(423,436,o),
(423,325,cs,{
name = hr02;
}),
(423,259,o),
(427,194,o),
(436,129,c),
(355,257,o),
(262,452,o),
(202,661,c),
(176,677,l),
(68,636,l),
(68,636,o),
(106,479,o),
(106,297,cs),
(106,86,o),
(64,-24,o),
(66,-24,c),
(66,-27,o),
(67,-28,o),
(77,-28,cs,{
name = hr01;
}),
(87,-28,o),
(114,-21,o),
(126,-9,c),
(160,123,o),
(183,300,o),
(183,468,c),
(260,298,o),
(348,148,o),
(448,0,c),
(452,-18,o),
(453,-35,o),
(453,-51,cs),
(453,-123,o),
(422,-174,o),
(351,-174,cs),
(333,-174,o),
(312,-170,o),
(289,-163,c),
(266,-260,l),
(291,-278,l)
);
}
);
width = 587;
}
);
unicode = 330;
},
{
glyphname = O;
lastChange = "2023-02-16 14:04:51 +0000";
layers = (
{
anchors = (
{
name = bottom;
pos = (291,0);
},
{
name = center;
pos = (291,103);
},
{
name = ogonek;
pos = (523,10);
},
{
name = top;
pos = (345,206);
},
{
name = topleft;
pos = (20,206);
},
{
name = topright;
pos = (561,206);
}
);
background = {
shapes = (
{
closed = 1;
nodes = (
(128,642,o),
(30,431,o),
(30,263,cs),
(30,71,o),
(142,-34,o),
(274,-34,cs),
(477,-34,o),
(551,140,o),
(551,301,cs),
(551,423,o),
(500,538,o),
(436,593,c),
(465,651,l),
(448,676,l,{
name = hr00;
})
);
},
{
closed = 1;
nodes = (
(208,49,o),
(126,138,o),
(126,291,cs),
(126,447,o),
(202,558,o),
(377,583,c),
(451,509,o),
(487,373,o),
(487,281,cs),
(487,156,o),
(425,53,o),
(299,49,c)
);
}
);
};
layerId = master01;
shapes = (
{
closed = 1;
nodes = (
(477,-34,o),
(551,140,o),
(551,301,cs),
(551,423,o),
(500,538,o),
(436,593,c),
(465,651,l),
(448,676,l,{
name = hr00;
}),
(128,642,o),
(30,431,o),
(30,263,cs),
(30,71,o),
(142,-34,o),
(274,-34,cs)
);
},
{
closed = 1;
nodes = (
(208,49,o),
(126,138,o),
(126,291,cs),
(126,447,o),
(202,558,o),
(377,583,c),
(451,509,o),
(487,373,o),
(487,281,cs),
(487,156,o),
(425,53,o),
(299,49,c)
);
}
);
width = 581;
}
);
unicode = 79;
},
{
glyphname = Oacute;
lastChange = "2023-02-16 14:04:51 +0000";
layers = (
{
background = {
shapes = (
{
closed = 1;
nodes = (
(128,642,o),
(30,431,o),
(30,263,cs),
(30,71,o),
(142,-34,o),
(274,-34,cs),
(477,-34,o),
(551,140,o),
(551,301,cs),
(551,423,o),
(500,538,o),
(436,593,c),
(465,651,l),
(448,676,l,{
name = hr00;
})
);
},
{
closed = 1;
nodes = (
(208,49,o),
(126,138,o),
(126,291,cs),
(126,447,o),
(202,558,o),
(377,583,c),
(451,509,o),
(487,373,o),
(487,281,cs),
(487,156,o),
(425,53,o),
(299,49,c)
);
},
{
closed = 1;
nodes = (
(423,894,l),
(384,841,o),
(322,778,o),
(232,737,c),
(232,722,o),
(256,700,o),
(265,699,c),
(339,722,o),
(391,746,o),
(451,797,c),
(439,884,l,{
name = hr00;
})
);
}
);
};
layerId = master01;
shapes = (
{
ref = O;
},
{
pos = (185,0);
ref = acutecomb.case;
}
);
width = 581;
}
);
unicode = 211;
},
{
glyphname = Obreve;
lastChange = "2023-02-16 14:04:51 +0000";
layers = (
{
background = {
shapes = (
{
closed = 1;
nodes = (
(128,642,o),
(30,431,o),
(30,263,cs),
(30,71,o),
(142,-34,o),
(274,-34,cs),
(477,-34,o),
(551,140,o),
(551,301,cs),
(551,423,o),
(500,538,o),
(436,593,c),
(465,651,l),
(448,676,l,{
name = hr00;
})
);
},
{
closed = 1;
nodes = (
(208,49,o),
(126,138,o),
(126,291,cs),
(126,447,o),
(202,558,o),
(377,583,c),
(451,509,o),
(487,373,o),
(487,281,cs),
(487,156,o),
(425,53,o),
(299,49,c)
);
},
{
closed = 1;
nodes = (
(400,769,o),
(281,758,o),
(281,840,c),
(266,850,l),
(215,823,l),
(215,755,o),
(263,725,o),
(324,725,cs),
(405,725,o),
(466,787,o),
(466,858,cs),
(452,868,l),
(400,841,l,{
name = hr00;
})
);
}
);
};
layerId = master01;
shapes = (
{
ref = O;
},
{
pos = (168,0);
ref = brevecomb.case;
}
);
width = 581;
}
);
unicode = 334;
},
{
glyphname = Ocircumflex;
lastChange = "2023-02-16 14:04:51 +0000";
layers = (
{
background = {
shapes = (
{
closed = 1;
nodes = (
(128,642,o),
(30,431,o),
(30,263,cs),
(30,71,o),
(142,-34,o),
(274,-34,cs),
(477,-34,o),
(551,140,o),
(551,301,cs),
(551,423,o),
(500,538,o),
(436,593,c),
(465,651,l),
(448,676,l,{
name = hr00;
})
);
},
{
closed = 1;
nodes = (
(208,49,o),
(126,138,o),
(126,291,cs),
(126,447,o),
(202,558,o),
(377,583,c),
(451,509,o),
(487,373,o),
(487,281,cs),
(487,156,o),
(425,53,o),
(299,49,c)
);
},
{
closed = 1;
nodes = (
(351,884,l),
(317,831,o),
(275,786,o),
(202,737,c),
(202,722,o),
(226,700,o),
(235,699,c),
(278,716,o),
(323,746,o),
(356,777,c),
(368,751,o),
(383,727,o),
(404,705,c),
(467,715,l),
(477,731,l),
(432,776,o),
(401,822,o),
(375,884,c,{
name = hr00;
})
);
}
);
};
layerId = master01;
shapes = (
{
ref = O;
},
{
pos = (157,0);
ref = circumflexcomb.case;
}
);
width = 581;
}
);
unicode = 212;
},
{
glyphname = Odieresis;
lastChange = "2023-02-16 14:04:51 +0000";
layers = (
{
background = {
shapes = (
{
closed = 1;
nodes = (
(128,642,o),
(30,431,o),
(30,263,cs),
(30,71,o),
(142,-34,o),
(274,-34,cs),
(477,-34,o),
(551,140,o),
(551,301,cs),
(551,423,o),
(500,538,o),
(436,593,c),
(465,651,l),
(448,676,l,{
name = hr00;
})
);
},
{
closed = 1;
nodes = (
(208,49,o),
(126,138,o),
(126,291,cs),
(126,447,o),
(202,558,o),
(377,583,c),
(451,509,o),
(487,373,o),
(487,281,cs),
(487,156,o),
(425,53,o),
(299,49,c)
);
},
{
closed = 1;
nodes = (
(204,817,o),
(233,843,o),
(289,851,c),
(310,834,o),
(318,810,o),
(318,790,cs),
(318,750,o),
(284,726,o),
(252,726,cs),
(220,726,o),
(204,755,o),
(204,779,cs,{
name = hr00;
})
);
},
{
closed = 1;
nodes = (
(391,817,o),
(420,843,o),
(476,851,c),
(497,834,o),
(505,810,o),
(505,790,cs),
(505,750,o),
(471,726,o),
(439,726,cs),
(407,726,o),
(391,755,o),
(391,779,cs)
);
}
);
};
layerId = master01;
shapes = (
{
ref = O;
},
{
pos = (144,0);
ref = dieresiscomb.case;
}
);
width = 581;
}
);
unicode = 214;
},
{
glyphname = Ograve;
lastChange = "2023-02-16 14:04:51 +0000";
layers = (
{
background = {
shapes = (
{
closed = 1;
nodes = (
(128,642,o),
(30,431,o),
(30,263,cs),
(30,71,o),
(142,-34,o),
(274,-34,cs),
(477,-34,o),
(551,140,o),
(551,301,cs),
(551,423,o),
(500,538,o),
(436,593,c),
(465,651,l),
(448,676,l,{
name = hr00;
})
);
},
{
closed = 1;
nodes = (
(208,49,o),
(126,138,o),
(126,291,cs),
(126,447,o),
(202,558,o),
(377,583,c),
(451,509,o),
(487,373,o),
(487,281,cs),
(487,156,o),
(425,53,o),
(299,49,c)
);
},
{
closed = 1;
nodes = (
(256,894,l),
(295,841,o),
(357,778,o),
(447,737,c),
(447,722,o),
(423,700,o),
(414,699,c),
(340,722,o),
(288,746,o),
(228,797,c),
(240,884,l,{
name = hr00;
})
);
}
);
};
layerId = master01;
shapes = (
{
ref = O;
},
{
pos = (185,0);
ref = gravecomb.case;
}
);
width = 581;
}
);
unicode = 210;
},
{
glyphname = Ohungarumlaut;
lastChange = "2023-02-16 14:04:51 +0000";
layers = (
{
background = {
shapes = (
{
closed = 1;
nodes = (
(128,642,o),
(30,431,o),
(30,263,cs),
(30,71,o),
(142,-34,o),
(274,-34,cs),
(477,-34,o),
(551,140,o),
(551,301,cs),
(551,423,o),
(500,538,o),
(436,593,c),
(465,651,l),
(448,676,l,{
name = hr00;
})
);
},
{
closed = 1;
nodes = (
(208,49,o),
(126,138,o),
(126,291,cs),
(126,447,o),
(202,558,o),
(377,583,c),
(451,509,o),
(487,373,o),
(487,281,cs),
(487,156,o),
(425,53,o),
(299,49,c)
);
},
{
closed = 1;
nodes = (
(349,908,l),
(320,853,o),
(266,793,o),
(211,749,c),
(212,734,o),
(235,714,o),
(243,714,c),
(306,743,o),
(340,770,o),
(389,825,c),
(364,900,l,{
name = hr00;
})
);
},
{
closed = 1;
nodes = (
(507,908,l),
(478,853,o),
(424,793,o),
(369,749,c),
(370,734,o),
(393,714,o),
(401,714,c),
(464,743,o),
(498,770,o),
(547,825,c),
(522,900,l)
);
}
);
};
layerId = master01;
shapes = (
{
ref = O;
},
{
pos = (157,0);
ref = hungarumlautcomb.case;
}
);
width = 581;
}
);
unicode = 336;
},
{
glyphname = Omacron;
lastChange = "2023-02-16 14:04:51 +0000";
layers = (
{
background = {
shapes = (
{
closed = 1;
nodes = (
(128,642,o),
(30,431,o),
(30,263,cs),
(30,71,o),
(142,-34,o),
(274,-34,cs),
(477,-34,o),
(551,140,o),
(551,301,cs),
(551,423,o),
(500,538,o),
(436,593,c),
(465,651,l),
(448,676,l,{
name = hr00;
})
);
},
{
closed = 1;
nodes = (
(208,49,o),
(126,138,o),
(126,291,cs),
(126,447,o),
(202,558,o),
(377,583,c),
(451,509,o),
(487,373,o),
(487,281,cs),
(487,156,o),
(425,53,o),
(299,49,c)
);
},
{
closed = 1;
nodes = (
(454,844,l),
(422,823,o),
(379,805,o),
(305,805,cs),
(253,805,o),
(229,813,o),
(225,813,cs),
(222,813,o),
(220,810,o),
(220,807,cs),
(220,796,o),
(229,765,o),
(237,759,c),
(273,747,o),
(311,742,o),
(348,742,cs),
(380,742,o),
(411,746,o),
(443,753,c),
(467,825,l,{
name = hr00;
})
);
}
);
};
layerId = master01;
shapes = (
{
ref = O;
},
{
pos = (181,0);
ref = macroncomb.case;
}
);
width = 581;
}
);
unicode = 332;
},
{
glyphname = Oslash;
lastChange = "2023-02-16 14:01:18 +0000";
layers = (
{
anchors = (
{
name = bottom;
pos = (291,0);
},
{
name = top;
pos = (341,206);
}
);
background = {
shapes = (
{
closed = 1;
nodes = (
(177,-13,l),
(207,-27,o),
(240,-34,o),
(274,-34,cs),
(477,-34,o),
(551,140,o),
(551,301,cs),
(551,405,o),
(514,504,o),
(463,565,c),
(490,614,o),
(519,663,o),
(550,712,c),
(518,738,l),
(435,716,l),
(414,671,l),
(121,627,o),
(30,425,o),
(30,263,cs),
(30,148,o),
(70,64,o),
(130,15,c),
(90,-81,l),
(98,-94,o),
(116,-103,o),
(126,-103,cs),
(133,-103,o),
(137,-100,o),
(138,-98,c,{
name = hr00;
})
);
},
{
closed = 1;
nodes = (
(270,49,o),
(242,58,o),
(218,75,c),
(285,219,o),
(352,362,o),
(430,507,c),
(468,435,o),
(487,347,o),
(487,281,cs),
(487,156,o),
(425,53,o),
(299,49,c)
);
},
{
closed = 1;
nodes = (
(126,446,o),
(201,557,o),
(374,582,c),
(304,425,o),
(237,270,o),
(173,119,c),
(144,160,o),
(126,218,o),
(126,291,cs)
);
}
);
};
layerId = master01;
shapes = (
{
closed = 1;
nodes = (
(133,-103,o),
(137,-100,o),
(138,-98,c,{
name = hr00;
}),
(177,-13,l),
(207,-27,o),
(240,-34,o),
(274,-34,cs),
(477,-34,o),
(551,140,o),
(551,301,cs),
(551,405,o),
(514,504,o),
(463,565,c),
(490,614,o),
(519,663,o),
(550,712,c),
(518,738,l),
(435,716,l),
(414,671,l),
(121,627,o),
(30,425,o),
(30,263,cs),
(30,148,o),
(70,64,o),
(130,15,c),
(90,-81,l),
(98,-94,o),
(116,-103,o),
(126,-103,cs)
);
},
{
closed = 1;
nodes = (
(144,160,o),
(126,218,o),
(126,291,cs),
(126,446,o),
(201,557,o),
(374,582,c),
(304,425,o),
(237,270,o),
(173,119,c)
);
},
{
closed = 1;
nodes = (
(270,49,o),
(242,58,o),
(218,75,c),
(285,219,o),
(352,362,o),
(430,507,c),
(468,435,o),
(487,347,o),
(487,281,cs),
(487,156,o),
(425,53,o),
(299,49,c)
);
}
);
width = 581;
}
);
unicode = 216;
},
{
glyphname = Oslashacute;
lastChange = "2023-02-16 14:01:18 +0000";
layers = (
{
background = {
shapes = (
{
closed = 1;
nodes = (
(423,894,l),
(384,841,o),
(322,778,o),
(232,737,c),
(232,722,o),
(256,700,o),
(265,699,c),
(339,722,o),
(391,746,o),
(451,797,c),
(439,884,l,{
name = hr00;
})
);
},
{
closed = 1;
nodes = (
(177,-13,l),
(207,-27,o),
(240,-34,o),
(274,-34,cs),
(477,-34,o),
(551,140,o),
(551,301,cs),
(551,405,o),
(514,504,o),
(463,565,c),
(490,614,o),
(519,663,o),
(550,712,c),
(518,738,l),
(435,716,l),
(414,671,l),
(121,627,o),
(30,425,o),
(30,263,cs),
(30,148,o),
(70,64,o),
(130,15,c),
(90,-81,l),
(98,-94,o),
(116,-103,o),
(126,-103,cs),
(133,-103,o),
(137,-100,o),
(138,-98,c,{
name = hr00;
})
);
},
{
closed = 1;
nodes = (
(270,49,o),
(242,58,o),
(218,75,c),
(285,219,o),
(352,362,o),
(430,507,c),
(468,435,o),
(487,347,o),
(487,281,cs),
(487,156,o),
(425,53,o),
(299,49,c)
);
},
{
closed = 1;
nodes = (
(126,446,o),
(201,557,o),
(374,582,c),
(304,425,o),
(237,270,o),
(173,119,c),
(144,160,o),
(126,218,o),
(126,291,cs)
);
}
);
};
layerId = master01;
shapes = (
{
ref = Oslash;
},
{
pos = (181,0);
ref = acutecomb.case;
}
);
width = 581;
}
);
unicode = 510;
},
{
glyphname = Otilde;
lastChange = "2023-02-16 14:04:51 +0000";
layers = (
{
background = {
shapes = (
{
closed = 1;
nodes = (
(128,642,o),
(30,431,o),
(30,263,cs),
(30,71,o),
(142,-34,o),
(274,-34,cs),
(477,-34,o),
(551,140,o),
(551,301,cs),
(551,423,o),
(500,538,o),
(436,593,c),
(465,651,l),
(448,676,l,{
name = hr00;
})
);
},
{
closed = 1;
nodes = (
(208,49,o),
(126,138,o),
(126,291,cs),
(126,447,o),
(202,558,o),
(377,583,c),
(451,509,o),
(487,373,o),
(487,281,cs),
(487,156,o),
(425,53,o),
(299,49,c)
);
},
{
closed = 1;
nodes = (
(244,745,o),
(263,752,o),
(280,752,cs),
(306,752,o),
(329,735,o),
(373,735,cs,{
name = hr01;
}),
(415,735,o),
(454,764,o),
(482,829,c),
(482,837,o),
(471,850,o),
(456,850,c),
(437,822,o),
(413,806,o),
(382,806,cs),
(339,806,o),
(322,835,o),
(270,835,cs,{
name = hr02;
}),
(239,835,o),
(201,813,o),
(185,783,c),
(203,731,l),
(217,723,l)
);
}
);
};
layerId = master01;
shapes = (
{
ref = O;
},
{
pos = (134,0);
ref = tildecomb.case;
}
);
width = 581;
}
);
unicode = 213;
},
{
glyphname = OE;
lastChange = "2023-02-16 13:47:52 +0000";
layers = (
{
anchors = (
{
name = bottom;
pos = (438,0);
},
{
name = top;
pos = (438,206);
}
);
background = {
shapes = (
{
closed = 1;
nodes = (
(743,-33,o),
(802,68,o),
(828,199,c),
(816,209,o),
(804,213,o),
(797,213,cs),
(794,213,o),
(791,210,o),
(790,205,cs),
(756,84,o),
(716,25,o),
(632,25,cs),
(556,25,o),
(521,127,o),
(521,250,cs),
(521,263,o),
(521,276,o),
(522,289,c),
(548,287,o),
(575,287,o),
(601,287,cs),
(640,287,o),
(688,291,o),
(725,298,c),
(755,367,l),
(746,384,l),
(703,367,o),
(639,349,o),
(549,349,cs),
(526,349,l),
(533,426,o),
(546,503,o),
(560,563,c),
(593,559,o),
(629,556,o),
(671,556,cs),
(716,556,o),
(761,559,o),
(808,565,c),
(841,651,l),
(824,677,l),
(737,642,o),
(671,633,o),
(609,633,cs),
(578,633,l),
(581,645,o),
(584,654,o),
(587,661,c),
(561,677,l),
(505,639,l),
(467,642,o),
(428,646,o),
(384,646,cs,{
name = hr01;
}),
(135,646,o),
(30,431,o),
(30,256,cs),
(30,70,o),
(126,-33,o),
(244,-33,cs),
(358,-33,o),
(425,34,o),
(460,125,c),
(483,32,o),
(531,-33,o),
(619,-33,cs)
);
},
{
closed = 1;
nodes = (
(440,311,ls),
(437,197,o),
(380,67,o),
(267,67,cs,{
name = hr02;
}),
(183,67,o),
(117,146,o),
(117,295,cs),
(117,444,o),
(197,585,o),
(368,585,cs),
(399,585,o),
(429,582,o),
(458,578,c),
(446,497,o),
(440,332,o),
(440,320,c)
);
}
);
};
layerId = master01;
shapes = (
{
closed = 1;
nodes = (
(358,-33,o),
(425,34,o),
(460,125,c),
(483,32,o),
(531,-33,o),
(619,-33,cs),
(743,-33,o),
(802,68,o),
(828,199,c),
(816,209,o),
(804,213,o),
(797,213,cs),
(794,213,o),
(791,210,o),
(790,205,cs),
(756,84,o),
(716,25,o),
(632,25,cs),
(556,25,o),
(521,127,o),
(521,250,cs),
(521,263,o),
(521,276,o),
(522,289,c),
(548,287,o),
(575,287,o),
(601,287,cs),
(640,287,o),
(688,291,o),
(725,298,c),
(755,367,l),
(746,384,l),
(703,367,o),
(639,349,o),
(549,349,cs),
(526,349,l),
(533,426,o),
(546,503,o),
(560,563,c),
(593,559,o),
(629,556,o),
(671,556,cs),
(716,556,o),
(761,559,o),
(808,565,c),
(841,651,l),
(824,677,l),
(737,642,o),
(671,633,o),
(609,633,cs),
(578,633,l),
(581,645,o),
(584,654,o),
(587,661,c),
(561,677,l),
(505,639,l),
(467,642,o),
(428,646,o),
(384,646,cs,{
name = hr01;
}),
(135,646,o),
(30,431,o),
(30,256,cs),
(30,70,o),
(126,-33,o),
(244,-33,cs)
);
},
{
closed = 1;
nodes = (
(183,67,o),
(117,146,o),
(117,295,cs),
(117,444,o),
(197,585,o),
(368,585,cs),
(399,585,o),
(429,582,o),
(458,578,c),
(446,497,o),
(440,332,o),
(440,320,c),
(440,311,ls),
(437,197,o),
(380,67,o),
(267,67,cs,{
name = hr02;
})
);
}
);
width = 876;
}
);
unicode = 338;
},
{
glyphname = P;
lastChange = "2023-02-16 13:47:52 +0000";
layers = (
{
anchors = (
{
name = bottom;
pos = (240,0);
},
{
name = top;
pos = (240,206);
}
);
background = {
shapes = (
{
closed = 1;
nodes = (
(92,209,o),
(116,209,o),
(139,209,c),
(138,111,o),
(130,22,o),
(125,-31,cs),
(125,-33,o),
(126,-34,o),
(134,-34,cs),
(143,-34,o),
(164,-28,o),
(173,-19,c),
(182,54,o),
(192,132,o),
(199,211,c),
(423,228,o),
(485,329,o),
(485,409,cs),
(485,553,o),
(290,563,o),
(106,689,c),
(59,622,l),
(119,552,o),
(137,397,o),
(139,254,c),
(100,254,o),
(79,254,o),
(58,258,cs),
(56,258,o),
(55,257,o),
(55,250,cs),
(55,242,o),
(59,222,o),
(72,210,c,{
name = hr00;
})
);
},
{
closed = 1;
nodes = (
(206,439,o),
(202,504,o),
(189,577,c),
(298,528,o),
(384,491,o),
(384,403,cs),
(384,339,o),
(328,278,o),
(202,259,c),
(205,296,o),
(206,333,o),
(206,369,cs)
);
}
);
};
layerId = master01;
shapes = (
{
closed = 1;
nodes = (
(143,-34,o),
(164,-28,o),
(173,-19,c),
(182,54,o),
(192,132,o),
(199,211,c),
(423,228,o),
(485,329,o),
(485,409,cs),
(485,553,o),
(290,563,o),
(106,689,c),
(59,622,l),
(119,552,o),
(137,397,o),
(139,254,c),
(100,254,o),
(79,254,o),
(58,258,cs),
(56,258,o),
(55,257,o),
(55,250,cs),
(55,242,o),
(59,222,o),
(72,210,c,{
name = hr00;
}),
(92,209,o),
(116,209,o),
(139,209,c),
(138,111,o),
(130,22,o),
(125,-31,cs),
(125,-33,o),
(126,-34,o),
(134,-34,cs)
);
},
{
closed = 1;
nodes = (
(205,296,o),
(206,333,o),
(206,369,cs),
(206,439,o),
(202,504,o),
(189,577,c),
(298,528,o),
(384,491,o),
(384,403,cs),
(384,339,o),
(328,278,o),
(202,259,c)
);
}
);
width = 480;
}
);
unicode = 80;
},
{
glyphname = Thorn;
lastChange = "2023-02-16 13:46:41 +0000";
layers = (
{
background = {
shapes = (
{
closed = 1;
nodes = (
(160,350,o),
(156,415,o),
(143,488,c),
(252,439,o),
(338,402,o),
(338,314,cs),
(338,250,o),
(282,189,o),
(156,170,c),
(159,207,o),
(160,244,o),
(160,280,cs,{
name = hr00;
})
);
},
{
closed = 1;
nodes = (
(141,240,o),
(152,177,o),
(153,122,c),
(377,139,o),
(439,240,o),
(439,320,cs),
(439,449,o),
(283,470,o),
(118,564,c),
(123,300,l)
);
},
{
closed = 1;
nodes = (
(162,122,o),
(181,454,o),
(186,631,c),
(96,677,l),
(70,659,l),
(90,532,o),
(99,369,o),
(99,235,cs),
(99,153,o),
(94,66,o),
(80,-29,cs),
(80,-31,o),
(81,-33,o),
(88,-33,cs),
(99,-33,o),
(126,-26,o),
(134,-17,c,{
name = hr00;
})
);
}
);
};
layerId = master01;
shapes = (
{
closed = 1;
nodes = (
(377,139,o),
(439,240,o),
(439,320,cs),
(439,449,o),
(283,470,o),
(118,564,c),
(123,300,l),
(141,240,o),
(152,177,o),
(153,122,c)
);
},
{
pos = (-10,0);
ref = I;
},
{
closed = 1;
nodes = (
(159,207,o),
(160,244,o),
(160,280,cs,{
name = hr00;
}),
(160,350,o),
(156,415,o),
(143,488,c),
(252,439,o),
(338,402,o),
(338,314,cs),
(338,250,o),
(282,189,o),
(156,170,c)
);
}
);
width = 454;
}
);
unicode = 222;
},
{
glyphname = Q;
lastChange = "2023-02-16 13:47:52 +0000";
layers = (
{
anchors = (
{
name = bottom;
pos = (291,0);
},
{
name = top;
pos = (291,206);
}
);
background = {
shapes = (
{
closed = 1;
nodes = (
(128,642,o),
(30,431,o),
(30,263,cs),
(30,96,o),
(114,-4,o),
(223,-28,c),
(193,-62,o),
(159,-94,o),
(119,-124,c),
(94,-131,o),
(69,-138,o),
(44,-147,c),
(35,-157,o),
(28,-173,o),
(27,-181,c),
(37,-196,o),
(55,-206,o),
(65,-206,c),
(83,-199,o),
(102,-190,o),
(121,-179,c),
(139,-178,o),
(159,-178,o),
(179,-178,cs),
(270,-178,o),
(359,-193,o),
(409,-224,c),
(451,-145,l),
(437,-120,l),
(386,-106,o),
(335,-101,o),
(290,-101,cs),
(269,-101,o),
(248,-102,o),
(228,-104,c),
(253,-82,o),
(278,-58,o),
(300,-33,c),
(483,-18,o),
(551,147,o),
(551,301,cs),
(551,423,o),
(500,538,o),
(436,593,c),
(465,651,l),
(448,676,l,{
name = hr00;
})
);
},
{
closed = 1;
nodes = (
(208,49,o),
(126,138,o),
(126,291,cs),
(126,447,o),
(202,558,o),
(377,583,c),
(451,509,o),
(487,373,o),
(487,281,cs),
(487,156,o),
(425,49,o),
(299,49,cs)
);
}
);
};
layerId = master01;
shapes = (
{
closed = 1;
nodes = (
(451,-145,l),
(437,-120,l),
(386,-106,o),
(335,-101,o),
(290,-101,cs),
(269,-101,o),
(248,-102,o),
(228,-104,c),
(253,-82,o),
(278,-58,o),
(300,-33,c),
(483,-18,o),
(551,147,o),
(551,301,cs),
(551,423,o),
(500,538,o),
(436,593,c),
(465,651,l),
(448,676,l,{
name = hr00;
}),
(128,642,o),
(30,431,o),
(30,263,cs),
(30,96,o),
(114,-4,o),
(223,-28,c),
(193,-62,o),
(159,-94,o),
(119,-124,c),
(94,-131,o),
(69,-138,o),
(44,-147,c),
(35,-157,o),
(28,-173,o),
(27,-181,c),
(37,-196,o),
(55,-206,o),
(65,-206,c),
(83,-199,o),
(102,-190,o),
(121,-179,c),
(139,-178,o),
(159,-178,o),
(179,-178,cs),
(270,-178,o),
(359,-193,o),
(409,-224,c)
);
},
{
closed = 1;
nodes = (
(208,49,o),
(126,138,o),
(126,291,cs),
(126,447,o),
(202,558,o),
(377,583,c),
(451,509,o),
(487,373,o),
(487,281,cs),
(487,156,o),
(425,49,o),
(299,49,cs)
);
}
);
width = 581;
}
);
unicode = 81;
},
{
glyphname = R;
lastChange = "2023-02-16 14:04:59 +0000";
layers = (
{
anchors = (
{
name = bottom;
pos = (273,0);
},
{
name = top;
pos = (334,206);
}
);
background = {
shapes = (
{
closed = 1;
nodes = (
(92,234,o),
(116,234,o),
(139,234,c),
(139,126,o),
(131,26,o),
(125,-31,cs),
(125,-33,o),
(126,-34,o),
(134,-34,cs),
(143,-34,o),
(164,-28,o),
(173,-19,c),
(183,62,o),
(195,149,o),
(201,236,c),
(234,239,o),
(264,243,o),
(291,249,c),
(355,139,o),
(428,24,o),
(483,-30,c),
(487,-31,o),
(491,-31,o),
(495,-31,cs),
(511,-31,o),
(528,-26,o),
(528,-19,c),
(479,45,o),
(411,170,o),
(365,272,c),
(456,311,o),
(485,373,o),
(485,425,cs),
(485,561,o),
(290,570,o),
(106,689,c),
(59,622,l),
(115,556,o),
(135,415,o),
(138,279,c),
(100,279,o),
(79,279,o),
(58,283,cs),
(56,283,o),
(55,282,o),
(55,275,cs),
(55,267,o),
(59,247,o),
(72,235,c,{
name = hr00;
})
);
},
{
closed = 1;
nodes = (
(206,439,o),
(202,504,o),
(189,577,c),
(298,532,o),
(384,498,o),
(384,416,cs),
(384,357,o),
(328,301,o),
(203,284,c),
(205,313,o),
(206,341,o),
(206,369,cs)
);
}
);
};
layerId = master01;
shapes = (
{
closed = 1;
nodes = (
(143,-34,o),
(164,-28,o),
(173,-19,c),
(183,62,o),
(195,149,o),
(201,236,c),
(234,239,o),
(264,243,o),
(291,249,c),
(355,139,o),
(428,24,o),
(483,-30,c),
(487,-31,o),
(491,-31,o),
(495,-31,cs),
(511,-31,o),
(528,-26,o),
(528,-19,c),
(479,45,o),
(411,170,o),
(365,272,c),
(456,311,o),
(485,373,o),
(485,425,cs),
(485,561,o),
(290,570,o),
(106,689,c),
(59,622,l),
(115,556,o),
(135,415,o),
(138,279,c),
(100,279,o),
(79,279,o),
(58,283,cs),
(56,283,o),
(55,282,o),
(55,275,cs),
(55,267,o),
(59,247,o),
(72,235,c,{
name = hr00;
}),
(92,234,o),
(116,234,o),
(139,234,c),
(139,126,o),
(131,26,o),
(125,-31,cs),
(125,-33,o),
(126,-34,o),
(134,-34,cs)
);
},
{
closed = 1;
nodes = (
(205,313,o),
(206,341,o),
(206,369,cs),
(206,439,o),
(202,504,o),
(189,577,c),
(298,532,o),
(384,498,o),
(384,416,cs),
(384,357,o),
(328,301,o),
(203,284,c)
);
}
);
width = 528;
}
);
unicode = 82;
},
{
glyphname = Racute;
lastChange = "2023-02-16 14:01:26 +0000";
layers = (
{
background = {
shapes = (
{
closed = 1;
nodes = (
(92,234,o),
(116,234,o),
(139,234,c),
(139,126,o),
(131,26,o),
(125,-31,cs),
(125,-33,o),
(126,-34,o),
(134,-34,cs),
(143,-34,o),
(164,-28,o),
(173,-19,c),
(183,62,o),
(195,149,o),
(201,236,c),
(234,239,o),
(264,243,o),
(291,249,c),
(355,139,o),
(428,24,o),
(483,-30,c),
(487,-31,o),
(491,-31,o),
(495,-31,cs),
(511,-31,o),
(528,-26,o),
(528,-19,c),
(479,45,o),
(411,170,o),
(365,272,c),
(456,311,o),
(485,373,o),
(485,425,cs),
(485,561,o),
(290,570,o),
(106,689,c),
(59,622,l),
(115,556,o),
(135,415,o),
(138,279,c),
(100,279,o),
(79,279,o),
(58,283,cs),
(56,283,o),
(55,282,o),
(55,275,cs),
(55,267,o),
(59,247,o),
(72,235,c,{
name = hr00;
})
);
},
{
closed = 1;
nodes = (
(206,439,o),
(202,504,o),
(189,577,c),
(298,532,o),
(384,498,o),
(384,416,cs),
(384,357,o),
(328,301,o),
(203,284,c),
(205,313,o),
(206,341,o),
(206,369,cs)
);
},
{
closed = 1;
nodes = (
(414,894,l),
(375,841,o),
(313,778,o),
(223,737,c),
(223,722,o),
(247,700,o),
(256,699,c),
(330,722,o),
(382,746,o),
(442,797,c),
(430,884,l,{
name = hr00;
})
);
}
);
};
layerId = master01;
shapes = (
{
ref = R;
},
{
pos = (174,0);
ref = acutecomb.case;
}
);
width = 528;
}
);
unicode = 340;
},
{
glyphname = Rcaron;
lastChange = "2023-02-16 14:01:26 +0000";
layers = (
{
background = {
shapes = (
{
closed = 1;
nodes = (
(92,234,o),
(116,234,o),
(139,234,c),
(139,126,o),
(131,26,o),
(125,-31,cs),
(125,-33,o),
(126,-34,o),
(134,-34,cs),
(143,-34,o),
(164,-28,o),
(173,-19,c),
(183,62,o),
(195,149,o),
(201,236,c),
(234,239,o),
(264,243,o),
(291,249,c),
(355,139,o),
(428,24,o),
(483,-30,c),
(487,-31,o),
(491,-31,o),
(495,-31,cs),
(511,-31,o),
(528,-26,o),
(528,-19,c),
(479,45,o),
(411,170,o),
(365,272,c),
(456,311,o),
(485,373,o),
(485,425,cs),
(485,561,o),
(290,570,o),
(106,689,c),
(59,622,l),
(115,556,o),
(135,415,o),
(138,279,c),
(100,279,o),
(79,279,o),
(58,283,cs),
(56,283,o),
(55,282,o),
(55,275,cs),
(55,267,o),
(59,247,o),
(72,235,c,{
name = hr00;
})
);
},
{
closed = 1;
nodes = (
(206,439,o),
(202,504,o),
(189,577,c),
(298,532,o),
(384,498,o),
(384,416,cs),
(384,357,o),
(328,301,o),
(203,284,c),
(205,313,o),
(206,341,o),
(206,369,cs)
);
},
{
closed = 1;
nodes = (
(321,709,l),
(355,762,o),
(397,807,o),
(470,856,c),
(470,871,o),
(446,893,o),
(437,894,c),
(394,876,o),
(348,846,o),
(316,816,c),
(304,842,o),
(288,866,o),
(268,888,c),
(205,878,l),
(195,862,l),
(240,817,o),
(271,771,o),
(297,709,c,{
name = hr00;
})
);
}
);
};
layerId = master01;
shapes = (
{
ref = R;
},
{
pos = (146,0);
ref = caroncomb.case;
}
);
width = 528;
}
);
unicode = 344;
},
{
glyphname = Rcommaaccent;
lastChange = "2023-02-16 14:04:59 +0000";
layers = (
{
background = {
shapes = (
{
closed = 1;
nodes = (
(92,234,o),
(116,234,o),
(139,234,c),
(139,126,o),
(131,26,o),
(125,-31,cs),
(125,-33,o),
(126,-34,o),
(134,-34,cs),
(143,-34,o),
(164,-28,o),
(173,-19,c),
(183,62,o),
(195,149,o),
(201,236,c),
(234,239,o),
(264,243,o),
(291,249,c),
(355,139,o),
(428,24,o),
(483,-30,c),
(487,-31,o),
(491,-31,o),
(495,-31,cs),
(511,-31,o),
(528,-26,o),
(528,-19,c),
(479,45,o),
(411,170,o),
(365,272,c),
(456,311,o),
(485,373,o),
(485,425,cs),
(485,561,o),
(290,570,o),
(106,689,c),
(59,622,l),
(115,556,o),
(135,415,o),
(138,279,c),
(100,279,o),
(79,279,o),
(58,283,cs),
(56,283,o),
(55,282,o),
(55,275,cs),
(55,267,o),
(59,247,o),
(72,235,c,{
name = hr00;
})
);
},
{
closed = 1;
nodes = (
(206,439,o),
(202,504,o),
(189,577,c),
(298,532,o),
(384,498,o),
(384,416,cs),
(384,357,o),
(328,301,o),
(203,284,c),
(205,313,o),
(206,341,o),
(206,369,cs)
);
},
{
closed = 1;
nodes = (
(330,-108,o),
(305,-78,o),
(268,-78,cs),
(231,-78,o),
(195,-104,o),
(195,-151,c),
(238,-213,l),
(235,-253,o),
(215,-289,o),
(162,-314,c),
(162,-324,o),
(172,-345,o),
(178,-345,cs),
(191,-345,o),
(330,-289,o),
(330,-154,cs,{
name = hr00;
})
);
}
);
};
layerId = master01;
shapes = (
{
ref = R;
},
{
pos = (152,0);
ref = commaaccent;
}
);
width = 528;
}
);
unicode = 342;
},
{
glyphname = S;
lastChange = "2023-02-16 14:05:09 +0000";
layers = (
{
anchors = (
{
name = bottom;
pos = (179,0);
},
{
name = top;
pos = (289,206);
}
);
background = {
shapes = (
{
closed = 1;
nodes = (
(391,664,l),
(85,621,o),
(43,513,o),
(43,460,cs),
(43,330,o),
(287,259,o),
(287,138,cs),
(287,67,o),
(211,17,o),
(98,17,cs),
(40,17,o),
(10,32,o),
(1,32,cs),
(0,32,o),
(0,31,o),
(0,25,cs),
(0,18,o),
(4,0,o),
(11,-11,c),
(63,-27,o),
(92,-28,o),
(129,-28,cs),
(353,-28,o),
(399,90,o),
(399,155,cs),
(399,307,o),
(139,376,o),
(139,491,cs),
(139,556,o),
(200,578,o),
(262,578,cs),
(303,578,o),
(345,568,o),
(375,552,c),
(408,638,l,{
name = hr00;
})
);
}
);
};
layerId = master01;
shapes = (
{
closed = 1;
nodes = (
(353,-28,o),
(399,90,o),
(399,155,cs),
(399,307,o),
(139,376,o),
(139,491,cs),
(139,556,o),
(200,578,o),
(262,578,cs),
(303,578,o),
(345,568,o),
(375,552,c),
(408,638,l,{
name = hr00;
}),
(391,664,l),
(85,621,o),
(43,513,o),
(43,460,cs),
(43,330,o),
(287,259,o),
(287,138,cs),
(287,67,o),
(211,17,o),
(98,17,cs),
(40,17,o),
(10,32,o),
(1,32,cs),
(0,32,o),
(0,31,o),
(0,25,cs),
(0,18,o),
(4,0,o),
(11,-11,c),
(63,-27,o),
(92,-28,o),
(129,-28,cs)
);
}
);
width = 438;
}
);
unicode = 83;
},
{
glyphname = Sacute;
lastChange = "2023-02-16 14:05:05 +0000";
layers = (
{
background = {
shapes = (
{
closed = 1;
nodes = (
(391,664,l),
(85,621,o),
(43,513,o),
(43,460,cs),
(43,330,o),
(287,259,o),
(287,138,cs),
(287,67,o),
(211,17,o),
(98,17,cs),
(40,17,o),
(10,32,o),
(1,32,cs),
(0,32,o),
(0,31,o),
(0,25,cs),
(0,18,o),
(4,0,o),
(11,-11,c),
(63,-27,o),
(92,-28,o),
(129,-28,cs),
(353,-28,o),
(399,90,o),
(399,155,cs),
(399,307,o),
(139,376,o),
(139,491,cs),
(139,556,o),
(200,578,o),
(262,578,cs),
(303,578,o),
(345,568,o),
(375,552,c),
(408,638,l,{
name = hr00;
})
);
},
{
closed = 1;
nodes = (
(374,894,l),
(335,841,o),
(273,778,o),
(183,737,c),
(183,722,o),
(207,700,o),
(216,699,c),
(290,722,o),
(342,746,o),
(402,797,c),
(390,884,l,{
name = hr00;
})
);
}
);
};
layerId = master01;
shapes = (
{
ref = S;
},
{
pos = (129,0);
ref = acutecomb.case;
}
);
width = 438;
}
);
unicode = 346;
},
{
glyphname = Scaron;
lastChange = "2023-02-16 14:05:05 +0000";
layers = (
{
background = {
shapes = (
{
closed = 1;
nodes = (
(391,664,l),
(85,621,o),
(43,513,o),
(43,460,cs),
(43,330,o),
(287,259,o),
(287,138,cs),
(287,67,o),
(211,17,o),
(98,17,cs),
(40,17,o),
(10,32,o),
(1,32,cs),
(0,32,o),
(0,31,o),
(0,25,cs),
(0,18,o),
(4,0,o),
(11,-11,c),
(63,-27,o),
(92,-28,o),
(129,-28,cs),
(353,-28,o),
(399,90,o),
(399,155,cs),
(399,307,o),
(139,376,o),
(139,491,cs),
(139,556,o),
(200,578,o),
(262,578,cs),
(303,578,o),
(345,568,o),
(375,552,c),
(408,638,l,{
name = hr00;
})
);
},
{
closed = 1;
nodes = (
(276,709,l),
(310,762,o),
(352,807,o),
(425,856,c),
(425,871,o),
(401,893,o),
(392,894,c),
(349,876,o),
(303,846,o),
(271,816,c),
(259,842,o),
(243,866,o),
(223,888,c),
(160,878,l),
(150,862,l),
(195,817,o),
(226,771,o),
(252,709,c,{
name = hr00;
})
);
}
);
};
layerId = master01;
shapes = (
{
ref = S;
},
{
pos = (101,0);
ref = caroncomb.case;
}
);
width = 438;
}
);
unicode = 352;
},
{
glyphname = Scedilla;
lastChange = "2023-02-16 14:05:09 +0000";
layers = (
{
background = {
shapes = (
{
closed = 1;
nodes = (
(391,664,l),
(85,621,o),
(43,513,o),
(43,460,cs),
(43,330,o),
(287,259,o),
(287,138,cs),
(287,67,o),
(211,17,o),
(98,17,cs),
(40,17,o),
(10,32,o),
(1,32,cs),
(0,32,o),
(0,31,o),
(0,25,cs),
(0,18,o),
(4,0,o),
(11,-11,c),
(63,-27,o),
(92,-28,o),
(129,-28,cs),
(353,-28,o),
(399,90,o),
(399,155,cs),
(399,307,o),
(139,376,o),
(139,491,cs),
(139,556,o),
(200,578,o),
(262,578,cs),
(303,578,o),
(345,568,o),
(375,552,c),
(408,638,l,{
name = hr00;
})
);
},
{
closed = 1;
nodes = (
(123,-89,l),
(137,-108,l),
(149,-102,o),
(162,-99,o),
(175,-99,cs),
(204,-99,o),
(217,-117,o),
(217,-136,cs),
(217,-158,o),
(198,-183,o),
(167,-183,cs),
(143,-183,o),
(115,-169,o),
(101,-143,c),
(76,-191,l),
(81,-206,l),
(104,-219,o),
(130,-225,o),
(154,-225,cs),
(238,-225,o),
(281,-171,o),
(281,-124,cs),
(281,-79,o),
(242,-57,o),
(203,-57,cs),
(190,-57,o),
(178,-59,o),
(167,-63,c),
(200,0,l),
(164,0,l,{
name = hr00;
})
);
}
);
};
layerId = master01;
shapes = (
{
ref = S;
},
{
pos = (-1,0);
ref = cedillacomb;
}
);
width = 438;
}
);
unicode = 350;
},
{
glyphname = Scircumflex;
lastChange = "2023-02-16 14:05:05 +0000";
layers = (
{
background = {
shapes = (
{
closed = 1;
nodes = (
(391,664,l),
(85,621,o),
(43,513,o),
(43,460,cs),
(43,330,o),
(287,259,o),
(287,138,cs),
(287,67,o),
(211,17,o),
(98,17,cs),
(40,17,o),
(10,32,o),
(1,32,cs),
(0,32,o),
(0,31,o),
(0,25,cs),
(0,18,o),
(4,0,o),
(11,-11,c),
(63,-27,o),
(92,-28,o),
(129,-28,cs),
(353,-28,o),
(399,90,o),
(399,155,cs),
(399,307,o),
(139,376,o),
(139,491,cs),
(139,556,o),
(200,578,o),
(262,578,cs),
(303,578,o),
(345,568,o),
(375,552,c),
(408,638,l,{
name = hr00;
})
);
},
{
closed = 1;
nodes = (
(305,884,l),
(271,831,o),
(229,786,o),
(156,737,c),
(156,722,o),
(180,700,o),
(189,699,c),
(232,716,o),
(277,746,o),
(310,777,c),
(322,751,o),
(337,727,o),
(358,705,c),
(421,715,l),
(431,731,l),
(386,776,o),
(355,822,o),
(329,884,c,{
name = hr00;
})
);
}
);
};
layerId = master01;
shapes = (
{
ref = S;
},
{
pos = (101,0);
ref = circumflexcomb.case;
}
);
width = 438;
}
);
unicode = 348;
},
{
glyphname = Scommaaccent;
lastChange = "2023-02-16 14:05:09 +0000";
layers = (
{
background = {
shapes = (
{
closed = 1;
nodes = (
(391,664,l),
(85,621,o),
(43,513,o),
(43,460,cs),
(43,330,o),
(287,259,o),
(287,138,cs),
(287,67,o),
(211,17,o),
(98,17,cs),
(40,17,o),
(10,32,o),
(1,32,cs),
(0,32,o),
(0,31,o),
(0,25,cs),
(0,18,o),
(4,0,o),
(11,-11,c),
(63,-27,o),
(92,-28,o),
(129,-28,cs),
(353,-28,o),
(399,90,o),
(399,155,cs),
(399,307,o),
(139,376,o),
(139,491,cs),
(139,556,o),
(200,578,o),
(262,578,cs),
(303,578,o),
(345,568,o),
(375,552,c),
(408,638,l,{
name = hr00;
})
);
},
{
closed = 1;
nodes = (
(252,-108,o),
(227,-78,o),
(190,-78,cs),
(153,-78,o),
(117,-104,o),
(117,-151,c),
(160,-213,l),
(157,-253,o),
(137,-289,o),
(84,-314,c),
(84,-324,o),
(94,-345,o),
(100,-345,cs),
(113,-345,o),
(252,-289,o),
(252,-154,cs,{
name = hr00;
})
);
}
);
};
layerId = master01;
shapes = (
{
ref = S;
},
{
pos = (58,0);
ref = commaaccent;
}
);
width = 438;
}
);
unicode = 536;
},
{
glyphname = T;
lastChange = "2023-02-16 14:03:01 +0000";
layers = (
{
anchors = (
{
name = bottom;
pos = (205,0);
},
{
name = center;
pos = (229,103);
},
{
name = top;
pos = (275,206);
}
);
background = {
shapes = (
{
closed = 1;
nodes = (
(269,117,o),
(287,396,o),
(294,556,c),
(345,568,o),
(395,585,o),
(447,607,c),
(456,615,o),
(462,636,o),
(462,645,cs),
(462,653,o),
(460,654,o),
(458,654,cs),
(410,642,o),
(325,627,o),
(240,627,cs),
(168,627,o),
(106,635,o),
(58,661,c),
(20,575,l),
(36,549,l),
(72,543,o),
(109,540,o),
(143,540,cs),
(160,540,o),
(177,540,o),
(194,541,c),
(202,451,o),
(206,317,o),
(206,257,cs),
(206,169,o),
(201,73,o),
(184,-30,cs),
(184,-32,o),
(185,-33,o),
(191,-33,cs),
(201,-33,o),
(225,-28,o),
(234,-19,c,{
name = hr00;
})
);
}
);
};
layerId = master01;
shapes = (
{
closed = 1;
nodes = (
(201,-33,o),
(225,-28,o),
(234,-19,c,{
name = hr00;
}),
(269,117,o),
(287,396,o),
(294,556,c),
(345,568,o),
(395,585,o),
(447,607,c),
(456,615,o),
(462,636,o),
(462,645,cs),
(462,653,o),
(460,654,o),
(458,654,cs),
(410,642,o),
(325,627,o),
(240,627,cs),
(168,627,o),
(106,635,o),
(58,661,c),
(20,575,l),
(36,549,l),
(72,543,o),
(109,540,o),
(143,540,cs),
(160,540,o),
(177,540,o),
(194,541,c),
(202,451,o),
(206,317,o),
(206,257,cs),
(206,169,o),
(201,73,o),
(184,-30,cs),
(184,-32,o),
(185,-33,o),
(191,-33,cs)
);
}
);
width = 457;
}
);
unicode = 84;
},
{
glyphname = Tbar;
lastChange = "2023-02-16 14:03:41 +0000";
layers = (
{
background = {
shapes = (
{
closed = 1;
nodes = (
(269,117,o),
(287,396,o),
(294,556,c),
(345,568,o),
(395,585,o),
(447,607,c),
(456,615,o),
(462,636,o),
(462,645,cs),
(462,653,o),
(460,654,o),
(458,654,cs),
(410,642,o),
(325,627,o),
(240,627,cs),
(168,627,o),
(106,635,o),
(58,661,c),
(20,575,l),
(36,549,l),
(72,543,o),
(109,540,o),
(143,540,cs),
(160,540,o),
(177,540,o),
(194,541,c),
(202,451,o),
(206,317,o),
(206,257,cs),
(206,169,o),
(201,73,o),
(184,-30,cs),
(184,-32,o),
(185,-33,o),
(191,-33,cs),
(201,-33,o),
(225,-28,o),
(234,-19,c,{
name = hr00;
})
);
},
{
closed = 1;
nodes = (
(311,269,o),
(370,273,o),
(424,281,c),
(431,300,l),
(411,350,l),
(317,324,o),
(170,315,o),
(57,315,c),
(47,308,o),
(44,297,o),
(44,289,cs),
(44,283,o),
(108,269,o),
(244,269,cs,{
name = hr00;
})
);
}
);
};
layerId = master01;
shapes = (
{
closed = 1;
nodes = (
(311,269,o),
(370,273,o),
(424,281,c),
(431,300,l),
(411,350,l),
(317,324,o),
(170,315,o),
(57,315,c),
(47,308,o),
(44,297,o),
(44,289,cs),
(44,283,o),
(108,269,o),
(244,269,cs,{
name = hr00;
})
);
},
{
alignment = -1;
ref = T;
}
);
width = 457;
}
);
unicode = 358;
},
{
glyphname = Tcaron;
lastChange = "2023-02-16 14:02:54 +0000";
layers = (
{
background = {
shapes = (
{
closed = 1;
nodes = (
(269,117,o),
(287,396,o),
(294,556,c),
(345,568,o),
(395,585,o),
(447,607,c),
(456,615,o),
(462,636,o),
(462,645,cs),
(462,653,o),
(460,654,o),
(458,654,cs),
(410,642,o),
(325,627,o),
(240,627,cs),
(168,627,o),
(106,635,o),
(58,661,c),
(20,575,l),
(36,549,l),
(72,543,o),
(109,540,o),
(143,540,cs),
(160,540,o),
(177,540,o),
(194,541,c),
(202,451,o),
(206,317,o),
(206,257,cs),
(206,169,o),
(201,73,o),
(184,-30,cs),
(184,-32,o),
(185,-33,o),
(191,-33,cs),
(201,-33,o),
(225,-28,o),
(234,-19,c,{
name = hr00;
})
);
},
{
closed = 1;
nodes = (
(264,709,l),
(298,762,o),
(340,807,o),
(413,856,c),
(413,871,o),
(389,893,o),
(380,894,c),
(337,876,o),
(291,846,o),
(259,816,c),
(247,842,o),
(231,866,o),
(211,888,c),
(148,878,l),
(138,862,l),
(183,817,o),
(214,771,o),
(240,709,c,{
name = hr00;
})
);
}
);
};
layerId = master01;
shapes = (
{
ref = T;
},
{
pos = (87,0);
ref = caroncomb.case;
}
);
width = 457;
}
);
unicode = 356;
},
{
glyphname = Tcedilla;
lastChange = "2023-02-16 14:03:01 +0000";
layers = (
{
background = {
shapes = (
{
closed = 1;
nodes = (
(269,117,o),
(287,396,o),
(294,556,c),
(345,568,o),
(395,585,o),
(447,607,c),
(456,615,o),
(462,636,o),
(462,645,cs),
(462,653,o),
(460,654,o),
(458,654,cs),
(410,642,o),
(325,627,o),
(240,627,cs),
(168,627,o),
(106,635,o),
(58,661,c),
(20,575,l),
(36,549,l),
(72,543,o),
(109,540,o),
(143,540,cs),
(160,540,o),
(177,540,o),
(194,541,c),
(202,451,o),
(206,317,o),
(206,257,cs),
(206,169,o),
(201,73,o),
(184,-30,cs),
(184,-32,o),
(185,-33,o),
(191,-33,cs),
(201,-33,o),
(225,-28,o),
(234,-19,c,{
name = hr00;
})
);
},
{
closed = 1;
nodes = (
(148,-89,l),
(162,-108,l),
(174,-102,o),
(187,-99,o),
(200,-99,cs),
(229,-99,o),
(242,-117,o),
(242,-136,cs),
(242,-158,o),
(223,-183,o),
(192,-183,cs),
(168,-183,o),
(140,-169,o),
(126,-143,c),
(101,-191,l),
(106,-206,l),
(129,-219,o),
(155,-225,o),
(179,-225,cs),
(263,-225,o),
(306,-171,o),
(306,-124,cs),
(306,-79,o),
(267,-57,o),
(228,-57,cs),
(215,-57,o),
(203,-59,o),
(192,-63,c),
(225,0,l),
(189,0,l,{
name = hr00;
})
);
}
);
};
layerId = master01;
shapes = (
{
ref = T;
},
{
pos = (25,0);
ref = cedillacomb;
}
);
width = 457;
}
);
unicode = 354;
},
{
glyphname = Tcommaaccent;
lastChange = "2023-02-16 14:03:33 +0000";
layers = (
{
background = {
shapes = (
{
closed = 1;
nodes = (
(269,117,o),
(287,396,o),
(294,556,c),
(345,568,o),
(395,585,o),
(447,607,c),
(456,615,o),
(462,636,o),
(462,645,cs),
(462,653,o),
(460,654,o),
(458,654,cs),
(410,642,o),
(325,627,o),
(240,627,cs),
(168,627,o),
(106,635,o),
(58,661,c),
(20,575,l),
(36,549,l),
(72,543,o),
(109,540,o),
(143,540,cs),
(160,540,o),
(177,540,o),
(194,541,c),
(202,451,o),
(206,317,o),
(206,257,cs),
(206,169,o),
(201,73,o),
(184,-30,cs),
(184,-32,o),
(185,-33,o),
(191,-33,cs),
(201,-33,o),
(225,-28,o),
(234,-19,c,{
name = hr00;
})
);
},
{
closed = 1;
nodes = (
(270,-108,o),
(245,-78,o),
(208,-78,cs),
(171,-78,o),
(135,-104,o),
(135,-151,c),
(178,-213,l),
(175,-253,o),
(155,-289,o),
(102,-314,c),
(102,-324,o),
(112,-345,o),
(118,-345,cs),
(131,-345,o),
(270,-289,o),
(270,-154,cs,{
name = hr00;
})
);
}
);
};
layerId = master01;
shapes = (
{
ref = T;
},
{
pos = (93,0);
ref = commaaccentcomb;
}
);
width = 457;
}
);
unicode = 538;
},
{
glyphname = U;
lastChange = "2023-02-16 14:05:33 +0000";
layers = (
{
anchors = (
{
name = bottom;
pos = (306,0);
},
{
name = ogonek;
pos = (623,0);
},
{
name = top;
pos = (346,206);
},
{
name = topright;
pos = (591,206);
}
);
background = {
shapes = (
{
closed = 1;
nodes = (
(133,677,l),
(107,661,l),
(95,589,o),
(80,469,o),
(80,349,cs),
(80,158,o),
(118,-33,o),
(267,-33,cs),
(373,-33,o),
(429,52,o),
(457,159,c),
(465,101,o),
(476,41,o),
(488,-19,c),
(496,-28,o),
(517,-34,o),
(527,-34,cs,{
name = hr01;
}),
(534,-34,o),
(535,-33,o),
(535,-31,cs),
(527,34,o),
(520,150,o),
(520,273,cs),
(520,417,o),
(530,544,o),
(566,636,c),
(481,677,l),
(455,661,l),
(443,584,o),
(436,509,o),
(436,432,cs),
(436,375,o),
(439,318,o),
(445,260,c),
(431,157,o),
(384,51,o),
(300,51,cs,{
name = hr02;
}),
(200,51,o),
(170,170,o),
(170,305,cs),
(170,431,o),
(197,570,o),
(218,636,c)
);
}
);
};
layerId = master01;
shapes = (
{
closed = 1;
nodes = (
(534,-34,o),
(535,-33,o),
(535,-31,cs),
(527,34,o),
(520,150,o),
(520,273,cs),
(520,417,o),
(530,544,o),
(566,636,c),
(481,677,l),
(455,661,l),
(443,584,o),
(436,509,o),
(436,432,cs),
(436,375,o),
(439,318,o),
(445,260,c),
(431,157,o),
(384,51,o),
(300,51,cs,{
name = hr02;
}),
(200,51,o),
(170,170,o),
(170,305,cs),
(170,431,o),
(197,570,o),
(218,636,c),
(133,677,l),
(107,661,l),
(95,589,o),
(80,469,o),
(80,349,cs),
(80,158,o),
(118,-33,o),
(267,-33,cs),
(373,-33,o),
(429,52,o),
(457,159,c),
(465,101,o),
(476,41,o),
(488,-19,c),
(496,-28,o),
(517,-34,o),
(527,-34,cs,{
name = hr01;
})
);
}
);
width = 611;
}
);
unicode = 85;
},
{
glyphname = Uacute;
lastChange = "2023-02-16 14:05:20 +0000";
layers = (
{
background = {
shapes = (
{
closed = 1;
nodes = (
(133,677,l),
(107,661,l),
(95,589,o),
(80,469,o),
(80,349,cs),
(80,158,o),
(118,-33,o),
(267,-33,cs),
(373,-33,o),
(429,52,o),
(457,159,c),
(465,101,o),
(476,41,o),
(488,-19,c),
(496,-28,o),
(517,-34,o),
(527,-34,cs,{
name = hr01;
}),
(534,-34,o),
(535,-33,o),
(535,-31,cs),
(527,34,o),
(520,150,o),
(520,273,cs),
(520,417,o),
(530,544,o),
(566,636,c),
(481,677,l),
(455,661,l),
(443,584,o),
(436,509,o),
(436,432,cs),
(436,375,o),
(439,318,o),
(445,260,c),
(431,157,o),
(384,51,o),
(300,51,cs,{
name = hr02;
}),
(200,51,o),
(170,170,o),
(170,305,cs),
(170,431,o),
(197,570,o),
(218,636,c)
);
},
{
closed = 1;
nodes = (
(437,894,l),
(398,841,o),
(336,778,o),
(246,737,c),
(246,722,o),
(270,700,o),
(279,699,c),
(353,722,o),
(405,746,o),
(465,797,c),
(453,884,l,{
name = hr00;
})
);
}
);
};
layerId = master01;
shapes = (
{
ref = U;
},
{
pos = (186,0);
ref = acutecomb.case;
}
);
width = 611;
}
);
unicode = 218;
},
{
glyphname = Ubreve;
lastChange = "2023-02-16 14:05:20 +0000";
layers = (
{
background = {
shapes = (
{
closed = 1;
nodes = (
(133,677,l),
(107,661,l),
(95,589,o),
(80,469,o),
(80,349,cs),
(80,158,o),
(118,-33,o),
(267,-33,cs),
(373,-33,o),
(429,52,o),
(457,159,c),
(465,101,o),
(476,41,o),
(488,-19,c),
(496,-28,o),
(517,-34,o),
(527,-34,cs,{
name = hr01;
}),
(534,-34,o),
(535,-33,o),
(535,-31,cs),
(527,34,o),
(520,150,o),
(520,273,cs),
(520,417,o),
(530,544,o),
(566,636,c),
(481,677,l),
(455,661,l),
(443,584,o),
(436,509,o),
(436,432,cs),
(436,375,o),
(439,318,o),
(445,260,c),
(431,157,o),
(384,51,o),
(300,51,cs,{
name = hr02;
}),
(200,51,o),
(170,170,o),
(170,305,cs),
(170,431,o),
(197,570,o),
(218,636,c)
);
},
{
closed = 1;
nodes = (
(434,769,o),
(315,758,o),
(315,840,c),
(300,850,l),
(249,823,l),
(249,755,o),
(297,725,o),
(358,725,cs),
(439,725,o),
(500,787,o),
(500,858,cs),
(486,868,l),
(434,841,l,{
name = hr00;
})
);
}
);
};
layerId = master01;
shapes = (
{
ref = U;
},
{
pos = (169,0);
ref = brevecomb.case;
}
);
width = 611;
}
);
unicode = 364;
},
{
glyphname = Ucircumflex;
lastChange = "2023-02-16 14:05:20 +0000";
layers = (
{
background = {
shapes = (
{
closed = 1;
nodes = (
(133,677,l),
(107,661,l),
(95,589,o),
(80,469,o),
(80,349,cs),
(80,158,o),
(118,-33,o),
(267,-33,cs),
(373,-33,o),
(429,52,o),
(457,159,c),
(465,101,o),
(476,41,o),
(488,-19,c),
(496,-28,o),
(517,-34,o),
(527,-34,cs,{
name = hr01;
}),
(534,-34,o),
(535,-33,o),
(535,-31,cs),
(527,34,o),
(520,150,o),
(520,273,cs),
(520,417,o),
(530,544,o),
(566,636,c),
(481,677,l),
(455,661,l),
(443,584,o),
(436,509,o),
(436,432,cs),
(436,375,o),
(439,318,o),
(445,260,c),
(431,157,o),
(384,51,o),
(300,51,cs,{
name = hr02;
}),
(200,51,o),
(170,170,o),
(170,305,cs),
(170,431,o),
(197,570,o),
(218,636,c)
);
},
{
closed = 1;
nodes = (
(357,884,l),
(323,831,o),
(281,786,o),
(208,737,c),
(208,722,o),
(232,700,o),
(241,699,c),
(284,716,o),
(329,746,o),
(362,777,c),
(374,751,o),
(389,727,o),
(410,705,c),
(473,715,l),
(483,731,l),
(438,776,o),
(407,822,o),
(381,884,c,{
name = hr00;
})
);
}
);
};
layerId = master01;
shapes = (
{
ref = U;
},
{
pos = (158,0);
ref = circumflexcomb.case;
}
);
width = 611;
}
);
unicode = 219;
},
{
glyphname = Udieresis;
lastChange = "2023-02-16 14:05:20 +0000";
layers = (
{
background = {
shapes = (
{
closed = 1;
nodes = (
(133,677,l),
(107,661,l),
(95,589,o),
(80,469,o),
(80,349,cs),
(80,158,o),
(118,-33,o),
(267,-33,cs),
(373,-33,o),
(429,52,o),
(457,159,c),
(465,101,o),
(476,41,o),
(488,-19,c),
(496,-28,o),
(517,-34,o),
(527,-34,cs,{
name = hr01;
}),
(534,-34,o),
(535,-33,o),
(535,-31,cs),
(527,34,o),
(520,150,o),
(520,273,cs),
(520,417,o),
(530,544,o),
(566,636,c),
(481,677,l),
(455,661,l),
(443,584,o),
(436,509,o),
(436,432,cs),
(436,375,o),
(439,318,o),
(445,260,c),
(431,157,o),
(384,51,o),
(300,51,cs,{
name = hr02;
}),
(200,51,o),
(170,170,o),
(170,305,cs),
(170,431,o),
(197,570,o),
(218,636,c)
);
},
{
closed = 1;
nodes = (
(193,817,o),
(222,843,o),
(278,851,c),
(299,834,o),
(307,810,o),
(307,790,cs),
(307,750,o),
(273,726,o),
(241,726,cs),
(209,726,o),
(193,755,o),
(193,779,cs,{
name = hr00;
})
);
},
{
closed = 1;
nodes = (
(380,817,o),
(409,843,o),
(465,851,c),
(486,834,o),
(494,810,o),
(494,790,cs),
(494,750,o),
(460,726,o),
(428,726,cs),
(396,726,o),
(380,755,o),
(380,779,cs)
);
}
);
};
layerId = master01;
shapes = (
{
ref = U;
},
{
pos = (145,0);
ref = dieresiscomb.case;
}
);
width = 611;
}
);
unicode = 220;
},
{
glyphname = Ugrave;
lastChange = "2023-02-16 14:05:20 +0000";
layers = (
{
background = {
shapes = (
{
closed = 1;
nodes = (
(133,677,l),
(107,661,l),
(95,589,o),
(80,469,o),
(80,349,cs),
(80,158,o),
(118,-33,o),
(267,-33,cs),
(373,-33,o),
(429,52,o),
(457,159,c),
(465,101,o),
(476,41,o),
(488,-19,c),
(496,-28,o),
(517,-34,o),
(527,-34,cs,{
name = hr01;
}),
(534,-34,o),
(535,-33,o),
(535,-31,cs),
(527,34,o),
(520,150,o),
(520,273,cs),
(520,417,o),
(530,544,o),
(566,636,c),
(481,677,l),
(455,661,l),
(443,584,o),
(436,509,o),
(436,432,cs),
(436,375,o),
(439,318,o),
(445,260,c),
(431,157,o),
(384,51,o),
(300,51,cs,{
name = hr02;
}),
(200,51,o),
(170,170,o),
(170,305,cs),
(170,431,o),
(197,570,o),
(218,636,c)
);
},
{
closed = 1;
nodes = (
(224,894,l),
(263,841,o),
(325,778,o),
(415,737,c),
(415,722,o),
(391,700,o),
(382,699,c),
(308,722,o),
(256,746,o),
(196,797,c),
(208,884,l,{
name = hr00;
})
);
}
);
};
layerId = master01;
shapes = (
{
ref = U;
},
{
pos = (186,0);
ref = gravecomb.case;
}
);
width = 611;
}
);
unicode = 217;
},
{
glyphname = Uhungarumlaut;
lastChange = "2023-02-16 14:05:20 +0000";
layers = (
{
background = {
shapes = (
{
closed = 1;
nodes = (
(133,677,l),
(107,661,l),
(95,589,o),
(80,469,o),
(80,349,cs),
(80,158,o),
(118,-33,o),
(267,-33,cs),
(373,-33,o),
(429,52,o),
(457,159,c),
(465,101,o),
(476,41,o),
(488,-19,c),
(496,-28,o),
(517,-34,o),
(527,-34,cs,{
name = hr01;
}),
(534,-34,o),
(535,-33,o),
(535,-31,cs),
(527,34,o),
(520,150,o),
(520,273,cs),
(520,417,o),
(530,544,o),
(566,636,c),
(481,677,l),
(455,661,l),
(443,584,o),
(436,509,o),
(436,432,cs),
(436,375,o),
(439,318,o),
(445,260,c),
(431,157,o),
(384,51,o),
(300,51,cs,{
name = hr02;
}),
(200,51,o),
(170,170,o),
(170,305,cs),
(170,431,o),
(197,570,o),
(218,636,c)
);
},
{
closed = 1;
nodes = (
(371,908,l),
(342,853,o),
(288,793,o),
(233,749,c),
(234,734,o),
(257,714,o),
(265,714,c),
(328,743,o),
(362,770,o),
(411,825,c),
(386,900,l,{
name = hr00;
})
);
},
{
closed = 1;
nodes = (
(529,908,l),
(500,853,o),
(446,793,o),
(391,749,c),
(392,734,o),
(415,714,o),
(423,714,c),
(486,743,o),
(520,770,o),
(569,825,c),
(544,900,l)
);
}
);
};
layerId = master01;
shapes = (
{
ref = U;
},
{
pos = (158,0);
ref = hungarumlautcomb.case;
}
);
width = 611;
}
);
unicode = 368;
},
{
glyphname = Umacron;
lastChange = "2023-02-16 14:05:20 +0000";
layers = (
{
background = {
shapes = (
{
closed = 1;
nodes = (
(133,677,l),
(107,661,l),
(95,589,o),
(80,469,o),
(80,349,cs),
(80,158,o),
(118,-33,o),
(267,-33,cs),
(373,-33,o),
(429,52,o),
(457,159,c),
(465,101,o),
(476,41,o),
(488,-19,c),
(496,-28,o),
(517,-34,o),
(527,-34,cs,{
name = hr01;
}),
(534,-34,o),
(535,-33,o),
(535,-31,cs),
(527,34,o),
(520,150,o),
(520,273,cs),
(520,417,o),
(530,544,o),
(566,636,c),
(481,677,l),
(455,661,l),
(443,584,o),
(436,509,o),
(436,432,cs),
(436,375,o),
(439,318,o),
(445,260,c),
(431,157,o),
(384,51,o),
(300,51,cs,{
name = hr02;
}),
(200,51,o),
(170,170,o),
(170,305,cs),
(170,431,o),
(197,570,o),
(218,636,c)
);
},
{
closed = 1;
nodes = (
(494,844,l),
(462,823,o),
(419,805,o),
(345,805,cs),
(293,805,o),
(269,813,o),
(265,813,cs),
(262,813,o),
(260,810,o),
(260,807,cs),
(260,796,o),
(269,765,o),
(277,759,c),
(313,747,o),
(351,742,o),
(388,742,cs),
(420,742,o),
(451,746,o),
(483,753,c),
(507,825,l,{
name = hr00;
})
);
}
);
};
layerId = master01;
shapes = (
{
ref = U;
},
{
pos = (182,0);
ref = macroncomb.case;
}
);
width = 611;
}
);
unicode = 362;
},
{
glyphname = Uogonek;
lastChange = "2023-02-16 14:05:33 +0000";
layers = (
{
background = {
shapes = (
{
closed = 1;
nodes = (
(133,677,l),
(107,661,l),
(95,589,o),
(80,469,o),
(80,349,cs),
(80,158,o),
(118,-33,o),
(267,-33,cs),
(373,-33,o),
(429,52,o),
(457,159,c),
(465,101,o),
(476,41,o),
(488,-19,c),
(496,-28,o),
(517,-34,o),
(527,-34,cs,{
name = hr01;
}),
(534,-34,o),
(535,-33,o),
(535,-31,cs),
(527,34,o),
(520,150,o),
(520,273,cs),
(520,417,o),
(530,544,o),
(566,636,c),
(481,677,l),
(455,661,l),
(443,584,o),
(436,509,o),
(436,432,cs),
(436,375,o),
(439,318,o),
(445,260,c),
(431,157,o),
(384,51,o),
(300,51,cs,{
name = hr02;
}),
(200,51,o),
(170,170,o),
(170,305,cs),
(170,431,o),
(197,570,o),
(218,636,c)
);
},
{
closed = 1;
nodes = (
(440,-30,o),
(407,-89,o),
(407,-131,cs),
(407,-184,o),
(437,-225,o),
(497,-225,cs),
(545,-225,o),
(597,-178,o),
(623,-114,c),
(619,-107,o),
(606,-100,o),
(597,-100,c),
(574,-141,o),
(547,-166,o),
(519,-166,cs),
(486,-166,o),
(469,-142,o),
(469,-109,cs),
(469,-75,o),
(487,-33,o),
(526,0,c),
(485,0,l,{
name = hr00;
})
);
}
);
};
layerId = master01;
shapes = (
{
ref = U;
},
{
pos = (311,0);
ref = ogonekcomb;
}
);
width = 611;
}
);
unicode = 370;
},
{
glyphname = Uring;
lastChange = "2023-02-16 14:05:20 +0000";
layers = (
{
background = {
shapes = (
{
closed = 1;
nodes = (
(133,677,l),
(107,661,l),
(95,589,o),
(80,469,o),
(80,349,cs),
(80,158,o),
(118,-33,o),
(267,-33,cs),
(373,-33,o),
(429,52,o),
(457,159,c),
(465,101,o),
(476,41,o),
(488,-19,c),
(496,-28,o),
(517,-34,o),
(527,-34,cs,{
name = hr01;
}),
(534,-34,o),
(535,-33,o),
(535,-31,cs),
(527,34,o),
(520,150,o),
(520,273,cs),
(520,417,o),
(530,544,o),
(566,636,c),
(481,677,l),
(455,661,l),
(443,584,o),
(436,509,o),
(436,432,cs),
(436,375,o),
(439,318,o),
(445,260,c),
(431,157,o),
(384,51,o),
(300,51,cs,{
name = hr02;
}),
(200,51,o),
(170,170,o),
(170,305,cs),
(170,431,o),
(197,570,o),
(218,636,c)
);
},
{
closed = 1;
nodes = (
(332,902,o),
(286,859,o),
(286,800,cs),
(286,743,o),
(324,718,o),
(370,718,cs),
(431,718,o),
(479,761,o),
(479,820,cs),
(479,877,o),
(440,902,o),
(395,902,cs,{
name = hr00;
})
);
},
{
closed = 1;
nodes = (
(405,851,o),
(419,840,o),
(419,815,cs),
(419,788,o),
(400,769,o),
(376,769,cs),
(360,769,o),
(346,780,o),
(346,805,cs),
(346,832,o),
(364,851,o),
(388,851,cs)
);
}
);
};
layerId = master01;
shapes = (
{
ref = U;
},
{
pos = (199,0);
ref = ringcomb.case;
}
);
width = 611;
}
);
unicode = 366;
},
{
glyphname = Utilde;
lastChange = "2023-02-16 14:05:20 +0000";
layers = (
{
background = {
shapes = (
{
closed = 1;
nodes = (
(133,677,l),
(107,661,l),
(95,589,o),
(80,469,o),
(80,349,cs),
(80,158,o),
(118,-33,o),
(267,-33,cs),
(373,-33,o),
(429,52,o),
(457,159,c),
(465,101,o),
(476,41,o),
(488,-19,c),
(496,-28,o),
(517,-34,o),
(527,-34,cs,{
name = hr01;
}),
(534,-34,o),
(535,-33,o),
(535,-31,cs),
(527,34,o),
(520,150,o),
(520,273,cs),
(520,417,o),
(530,544,o),
(566,636,c),
(481,677,l),
(455,661,l),
(443,584,o),
(436,509,o),
(436,432,cs),
(436,375,o),
(439,318,o),
(445,260,c),
(431,157,o),
(384,51,o),
(300,51,cs,{
name = hr02;
}),
(200,51,o),
(170,170,o),
(170,305,cs),
(170,431,o),
(197,570,o),
(218,636,c)
);
},
{
closed = 1;
nodes = (
(301,743,o),
(320,750,o),
(337,750,cs),
(363,750,o),
(386,733,o),
(430,733,cs,{
name = hr01;
}),
(472,733,o),
(511,762,o),
(539,827,c),
(539,835,o),
(528,848,o),
(513,848,c),
(494,820,o),
(470,804,o),
(439,804,cs),
(396,804,o),
(379,833,o),
(327,833,cs,{
name = hr02;
}),
(296,833,o),
(258,811,o),
(242,781,c),
(260,729,l),
(274,721,l)
);
}
);
};
layerId = master01;
shapes = (
{
ref = U;
},
{
pos = (135,0);
ref = tildecomb.case;
}
);
width = 611;
}
);
unicode = 360;
},
{
glyphname = V;
lastChange = "2023-02-16 13:47:52 +0000";
layers = (
{
anchors = (
{
name = bottom;
pos = (239,0);
},
{
name = top;
pos = (239,206);
}
);
background = {
shapes = (
{
closed = 1;
nodes = (
(321,20,l),
(378,440,o),
(493,648,o),
(493,672,cs),
(493,675,o),
(492,677,o),
(489,677,cs),
(477,677,o),
(452,669,o),
(440,658,c),
(352,506,o),
(259,210,o),
(231,40,c),
(173,211,o),
(134,377,o),
(134,560,cs),
(134,593,o),
(135,627,o),
(138,661,c),
(112,677,l),
(25,636,l),
(43,411,o),
(127,137,o),
(198,-9,c),
(209,-22,o),
(231,-28,o),
(242,-28,c,{
name = hr00;
})
);
}
);
};
layerId = master01;
shapes = (
{
closed = 1;
nodes = (
(321,20,l),
(378,440,o),
(493,648,o),
(493,672,cs),
(493,675,o),
(492,677,o),
(489,677,cs),
(477,677,o),
(452,669,o),
(440,658,c),
(352,506,o),
(259,210,o),
(231,40,c),
(173,211,o),
(134,377,o),
(134,560,cs),
(134,593,o),
(135,627,o),
(138,661,c),
(112,677,l),
(25,636,l),
(43,411,o),
(127,137,o),
(198,-9,c),
(209,-22,o),
(231,-28,o),
(242,-28,c,{
name = hr00;
})
);
}
);
width = 478;
}
);
unicode = 86;
},
{
glyphname = W;
lastChange = "2023-02-16 14:05:41 +0000";
layers = (
{
anchors = (
{
name = bottom;
pos = (402,0);
},
{
name = top;
pos = (462,206);
}
);
background = {
shapes = (
{
closed = 1;
nodes = (
(321,20,l),
(340,196,o),
(369,333,o),
(396,435,c),
(431,264,o),
(488,95,o),
(539,-9,c),
(550,-22,o),
(572,-28,o),
(583,-28,c),
(662,20,l),
(707,440,o),
(809,648,o),
(809,672,cs),
(809,675,o),
(808,677,o),
(805,677,cs),
(793,677,o),
(768,669,o),
(756,658,c),
(678,507,o),
(596,211,o),
(572,41,c),
(514,212,o),
(475,377,o),
(475,560,cs),
(475,593,o),
(476,627,o),
(479,661,c),
(453,677,l),
(366,636,l),
(367,611,o),
(370,585,o),
(374,559,c),
(310,401,o),
(251,181,o),
(231,41,c),
(173,212,o),
(134,377,o),
(134,560,cs),
(134,593,o),
(135,627,o),
(138,661,c),
(112,677,l),
(25,636,l),
(43,411,o),
(127,137,o),
(198,-9,c),
(209,-22,o),
(231,-28,o),
(242,-28,c,{
name = hr00;
})
);
}
);
};
layerId = master01;
shapes = (
{
closed = 1;
nodes = (
(321,20,l),
(340,196,o),
(369,333,o),
(396,435,c),
(431,264,o),
(488,95,o),
(539,-9,c),
(550,-22,o),
(572,-28,o),
(583,-28,c),
(662,20,l),
(707,440,o),
(809,648,o),
(809,672,cs),
(809,675,o),
(808,677,o),
(805,677,cs),
(793,677,o),
(768,669,o),
(756,658,c),
(678,507,o),
(596,211,o),
(572,41,c),
(514,212,o),
(475,377,o),
(475,560,cs),
(475,593,o),
(476,627,o),
(479,661,c),
(453,677,l),
(366,636,l),
(367,611,o),
(370,585,o),
(374,559,c),
(310,401,o),
(251,181,o),
(231,41,c),
(173,212,o),
(134,377,o),
(134,560,cs),
(134,593,o),
(135,627,o),
(138,661,c),
(112,677,l),
(25,636,l),
(43,411,o),
(127,137,o),
(198,-9,c),
(209,-22,o),
(231,-28,o),
(242,-28,c,{
name = hr00;
})
);
}
);
width = 804;
}
);
unicode = 87;
},
{
glyphname = Wacute;
lastChange = "2023-02-16 14:05:41 +0000";
layers = (
{
background = {
shapes = (
{
closed = 1;
nodes = (
(321,20,l),
(340,196,o),
(369,333,o),
(396,435,c),
(431,264,o),
(488,95,o),
(539,-9,c),
(550,-22,o),
(572,-28,o),
(583,-28,c),
(662,20,l),
(707,440,o),
(809,648,o),
(809,672,cs),
(809,675,o),
(808,677,o),
(805,677,cs),
(793,677,o),
(768,669,o),
(756,658,c),
(678,507,o),
(596,211,o),
(572,41,c),
(514,212,o),
(475,377,o),
(475,560,cs),
(475,593,o),
(476,627,o),
(479,661,c),
(453,677,l),
(366,636,l),
(367,611,o),
(370,585,o),
(374,559,c),
(310,401,o),
(251,181,o),
(231,41,c),
(173,212,o),
(134,377,o),
(134,560,cs),
(134,593,o),
(135,627,o),
(138,661,c),
(112,677,l),
(25,636,l),
(43,411,o),
(127,137,o),
(198,-9,c),
(209,-22,o),
(231,-28,o),
(242,-28,c,{
name = hr00;
})
);
},
{
closed = 1;
nodes = (
(547,894,l),
(508,841,o),
(446,778,o),
(356,737,c),
(356,722,o),
(380,700,o),
(389,699,c),
(463,722,o),
(515,746,o),
(575,797,c),
(563,884,l,{
name = hr00;
})
);
}
);
};
layerId = master01;
shapes = (
{
ref = W;
},
{
pos = (302,0);
ref = acutecomb.case;
}
);
width = 804;
}
);
unicode = 7810;
},
{
glyphname = Wcircumflex;
lastChange = "2023-02-16 14:05:41 +0000";
layers = (
{
background = {
shapes = (
{
closed = 1;
nodes = (
(321,20,l),
(340,196,o),
(369,333,o),
(396,435,c),
(431,264,o),
(488,95,o),
(539,-9,c),
(550,-22,o),
(572,-28,o),
(583,-28,c),
(662,20,l),
(707,440,o),
(809,648,o),
(809,672,cs),
(809,675,o),
(808,677,o),
(805,677,cs),
(793,677,o),
(768,669,o),
(756,658,c),
(678,507,o),
(596,211,o),
(572,41,c),
(514,212,o),
(475,377,o),
(475,560,cs),
(475,593,o),
(476,627,o),
(479,661,c),
(453,677,l),
(366,636,l),
(367,611,o),
(370,585,o),
(374,559,c),
(310,401,o),
(251,181,o),
(231,41,c),
(173,212,o),
(134,377,o),
(134,560,cs),
(134,593,o),
(135,627,o),
(138,661,c),
(112,677,l),
(25,636,l),
(43,411,o),
(127,137,o),
(198,-9,c),
(209,-22,o),
(231,-28,o),
(242,-28,c,{
name = hr00;
})
);
},
{
closed = 1;
nodes = (
(466,884,l),
(432,831,o),
(390,786,o),
(317,737,c),
(317,722,o),
(341,700,o),
(350,699,c),
(393,716,o),
(438,746,o),
(471,777,c),
(483,751,o),
(498,727,o),
(519,705,c),
(582,715,l),
(592,731,l),
(547,776,o),
(516,822,o),
(490,884,c,{
name = hr00;
})
);
}
);
};
layerId = master01;
shapes = (
{
ref = W;
},
{
pos = (274,0);
ref = circumflexcomb.case;
}
);
width = 804;
}
);
unicode = 372;
},
{
glyphname = Wdieresis;
lastChange = "2023-02-16 14:05:41 +0000";
layers = (
{
background = {
shapes = (
{
closed = 1;
nodes = (
(321,20,l),
(340,196,o),
(369,333,o),
(396,435,c),
(431,264,o),
(488,95,o),
(539,-9,c),
(550,-22,o),
(572,-28,o),
(583,-28,c),
(662,20,l),
(707,440,o),
(809,648,o),
(809,672,cs),
(809,675,o),
(808,677,o),
(805,677,cs),
(793,677,o),
(768,669,o),
(756,658,c),
(678,507,o),
(596,211,o),
(572,41,c),
(514,212,o),
(475,377,o),
(475,560,cs),
(475,593,o),
(476,627,o),
(479,661,c),
(453,677,l),
(366,636,l),
(367,611,o),
(370,585,o),
(374,559,c),
(310,401,o),
(251,181,o),
(231,41,c),
(173,212,o),
(134,377,o),
(134,560,cs),
(134,593,o),
(135,627,o),
(138,661,c),
(112,677,l),
(25,636,l),
(43,411,o),
(127,137,o),
(198,-9,c),
(209,-22,o),
(231,-28,o),
(242,-28,c,{
name = hr00;
})
);
},
{
closed = 1;
nodes = (
(308,817,o),
(337,843,o),
(393,851,c),
(414,834,o),
(422,810,o),
(422,790,cs),
(422,750,o),
(388,726,o),
(356,726,cs),
(324,726,o),
(308,755,o),
(308,779,cs,{
name = hr00;
})
);
},
{
closed = 1;
nodes = (
(495,817,o),
(524,843,o),
(580,851,c),
(601,834,o),
(609,810,o),
(609,790,cs),
(609,750,o),
(575,726,o),
(543,726,cs),
(511,726,o),
(495,755,o),
(495,779,cs)
);
}
);
};
layerId = master01;
shapes = (
{
ref = W;
},
{
pos = (261,0);
ref = dieresiscomb.case;
}
);
width = 804;
}
);
unicode = 7812;
},
{
glyphname = Wgrave;
lastChange = "2023-02-16 14:05:41 +0000";
layers = (
{
background = {
shapes = (
{
closed = 1;
nodes = (
(321,20,l),
(340,196,o),
(369,333,o),
(396,435,c),
(431,264,o),
(488,95,o),
(539,-9,c),
(550,-22,o),
(572,-28,o),
(583,-28,c),
(662,20,l),
(707,440,o),
(809,648,o),
(809,672,cs),
(809,675,o),
(808,677,o),
(805,677,cs),
(793,677,o),
(768,669,o),
(756,658,c),
(678,507,o),
(596,211,o),
(572,41,c),
(514,212,o),
(475,377,o),
(475,560,cs),
(475,593,o),
(476,627,o),
(479,661,c),
(453,677,l),
(366,636,l),
(367,611,o),
(370,585,o),
(374,559,c),
(310,401,o),
(251,181,o),
(231,41,c),
(173,212,o),
(134,377,o),
(134,560,cs),
(134,593,o),
(135,627,o),
(138,661,c),
(112,677,l),
(25,636,l),
(43,411,o),
(127,137,o),
(198,-9,c),
(209,-22,o),
(231,-28,o),
(242,-28,c,{
name = hr00;
})
);
},
{
closed = 1;
nodes = (
(386,894,l),
(425,841,o),
(487,778,o),
(577,737,c),
(577,722,o),
(553,700,o),
(544,699,c),
(470,722,o),
(418,746,o),
(358,797,c),
(370,884,l,{
name = hr00;
})
);
}
);
};
layerId = master01;
shapes = (
{
ref = W;
},
{
pos = (302,0);
ref = gravecomb.case;
}
);
width = 804;
}
);
unicode = 7808;
},
{
glyphname = X;
lastChange = "2023-02-16 13:47:52 +0000";
layers = (
{
anchors = (
{
name = bottom;
pos = (255,0);
},
{
name = top;
pos = (255,206);
}
);
background = {
shapes = (
{
closed = 1;
nodes = (
(112,62,o),
(170,150,o),
(232,241,c),
(292,139,o),
(360,48,o),
(424,-20,cs),
(429,-26,o),
(441,-33,o),
(471,-33,cs),
(475,-33,o),
(481,-30,o),
(481,-24,c),
(413,84,o),
(342,201,o),
(286,318,c),
(360,423,o),
(440,530,o),
(529,640,c),
(500,663,l),
(413,643,l),
(358,565,o),
(304,484,o),
(250,399,c),
(218,476,o),
(195,553,o),
(186,625,c),
(101,668,l),
(75,650,l),
(94,536,o),
(138,418,o),
(195,310,c),
(132,208,o),
(72,101,o),
(15,-8,c),
(22,-20,o),
(39,-28,o),
(48,-28,cs,{
name = hr01;
}),
(54,-28,o),
(58,-26,o),
(59,-24,cs)
);
}
);
};
layerId = master01;
shapes = (
{
closed = 1;
nodes = (
(475,-33,o),
(481,-30,o),
(481,-24,c),
(413,84,o),
(342,201,o),
(286,318,c),
(360,423,o),
(440,530,o),
(529,640,c),
(500,663,l),
(413,643,l),
(358,565,o),
(304,484,o),
(250,399,c),
(218,476,o),
(195,553,o),
(186,625,c),
(101,668,l),
(75,650,l),
(94,536,o),
(138,418,o),
(195,310,c),
(132,208,o),
(72,101,o),
(15,-8,c),
(22,-20,o),
(39,-28,o),
(48,-28,cs,{
name = hr01;
}),
(54,-28,o),
(58,-26,o),
(59,-24,cs),
(112,62,o),
(170,150,o),
(232,241,c),
(292,139,o),
(360,48,o),
(424,-20,cs),
(429,-26,o),
(441,-33,o),
(471,-33,cs)
);
}
);
width = 509;
}
);
unicode = 88;
},
{
glyphname = Y;
lastChange = "2023-02-16 14:05:59 +0000";
layers = (
{
anchors = (
{
name = bottom;
pos = (221,0);
},
{
name = top;
pos = (291,206);
},
{
name = topleft;
pos = (20,206);
}
);
background = {
shapes = (
{
closed = 1;
nodes = (
(55,636,l),
(68,528,o),
(130,343,o),
(190,216,c),
(191,137,o),
(199,54,o),
(213,-19,c),
(220,-28,o),
(248,-34,o),
(258,-34,cs),
(265,-34,o),
(266,-33,o),
(266,-31,cs),
(266,-25,o),
(262,-3,o),
(262,87,cs),
(262,135,o),
(264,179,o),
(268,218,c),
(318,415,o),
(491,658,o),
(491,674,cs),
(491,676,o),
(488,679,o),
(485,679,cs),
(473,679,o),
(449,673,o),
(442,665,cs),
(360,563,o),
(235,347,o),
(219,312,c),
(186,419,o),
(168,540,o),
(168,661,c),
(142,677,l,{
name = hr00;
})
);
}
);
};
layerId = master01;
shapes = (
{
closed = 1;
nodes = (
(265,-34,o),
(266,-33,o),
(266,-31,cs),
(266,-25,o),
(262,-3,o),
(262,87,cs),
(262,135,o),
(264,179,o),
(268,218,c),
(318,415,o),
(491,658,o),
(491,674,cs),
(491,676,o),
(488,679,o),
(485,679,cs),
(473,679,o),
(449,673,o),
(442,665,cs),
(360,563,o),
(235,347,o),
(219,312,c),
(186,419,o),
(168,540,o),
(168,661,c),
(142,677,l,{
name = hr00;
}),
(55,636,l),
(68,528,o),
(130,343,o),
(190,216,c),
(191,137,o),
(199,54,o),
(213,-19,c),
(220,-28,o),
(248,-34,o),
(258,-34,cs)
);
}
);
width = 441;
}
);
unicode = 89;
},
{
glyphname = Yacute;
lastChange = "2023-02-16 14:05:59 +0000";
layers = (
{
background = {
shapes = (
{
closed = 1;
nodes = (
(25,636,l),
(38,528,o),
(100,343,o),
(160,216,c),
(161,137,o),
(169,54,o),
(183,-19,c),
(190,-28,o),
(218,-34,o),
(228,-34,cs),
(235,-34,o),
(236,-33,o),
(236,-31,cs),
(236,-25,o),
(232,-3,o),
(232,87,cs),
(232,135,o),
(234,179,o),
(238,218,c),
(288,415,o),
(461,658,o),
(461,674,cs),
(461,676,o),
(458,679,o),
(455,679,cs),
(443,679,o),
(419,673,o),
(412,665,cs),
(330,563,o),
(205,347,o),
(189,312,c),
(156,419,o),
(138,540,o),
(138,661,c),
(112,677,l,{
name = hr00;
})
);
},
{
closed = 1;
nodes = (
(342,894,l),
(303,841,o),
(241,778,o),
(151,737,c),
(151,722,o),
(175,700,o),
(184,699,c),
(258,722,o),
(310,746,o),
(370,797,c),
(358,884,l,{
name = hr00;
})
);
}
);
};
layerId = master01;
shapes = (
{
ref = Y;
},
{
pos = (131,0);
ref = acutecomb.case;
}
);
width = 441;
}
);
unicode = 221;
},
{
glyphname = Ycircumflex;
lastChange = "2023-02-16 14:05:59 +0000";
layers = (
{
background = {
shapes = (
{
closed = 1;
nodes = (
(55,636,l),
(68,528,o),
(130,343,o),
(190,216,c),
(191,137,o),
(199,54,o),
(213,-19,c),
(220,-28,o),
(248,-34,o),
(258,-34,cs),
(265,-34,o),
(266,-33,o),
(266,-31,cs),
(266,-25,o),
(262,-3,o),
(262,87,cs),
(262,135,o),
(264,179,o),
(268,218,c),
(318,415,o),
(491,658,o),
(491,674,cs),
(491,676,o),
(488,679,o),
(485,679,cs),
(473,679,o),
(449,673,o),
(442,665,cs),
(360,563,o),
(235,347,o),
(219,312,c),
(186,419,o),
(168,540,o),
(168,661,c),
(142,677,l,{
name = hr00;
})
);
},
{
closed = 1;
nodes = (
(305,884,l),
(271,831,o),
(229,786,o),
(156,737,c),
(156,722,o),
(180,700,o),
(189,699,c),
(232,716,o),
(277,746,o),
(310,777,c),
(322,751,o),
(337,727,o),
(358,705,c),
(421,715,l),
(431,731,l),
(386,776,o),
(355,822,o),
(329,884,c,{
name = hr00;
})
);
}
);
};
layerId = master01;
shapes = (
{
ref = Y;
},
{
pos = (103,0);
ref = circumflexcomb.case;
}
);
width = 441;
}
);
unicode = 374;
},
{
glyphname = Ydieresis;
lastChange = "2023-02-16 14:05:59 +0000";
layers = (
{
background = {
shapes = (
{
closed = 1;
nodes = (
(25,636,l),
(38,528,o),
(100,343,o),
(160,216,c),
(161,137,o),
(169,54,o),
(183,-19,c),
(190,-28,o),
(218,-34,o),
(228,-34,cs),
(235,-34,o),
(236,-33,o),
(236,-31,cs),
(236,-25,o),
(232,-3,o),
(232,87,cs),
(232,135,o),
(234,179,o),
(238,218,c),
(288,415,o),
(461,658,o),
(461,674,cs),
(461,676,o),
(458,679,o),
(455,679,cs),
(443,679,o),
(419,673,o),
(412,665,cs),
(330,563,o),
(205,347,o),
(189,312,c),
(156,419,o),
(138,540,o),
(138,661,c),
(112,677,l,{
name = hr00;
})
);
},
{
closed = 1;
nodes = (
(117,817,o),
(146,843,o),
(202,851,c),
(223,834,o),
(231,810,o),
(231,790,cs),
(231,750,o),
(197,726,o),
(165,726,cs),
(133,726,o),
(117,755,o),
(117,779,cs,{
name = hr00;
})
);
},
{
closed = 1;
nodes = (
(304,817,o),
(333,843,o),
(389,851,c),
(410,834,o),
(418,810,o),
(418,790,cs),
(418,750,o),
(384,726,o),
(352,726,cs),
(320,726,o),
(304,755,o),
(304,779,cs)
);
}
);
};
layerId = master01;
shapes = (
{
ref = Y;
},
{
pos = (90,0);
ref = dieresiscomb.case;
}
);
width = 441;
}
);
unicode = 376;
},
{
glyphname = Ygrave;
lastChange = "2023-02-16 14:05:59 +0000";
layers = (
{
background = {
shapes = (
{
closed = 1;
nodes = (
(55,636,l),
(68,528,o),
(130,343,o),
(190,216,c),
(191,137,o),
(199,54,o),
(213,-19,c),
(220,-28,o),
(248,-34,o),
(258,-34,cs),
(265,-34,o),
(266,-33,o),
(266,-31,cs),
(266,-25,o),
(262,-3,o),
(262,87,cs),
(262,135,o),
(264,179,o),
(268,218,c),
(318,415,o),
(491,658,o),
(491,674,cs),
(491,676,o),
(488,679,o),
(485,679,cs),
(473,679,o),
(449,673,o),
(442,665,cs),
(360,563,o),
(235,347,o),
(219,312,c),
(186,419,o),
(168,540,o),
(168,661,c),
(142,677,l,{
name = hr00;
})
);
},
{
closed = 1;
nodes = (
(185,894,l),
(224,841,o),
(286,778,o),
(376,737,c),
(376,722,o),
(352,700,o),
(343,699,c),
(269,722,o),
(217,746,o),
(157,797,c),
(169,884,l,{
name = hr00;
})
);
}
);
};
layerId = master01;
shapes = (
{
ref = Y;
},
{
pos = (131,0);
ref = gravecomb.case;
}
);
width = 441;
}
);
unicode = 7922;
},
{
glyphname = Z;
lastChange = "2023-02-16 14:06:16 +0000";
layers = (
{
anchors = (
{
name = bottom;
pos = (240,0);
},
{
name = center;
pos = (240,103);
},
{
name = top;
pos = (291,206);
}
);
background = {
shapes = (
{
closed = 1;
nodes = (
(357,629,l),
(333,627,o),
(308,626,o),
(282,626,cs),
(200,626,o),
(111,631,o),
(46,660,c),
(31,633,l),
(72,550,l),
(106,545,o),
(141,543,o),
(174,543,cs),
(229,543,o),
(283,549,o),
(337,561,c),
(290,372,o),
(142,169,o),
(7,13,cs),
(0,6,l),
(19,-24,l),
(91,-13,o),
(158,-8,o),
(230,-8,cs),
(297,-8,o),
(381,-13,o),
(459,-30,c),
(460,-30,o),
(461,-28,o),
(461,-21,cs),
(461,-10,o),
(456,20,o),
(449,29,c),
(368,56,o),
(247,67,o),
(131,78,c),
(265,227,o),
(423,431,o),
(460,650,c),
(434,668,l,{
name = hr00;
})
);
}
);
};
layerId = master01;
shapes = (
{
closed = 1;
nodes = (
(460,-30,o),
(461,-28,o),
(461,-21,cs),
(461,-10,o),
(456,20,o),
(449,29,c),
(368,56,o),
(247,67,o),
(131,78,c),
(265,227,o),
(423,431,o),
(460,650,c),
(434,668,l,{
name = hr00;
}),
(357,629,l),
(333,627,o),
(308,626,o),
(282,626,cs),
(200,626,o),
(111,631,o),
(46,660,c),
(31,633,l),
(72,550,l),
(106,545,o),
(141,543,o),
(174,543,cs),
(229,543,o),
(283,549,o),
(337,561,c),
(290,372,o),
(142,169,o),
(7,13,c),
(0,6,l),
(19,-24,l),
(91,-13,o),
(158,-8,o),
(230,-8,cs),
(297,-8,o),
(381,-13,o),
(459,-30,c)
);
}
);
width = 480;
}
);
unicode = 90;
},
{
glyphname = Zacute;
lastChange = "2023-02-16 14:06:16 +0000";
layers = (
{
background = {
shapes = (
{
closed = 1;
nodes = (
(357,629,l),
(333,627,o),
(308,626,o),
(282,626,cs),
(200,626,o),
(111,631,o),
(46,660,c),
(31,633,l),
(72,550,l),
(106,545,o),
(141,543,o),
(174,543,cs),
(229,543,o),
(283,549,o),
(337,561,c),
(290,372,o),
(142,169,o),
(7,13,cs),
(0,6,l),
(19,-24,l),
(91,-13,o),
(158,-8,o),
(230,-8,cs),
(297,-8,o),
(381,-13,o),
(459,-30,c),
(460,-30,o),
(461,-28,o),
(461,-21,cs),
(461,-10,o),
(456,20,o),
(449,29,c),
(368,56,o),
(247,67,o),
(131,78,c),
(265,227,o),
(423,431,o),
(460,650,c),
(434,668,l,{
name = hr00;
})
);
},
{
closed = 1;
nodes = (
(374,894,l),
(335,841,o),
(273,778,o),
(183,737,c),
(183,722,o),
(207,700,o),
(216,699,c),
(290,722,o),
(342,746,o),
(402,797,c),
(390,884,l,{
name = hr00;
})
);
}
);
};
layerId = master01;
shapes = (
{
ref = Z;
},
{
pos = (131,0);
ref = acutecomb.case;
}
);
width = 480;
}
);
unicode = 377;
},
{
glyphname = Zcaron;
lastChange = "2023-02-16 14:06:16 +0000";
layers = (
{
background = {
shapes = (
{
closed = 1;
nodes = (
(357,629,l),
(333,627,o),
(308,626,o),
(282,626,cs),
(200,626,o),
(111,631,o),
(46,660,c),
(31,633,l),
(72,550,l),
(106,545,o),
(141,543,o),
(174,543,cs),
(229,543,o),
(283,549,o),
(337,561,c),
(290,372,o),
(142,169,o),
(7,13,cs),
(0,6,l),
(19,-24,l),
(91,-13,o),
(158,-8,o),
(230,-8,cs),
(297,-8,o),
(381,-13,o),
(459,-30,c),
(460,-30,o),
(461,-28,o),
(461,-21,cs),
(461,-10,o),
(456,20,o),
(449,29,c),
(368,56,o),
(247,67,o),
(131,78,c),
(265,227,o),
(423,431,o),
(460,650,c),
(434,668,l,{
name = hr00;
})
);
},
{
closed = 1;
nodes = (
(273,709,l),
(307,762,o),
(349,807,o),
(422,856,c),
(422,871,o),
(398,893,o),
(389,894,c),
(346,876,o),
(300,846,o),
(268,816,c),
(256,842,o),
(240,866,o),
(220,888,c),
(157,878,l),
(147,862,l),
(192,817,o),
(223,771,o),
(249,709,c,{
name = hr00;
})
);
}
);
};
layerId = master01;
shapes = (
{
ref = Z;
},
{
pos = (103,0);
ref = caroncomb.case;
}
);
width = 480;
}
);
unicode = 381;
},
{
glyphname = Zdotaccent;
lastChange = "2023-02-16 14:06:16 +0000";
layers = (
{
background = {
shapes = (
{
closed = 1;
nodes = (
(357,629,l),
(333,627,o),
(308,626,o),
(282,626,cs),
(200,626,o),
(111,631,o),
(46,660,c),
(31,633,l),
(72,550,l),
(106,545,o),
(141,543,o),
(174,543,cs),
(229,543,o),
(283,549,o),
(337,561,c),
(290,372,o),
(142,169,o),
(7,13,cs),
(0,6,l),
(19,-24,l),
(91,-13,o),
(158,-8,o),
(230,-8,cs),
(297,-8,o),
(381,-13,o),
(459,-30,c),
(460,-30,o),
(461,-28,o),
(461,-21,cs),
(461,-10,o),
(456,20,o),
(449,29,c),
(368,56,o),
(247,67,o),
(131,78,c),
(265,227,o),
(423,431,o),
(460,650,c),
(434,668,l,{
name = hr00;
})
);
},
{
closed = 1;
nodes = (
(204,821,o),
(240,854,o),
(307,863,c),
(333,842,o),
(342,813,o),
(342,789,cs),
(342,741,o),
(301,712,o),
(263,712,cs),
(224,712,o),
(204,747,o),
(204,777,cs,{
name = hr00;
})
);
}
);
};
layerId = master01;
shapes = (
{
ref = Z;
},
{
pos = (172,0);
ref = dotaccentcomb.case;
}
);
width = 480;
}
);
unicode = 379;
},
{
glyphname = a;
lastChange = "2023-02-16 13:47:52 +0000";
layers = (
{
anchors = (
{
name = bottom;
pos = (235,0);
},
{
name = ogonek;
pos = (423,10);
},
{
name = top;
pos = (235,153);
}
);
background = {
shapes = (
{
closed = 1;
nodes = (
(182,398,o),
(24,273,o),
(24,91,cs),
(24,25,o),
(50,-22,o),
(110,-22,cs),
(179,-22,o),
(264,71,o),
(320,204,c),
(330,127,o),
(347,41,o),
(371,-14,c),
(379,-22,o),
(399,-28,o),
(408,-28,cs,{
name = hr01;
}),
(414,-28,o),
(415,-27,o),
(415,-25,cs),
(404,20,o),
(389,184,o),
(389,255,cs),
(389,330,o),
(402,420,o),
(422,479,c),
(398,493,l),
(317,458,ls)
);
},
{
closed = 1;
nodes = (
(129,98,o),
(118,129,o),
(118,172,cs),
(118,284,o),
(218,356,o),
(310,408,c),
(309,389,o),
(309,366,o),
(309,333,cs),
(309,322,o),
(309,309,o),
(310,295,c),
(267,163,o),
(208,98,o),
(168,98,cs,{
name = hr02;
})
);
}
);
};
layerId = master01;
shapes = (
{
closed = 1;
nodes = (
(414,-28,o),
(415,-27,o),
(415,-25,cs),
(404,20,o),
(389,184,o),
(389,255,cs),
(389,330,o),
(402,420,o),
(422,479,c),
(398,493,l),
(317,458,ls),
(182,398,o),
(24,273,o),
(24,91,cs),
(24,25,o),
(50,-22,o),
(110,-22,cs),
(179,-22,o),
(264,71,o),
(320,204,c),
(330,127,o),
(347,41,o),
(371,-14,c),
(379,-22,o),
(399,-28,o),
(408,-28,cs,{
name = hr01;
})
);
},
{
closed = 1;
nodes = (
(129,98,o),
(118,129,o),
(118,172,cs),
(118,284,o),
(218,356,o),
(310,408,c),
(309,389,o),
(309,366,o),
(309,333,cs),
(309,322,o),
(309,309,o),
(310,295,c),
(267,163,o),
(208,98,o),
(168,98,cs,{
name = hr02;
})
);
}
);
width = 470;
}
);
unicode = 97;
},
{
glyphname = aacute;
lastChange = "2023-02-16 13:47:57 +0000";
layers = (
{
background = {
shapes = (
{
closed = 1;
nodes = (
(182,398,o),
(24,273,o),
(24,91,cs),
(24,25,o),
(50,-22,o),
(110,-22,cs),
(179,-22,o),
(264,71,o),
(320,204,c),
(330,127,o),
(347,41,o),
(371,-14,c),
(379,-22,o),
(399,-28,o),
(408,-28,cs,{
name = hr01;
}),
(414,-28,o),
(415,-27,o),
(415,-25,cs),
(404,20,o),
(389,184,o),
(389,255,cs),
(389,330,o),
(402,420,o),
(422,479,c),
(398,493,l),
(317,458,ls)
);
},
{
closed = 1;
nodes = (
(129,98,o),
(118,129,o),
(118,172,cs),
(118,284,o),
(218,356,o),
(310,408,c),
(309,389,o),
(309,366,o),
(309,333,cs),
(309,322,o),
(309,309,o),
(310,295,c),
(267,163,o),
(208,98,o),
(168,98,cs,{
name = hr02;
})
);
},
{
closed = 1;
nodes = (
(356,717,l),
(317,664,o),
(255,601,o),
(165,560,c),
(165,545,o),
(189,523,o),
(198,522,c),
(272,545,o),
(324,569,o),
(384,620,c),
(372,707,l,{
name = hr00;
})
);
}
);
};
layerId = master01;
shapes = (
{
ref = a;
},
{
pos = (75,0);
ref = acutecomb;
}
);
width = 470;
}
);
unicode = 225;
},
{
glyphname = abreve;
lastChange = "2023-02-16 13:47:57 +0000";
layers = (
{
background = {
shapes = (
{
closed = 1;
nodes = (
(182,398,o),
(24,273,o),
(24,91,cs),
(24,25,o),
(50,-22,o),
(110,-22,cs),
(179,-22,o),
(264,71,o),
(320,204,c),
(330,127,o),
(347,41,o),
(371,-14,c),
(379,-22,o),
(399,-28,o),
(408,-28,cs,{
name = hr01;
}),
(414,-28,o),
(415,-27,o),
(415,-25,cs),
(404,20,o),
(389,184,o),
(389,255,cs),
(389,330,o),
(402,420,o),
(422,479,c),
(398,493,l),
(317,458,ls)
);
},
{
closed = 1;
nodes = (
(129,98,o),
(118,129,o),
(118,172,cs),
(118,284,o),
(218,356,o),
(310,408,c),
(309,389,o),
(309,366,o),
(309,333,cs),
(309,322,o),
(309,309,o),
(310,295,c),
(267,163,o),
(208,98,o),
(168,98,cs,{
name = hr02;
})
);
},
{
closed = 1;
nodes = (
(405,592,o),
(286,581,o),
(286,663,c),
(271,673,l),
(220,646,l),
(220,578,o),
(268,548,o),
(329,548,cs),
(410,548,o),
(471,610,o),
(471,681,cs),
(457,691,l),
(405,664,l,{
name = hr00;
})
);
}
);
};
layerId = master01;
shapes = (
{
ref = a;
},
{
pos = (58,0);
ref = brevecomb;
}
);
width = 470;
}
);
unicode = 259;
},
{
glyphname = acircumflex;
lastChange = "2023-02-16 13:47:57 +0000";
layers = (
{
background = {
shapes = (
{
closed = 1;
nodes = (
(182,398,o),
(24,273,o),
(24,91,cs),
(24,25,o),
(50,-22,o),
(110,-22,cs),
(179,-22,o),
(264,71,o),
(320,204,c),
(330,127,o),
(347,41,o),
(371,-14,c),
(379,-22,o),
(399,-28,o),
(408,-28,cs,{
name = hr01;
}),
(414,-28,o),
(415,-27,o),
(415,-25,cs),
(404,20,o),
(389,184,o),
(389,255,cs),
(389,330,o),
(402,420,o),
(422,479,c),
(398,493,l),
(317,458,ls)
);
},
{
closed = 1;
nodes = (
(129,98,o),
(118,129,o),
(118,172,cs),
(118,284,o),
(218,356,o),
(310,408,c),
(309,389,o),
(309,366,o),
(309,333,cs),
(309,322,o),
(309,309,o),
(310,295,c),
(267,163,o),
(208,98,o),
(168,98,cs,{
name = hr02;
})
);
},
{
closed = 1;
nodes = (
(290,707,l),
(256,654,o),
(214,609,o),
(141,560,c),
(141,545,o),
(165,523,o),
(174,522,c),
(217,539,o),
(262,569,o),
(295,600,c),
(307,574,o),
(322,550,o),
(343,528,c),
(406,538,l),
(416,554,l),
(371,599,o),
(340,645,o),
(314,707,c,{
name = hr00;
})
);
}
);
};
layerId = master01;
shapes = (
{
ref = a;
},
{
pos = (47,0);
ref = circumflexcomb;
}
);
width = 470;
}
);
unicode = 226;
},
{
glyphname = adieresis;
lastChange = "2023-02-16 13:47:57 +0000";
layers = (
{
background = {
shapes = (
{
closed = 1;
nodes = (
(182,398,o),
(24,273,o),
(24,91,cs),
(24,25,o),
(50,-22,o),
(110,-22,cs),
(179,-22,o),
(264,71,o),
(320,204,c),
(330,127,o),
(347,41,o),
(371,-14,c),
(379,-22,o),
(399,-28,o),
(408,-28,cs,{
name = hr01;
}),
(414,-28,o),
(415,-27,o),
(415,-25,cs),
(404,20,o),
(389,184,o),
(389,255,cs),
(389,330,o),
(402,420,o),
(422,479,c),
(398,493,l),
(317,458,ls)
);
},
{
closed = 1;
nodes = (
(129,98,o),
(118,129,o),
(118,172,cs),
(118,284,o),
(218,356,o),
(310,408,c),
(309,389,o),
(309,366,o),
(309,333,cs),
(309,322,o),
(309,309,o),
(310,295,c),
(267,163,o),
(208,98,o),
(168,98,cs,{
name = hr02;
})
);
},
{
closed = 1;
nodes = (
(128,640,o),
(157,666,o),
(213,674,c),
(234,657,o),
(242,633,o),
(242,613,cs),
(242,573,o),
(208,549,o),
(176,549,cs),
(144,549,o),
(128,578,o),
(128,602,cs,{
name = hr00;
})
);
},
{
closed = 1;
nodes = (
(315,640,o),
(344,666,o),
(400,674,c),
(421,657,o),
(429,633,o),
(429,613,cs),
(429,573,o),
(395,549,o),
(363,549,cs),
(331,549,o),
(315,578,o),
(315,602,cs)
);
}
);
};
layerId = master01;
shapes = (
{
ref = a;
},
{
pos = (34,0);
ref = dieresiscomb;
}
);
width = 470;
}
);
unicode = 228;
},
{
glyphname = agrave;
lastChange = "2023-02-16 13:47:57 +0000";
layers = (
{
background = {
shapes = (
{
closed = 1;
nodes = (
(182,398,o),
(24,273,o),
(24,91,cs),
(24,25,o),
(50,-22,o),
(110,-22,cs),
(179,-22,o),
(264,71,o),
(320,204,c),
(330,127,o),
(347,41,o),
(371,-14,c),
(379,-22,o),
(399,-28,o),
(408,-28,cs,{
name = hr01;
}),
(414,-28,o),
(415,-27,o),
(415,-25,cs),
(404,20,o),
(389,184,o),
(389,255,cs),
(389,330,o),
(402,420,o),
(422,479,c),
(398,493,l),
(317,458,ls)
);
},
{
closed = 1;
nodes = (
(129,98,o),
(118,129,o),
(118,172,cs),
(118,284,o),
(218,356,o),
(310,408,c),
(309,389,o),
(309,366,o),
(309,333,cs),
(309,322,o),
(309,309,o),
(310,295,c),
(267,163,o),
(208,98,o),
(168,98,cs,{
name = hr02;
})
);
},
{
closed = 1;
nodes = (
(226,717,l),
(265,664,o),
(327,601,o),
(417,560,c),
(417,545,o),
(393,523,o),
(384,522,c),
(310,545,o),
(258,569,o),
(198,620,c),
(210,707,l,{
name = hr00;
})
);
}
);
};
layerId = master01;
shapes = (
{
ref = a;
},
{
pos = (75,0);
ref = gravecomb;
}
);
width = 470;
}
);
unicode = 224;
},
{
glyphname = amacron;
lastChange = "2023-02-16 13:47:57 +0000";
layers = (
{
background = {
shapes = (
{
closed = 1;
nodes = (
(182,398,o),
(24,273,o),
(24,91,cs),
(24,25,o),
(50,-22,o),
(110,-22,cs),
(179,-22,o),
(264,71,o),
(320,204,c),
(330,127,o),
(347,41,o),
(371,-14,c),
(379,-22,o),
(399,-28,o),
(408,-28,cs,{
name = hr01;
}),
(414,-28,o),
(415,-27,o),
(415,-25,cs),
(404,20,o),
(389,184,o),
(389,255,cs),
(389,330,o),
(402,420,o),
(422,479,c),
(398,493,l),
(317,458,ls)
);
},
{
closed = 1;
nodes = (
(129,98,o),
(118,129,o),
(118,172,cs),
(118,284,o),
(218,356,o),
(310,408,c),
(309,389,o),
(309,366,o),
(309,333,cs),
(309,322,o),
(309,309,o),
(310,295,c),
(267,163,o),
(208,98,o),
(168,98,cs,{
name = hr02;
})
);
},
{
closed = 1;
nodes = (
(466,667,l),
(434,646,o),
(391,628,o),
(317,628,cs),
(265,628,o),
(241,636,o),
(237,636,cs),
(234,636,o),
(232,633,o),
(232,630,cs),
(232,619,o),
(241,588,o),
(249,582,c),
(285,570,o),
(323,565,o),
(360,565,cs),
(392,565,o),
(423,569,o),
(455,576,c),
(479,648,l,{
name = hr00;
})
);
}
);
};
layerId = master01;
shapes = (
{
ref = a;
},
{
pos = (71,0);
ref = macroncomb;
}
);
width = 470;
}
);
unicode = 257;
},
{
glyphname = aogonek;
lastChange = "2023-02-16 13:47:57 +0000";
layers = (
{
background = {
shapes = (
{
closed = 1;
nodes = (
(182,398,o),
(24,273,o),
(24,91,cs),
(24,25,o),
(50,-22,o),
(110,-22,cs),
(179,-22,o),
(264,71,o),
(320,204,c),
(330,127,o),
(347,41,o),
(371,-14,c),
(379,-22,o),
(399,-28,o),
(408,-28,cs,{
name = hr01;
}),
(414,-28,o),
(415,-27,o),
(415,-25,cs),
(404,20,o),
(389,184,o),
(389,255,cs),
(389,330,o),
(402,420,o),
(422,479,c),
(398,493,l),
(317,458,ls)
);
},
{
closed = 1;
nodes = (
(129,98,o),
(118,129,o),
(118,172,cs),
(118,284,o),
(218,356,o),
(310,408,c),
(309,389,o),
(309,366,o),
(309,333,cs),
(309,322,o),
(309,309,o),
(310,295,c),
(267,163,o),
(208,98,o),
(168,98,cs,{
name = hr02;
})
);
},
{
closed = 1;
nodes = (
(323,-30,o),
(290,-89,o),
(290,-131,cs),
(290,-184,o),
(320,-225,o),
(380,-225,cs),
(428,-225,o),
(480,-178,o),
(506,-114,c),
(502,-107,o),
(489,-100,o),
(480,-100,c),
(457,-141,o),
(430,-166,o),
(402,-166,cs),
(369,-166,o),
(352,-142,o),
(352,-109,cs),
(352,-75,o),
(370,-33,o),
(409,0,c),
(368,0,l,{
name = hr00;
})
);
}
);
};
layerId = master01;
shapes = (
{
ref = a;
},
{
pos = (111,10);
ref = ogonekcomb;
}
);
width = 470;
}
);
unicode = 261;
},
{
glyphname = aring;
lastChange = "2023-02-16 13:47:57 +0000";
layers = (
{
background = {
shapes = (
{
closed = 1;
nodes = (
(182,398,o),
(24,273,o),
(24,91,cs),
(24,25,o),
(50,-22,o),
(110,-22,cs),
(179,-22,o),
(264,71,o),
(320,204,c),
(330,127,o),
(347,41,o),
(371,-14,c),
(379,-22,o),
(399,-28,o),
(408,-28,cs,{
name = hr01;
}),
(414,-28,o),
(415,-27,o),
(415,-25,cs),
(404,20,o),
(389,184,o),
(389,255,cs),
(389,330,o),
(402,420,o),
(422,479,c),
(398,493,l),
(317,458,ls)
);
},
{
closed = 1;
nodes = (
(129,98,o),
(118,129,o),
(118,172,cs),
(118,284,o),
(218,356,o),
(310,408,c),
(309,389,o),
(309,366,o),
(309,333,cs),
(309,322,o),
(309,309,o),
(310,295,c),
(267,163,o),
(208,98,o),
(168,98,cs,{
name = hr02;
})
);
},
{
closed = 1;
nodes = (
(260,705,o),
(214,662,o),
(214,603,cs),
(214,546,o),
(252,521,o),
(298,521,cs),
(359,521,o),
(407,564,o),
(407,623,cs),
(407,680,o),
(368,705,o),
(323,705,cs,{
name = hr00;
})
);
},
{
closed = 1;
nodes = (
(333,654,o),
(347,643,o),
(347,618,cs),
(347,591,o),
(328,572,o),
(304,572,cs),
(288,572,o),
(274,583,o),
(274,608,cs),
(274,635,o),
(292,654,o),
(316,654,cs)
);
}
);
};
layerId = master01;
shapes = (
{
ref = a;
},
{
pos = (88,0);
ref = ringcomb;
}
);
width = 470;
}
);
unicode = 229;
},
{
glyphname = aringacute;
lastChange = "2023-02-16 13:47:57 +0000";
layers = (
{
background = {
shapes = (
{
closed = 1;
nodes = (
(182,398,o),
(24,273,o),
(24,91,cs),
(24,25,o),
(50,-22,o),
(110,-22,cs),
(179,-22,o),
(264,71,o),
(320,204,c),
(330,127,o),
(347,41,o),
(371,-14,c),
(379,-22,o),
(399,-28,o),
(408,-28,cs,{
name = hr01;
}),
(414,-28,o),
(415,-27,o),
(415,-25,cs),
(404,20,o),
(389,184,o),
(389,255,cs),
(389,330,o),
(402,420,o),
(422,479,c),
(398,493,l),
(317,458,ls)
);
},
{
closed = 1;
nodes = (
(129,98,o),
(118,129,o),
(118,172,cs),
(118,284,o),
(218,356,o),
(310,408,c),
(309,389,o),
(309,366,o),
(309,333,cs),
(309,322,o),
(309,309,o),
(310,295,c),
(267,163,o),
(208,98,o),
(168,98,cs,{
name = hr02;
})
);
},
{
closed = 1;
nodes = (
(260,705,o),
(214,662,o),
(214,603,cs),
(214,546,o),
(252,521,o),
(298,521,cs),
(359,521,o),
(407,564,o),
(407,623,cs),
(407,680,o),
(368,705,o),
(323,705,cs,{
name = hr00;
})
);
},
{
closed = 1;
nodes = (
(333,654,o),
(347,643,o),
(347,618,cs),
(347,591,o),
(328,572,o),
(304,572,cs),
(288,572,o),
(274,583,o),
(274,608,cs),
(274,635,o),
(292,654,o),
(316,654,cs)
);
},
{
closed = 1;
nodes = (
(401,660,o),
(435,679,o),
(474,712,c),
(464,787,l),
(450,796,l),
(423,760,o),
(384,719,o),
(331,685,c),
(360,644,l)
);
}
);
};
layerId = master01;
shapes = (
{
ref = a;
},
{
pos = (88,0);
ref = ringcomb;
},
{
pos = (75,552);
ref = acutecomb;
}
);
width = 470;
}
);
unicode = 507;
},
{
glyphname = atilde;
lastChange = "2023-02-16 13:47:57 +0000";
layers = (
{
background = {
shapes = (
{
closed = 1;
nodes = (
(182,398,o),
(24,273,o),
(24,91,cs),
(24,25,o),
(50,-22,o),
(110,-22,cs),
(179,-22,o),
(264,71,o),
(320,204,c),
(330,127,o),
(347,41,o),
(371,-14,c),
(379,-22,o),
(399,-28,o),
(408,-28,cs,{
name = hr01;
}),
(414,-28,o),
(415,-27,o),
(415,-25,cs),
(404,20,o),
(389,184,o),
(389,255,cs),
(389,330,o),
(402,420,o),
(422,479,c),
(398,493,l),
(317,458,ls)
);
},
{
closed = 1;
nodes = (
(129,98,o),
(118,129,o),
(118,172,cs),
(118,284,o),
(218,356,o),
(310,408,c),
(309,389,o),
(309,366,o),
(309,333,cs),
(309,322,o),
(309,309,o),
(310,295,c),
(267,163,o),
(208,98,o),
(168,98,cs,{
name = hr02;
})
);
},
{
closed = 1;
nodes = (
(193,568,o),
(212,575,o),
(229,575,cs),
(255,575,o),
(278,558,o),
(322,558,cs,{
name = hr01;
}),
(364,558,o),
(403,587,o),
(431,652,c),
(431,660,o),
(420,673,o),
(405,673,c),
(386,645,o),
(362,629,o),
(331,629,cs),
(288,629,o),
(271,658,o),
(219,658,cs,{
name = hr02;
}),
(188,658,o),
(150,636,o),
(134,606,c),
(152,554,l),
(166,546,l)
);
}
);
};
layerId = master01;
shapes = (
{
ref = a;
},
{
pos = (24,0);
ref = tildecomb;
}
);
width = 470;
}
);
unicode = 227;
},
{
glyphname = ae;
lastChange = "2023-02-16 13:47:52 +0000";
layers = (
{
anchors = (
{
name = bottom;
pos = (339,0);
},
{
name = top;
pos = (339,153);
}
);
background = {
shapes = (
{
closed = 1;
nodes = (
(182,398,o),
(24,273,o),
(24,91,cs),
(24,25,o),
(50,-22,o),
(110,-22,cs),
(168,-22,o),
(238,44,o),
(292,145,c),
(292,144,l),
(292,45,o),
(339,-22,o),
(423,-22,cs),
(509,-22,o),
(598,84,o),
(653,217,c),
(644,224,o),
(629,231,o),
(623,231,cs),
(619,231,o),
(617,229,o),
(616,225,c),
(572,133,o),
(518,77,o),
(457,77,cs),
(418,77,o),
(384,105,o),
(378,175,c),
(434,186,o),
(600,237,o),
(632,368,c),
(632,412,o),
(617,461,o),
(571,477,c),
(488,458,o),
(428,423,o),
(385,380,c),
(395,413,o),
(408,446,o),
(422,479,c),
(398,493,l),
(317,458,ls,{
name = hr00;
})
);
},
{
closed = 1;
nodes = (
(133,98,o),
(118,129,o),
(118,172,cs),
(118,292,o),
(234,371,o),
(346,427,c),
(331,310,o),
(248,98,o),
(168,98,cs)
);
},
{
closed = 1;
nodes = (
(538,398,o),
(550,382,o),
(550,363,cs),
(550,315,o),
(498,246,o),
(378,215,c),
(386,342,o),
(469,398,o),
(515,398,cs)
);
}
);
};
layerId = master01;
shapes = (
{
closed = 1;
nodes = (
(168,-22,o),
(238,44,o),
(292,145,c),
(292,144,l),
(292,45,o),
(339,-22,o),
(423,-22,cs),
(509,-22,o),
(598,84,o),
(653,217,c),
(644,224,o),
(629,231,o),
(623,231,cs),
(619,231,o),
(617,229,o),
(616,225,c),
(572,133,o),
(518,77,o),
(457,77,cs),
(418,77,o),
(384,105,o),
(378,175,c),
(434,186,o),
(600,237,o),
(632,368,c),
(632,412,o),
(617,461,o),
(571,477,c),
(488,458,o),
(428,423,o),
(385,380,c),
(395,413,o),
(408,446,o),
(422,479,c),
(398,493,l),
(317,458,ls,{
name = hr00;
}),
(182,398,o),
(24,273,o),
(24,91,cs),
(24,25,o),
(50,-22,o),
(110,-22,cs)
);
},
{
closed = 1;
nodes = (
(133,98,o),
(118,129,o),
(118,172,cs),
(118,292,o),
(234,371,o),
(346,427,c),
(331,310,o),
(248,98,o),
(168,98,cs)
);
},
{
closed = 1;
nodes = (
(386,342,o),
(469,398,o),
(515,398,cs),
(538,398,o),
(550,382,o),
(550,363,cs),
(550,315,o),
(498,246,o),
(378,215,c)
);
}
);
width = 677;
}
);
unicode = 230;
},
{
glyphname = aeacute;
lastChange = "2023-02-16 13:47:57 +0000";
layers = (
{
background = {
shapes = (
{
closed = 1;
nodes = (
(182,398,o),
(24,273,o),
(24,91,cs),
(24,25,o),
(50,-22,o),
(110,-22,cs),
(168,-22,o),
(238,44,o),
(292,145,c),
(292,144,l),
(292,45,o),
(339,-22,o),
(423,-22,cs),
(509,-22,o),
(598,84,o),
(653,217,c),
(644,224,o),
(629,231,o),
(623,231,cs),
(619,231,o),
(617,229,o),
(616,225,c),
(572,133,o),
(518,77,o),
(457,77,cs),
(418,77,o),
(384,105,o),
(378,175,c),
(434,186,o),
(600,237,o),
(632,368,c),
(632,412,o),
(617,461,o),
(571,477,c),
(488,458,o),
(428,423,o),
(385,380,c),
(395,413,o),
(408,446,o),
(422,479,c),
(398,493,l),
(317,458,ls,{
name = hr00;
})
);
},
{
closed = 1;
nodes = (
(133,98,o),
(118,129,o),
(118,172,cs),
(118,292,o),
(234,371,o),
(346,427,c),
(331,310,o),
(248,98,o),
(168,98,cs)
);
},
{
closed = 1;
nodes = (
(538,398,o),
(550,382,o),
(550,363,cs),
(550,315,o),
(498,246,o),
(378,215,c),
(386,342,o),
(469,398,o),
(515,398,cs)
);
},
{
closed = 1;
nodes = (
(497,717,l),
(458,664,o),
(396,601,o),
(306,560,c),
(306,545,o),
(330,523,o),
(339,522,c),
(413,545,o),
(465,569,o),
(525,620,c),
(513,707,l,{
name = hr00;
})
);
}
);
};
layerId = master01;
shapes = (
{
ref = ae;
},
{
pos = (179,0);
ref = acutecomb;
}
);
width = 677;
}
);
unicode = 509;
},
{
glyphname = b;
lastChange = "2023-02-16 13:47:52 +0000";
layers = (
{
anchors = (
{
name = bottom;
pos = (237,0);
},
{
name = center;
pos = (237,77);
},
{
name = top;
pos = (237,153);
}
);
background = {
shapes = (
{
closed = 1;
nodes = (
(171,378,o),
(178,450,o),
(178,518,cs),
(178,573,o),
(175,626,o),
(168,674,c),
(87,712,l),
(63,696,l),
(80,635,o),
(101,511,o),
(101,379,cs),
(101,265,o),
(90,129,o),
(54,-24,c),
(54,-28,o),
(55,-31,o),
(63,-31,cs),
(257,-31,o),
(442,194,o),
(442,378,cs),
(442,444,o),
(417,491,o),
(356,491,cs),
(296,491,o),
(225,416,o),
(170,303,c),
(163,308,l,{
name = hr00;
})
);
},
{
closed = 1;
nodes = (
(175,284,o),
(251,371,o),
(299,371,cs),
(337,371,o),
(348,340,o),
(348,296,cs),
(348,216,o),
(283,80,o),
(119,25,c),
(137,109,ls)
);
}
);
};
layerId = master01;
shapes = (
{
closed = 1;
nodes = (
(257,-31,o),
(442,194,o),
(442,378,cs),
(442,444,o),
(417,491,o),
(356,491,cs),
(296,491,o),
(225,416,o),
(170,303,c),
(163,308,l,{
name = hr00;
}),
(171,378,o),
(178,450,o),
(178,518,cs),
(178,573,o),
(175,626,o),
(168,674,c),
(87,712,l),
(63,696,l),
(80,635,o),
(101,511,o),
(101,379,cs),
(101,265,o),
(90,129,o),
(54,-24,c),
(54,-28,o),
(55,-31,o),
(63,-31,cs)
);
},
{
closed = 1;
nodes = (
(137,109,ls),
(175,284,o),
(251,371,o),
(299,371,cs),
(337,371,o),
(348,340,o),
(348,296,cs),
(348,216,o),
(283,80,o),
(119,25,c)
);
}
);
width = 473;
}
);
unicode = 98;
},
{
glyphname = c;
lastChange = "2023-02-16 13:47:52 +0000";
layers = (
{
anchors = (
{
name = bottom;
pos = (204,0);
},
{
name = top;
pos = (204,153);
}
);
background = {
shapes = (
{
closed = 1;
nodes = (
(258,-22,o),
(347,84,o),
(379,217,c),
(369,224,o),
(354,231,o),
(348,231,cs),
(345,231,o),
(342,229,o),
(341,225,cs),
(304,133,o),
(257,77,o),
(206,77,cs),
(164,77,o),
(127,117,o),
(127,195,cs),
(127,295,o),
(181,403,o),
(282,403,cs),
(301,403,o),
(323,399,o),
(346,390,c),
(378,479,l),
(356,498,l),
(104,437,o),
(41,272,o),
(41,144,cs),
(41,45,o),
(88,-22,o),
(172,-22,cs,{
name = hr00;
})
);
}
);
};
layerId = master01;
shapes = (
{
closed = 1;
nodes = (
(258,-22,o),
(347,84,o),
(379,217,c),
(369,224,o),
(354,231,o),
(348,231,cs),
(345,231,o),
(342,229,o),
(341,225,cs),
(304,133,o),
(257,77,o),
(206,77,cs),
(164,77,o),
(127,117,o),
(127,195,cs),
(127,295,o),
(181,403,o),
(282,403,cs),
(301,403,o),
(323,399,o),
(346,390,c),
(378,479,l),
(356,498,l),
(104,437,o),
(41,272,o),
(41,144,cs),
(41,45,o),
(88,-22,o),
(172,-22,cs,{
name = hr00;
})
);
}
);
width = 408;
}
);
unicode = 99;
},
{
glyphname = cacute;
lastChange = "2023-02-16 13:47:57 +0000";
layers = (
{
background = {
shapes = (
{
closed = 1;
nodes = (
(258,-22,o),
(347,84,o),
(379,217,c),
(369,224,o),
(354,231,o),
(348,231,cs),
(345,231,o),
(342,229,o),
(341,225,cs),
(304,133,o),
(257,77,o),
(206,77,cs),
(164,77,o),
(127,117,o),
(127,195,cs),
(127,295,o),
(181,403,o),
(282,403,cs),
(301,403,o),
(323,399,o),
(346,390,c),
(378,479,l),
(356,498,l),
(104,437,o),
(41,272,o),
(41,144,cs),
(41,45,o),
(88,-22,o),
(172,-22,cs,{
name = hr00;
})
);
},
{
closed = 1;
nodes = (
(381,717,l),
(342,664,o),
(280,601,o),
(190,560,c),
(190,545,o),
(214,523,o),
(223,522,c),
(297,545,o),
(349,569,o),
(409,620,c),
(397,707,l,{
name = hr00;
})
);
}
);
};
layerId = master01;
shapes = (
{
ref = c;
},
{
pos = (44,0);
ref = acutecomb;
}
);
width = 408;
}
);
unicode = 263;
},
{
glyphname = ccaron;
lastChange = "2023-02-16 13:47:57 +0000";
layers = (
{
background = {
shapes = (
{
closed = 1;
nodes = (
(258,-22,o),
(347,84,o),
(379,217,c),
(369,224,o),
(354,231,o),
(348,231,cs),
(345,231,o),
(342,229,o),
(341,225,cs),
(304,133,o),
(257,77,o),
(206,77,cs),
(164,77,o),
(127,117,o),
(127,195,cs),
(127,295,o),
(181,403,o),
(282,403,cs),
(301,403,o),
(323,399,o),
(346,390,c),
(378,479,l),
(356,498,l),
(104,437,o),
(41,272,o),
(41,144,cs),
(41,45,o),
(88,-22,o),
(172,-22,cs,{
name = hr00;
})
);
},
{
closed = 1;
nodes = (
(298,532,l),
(332,585,o),
(374,630,o),
(447,679,c),
(447,694,o),
(423,716,o),
(414,717,c),
(371,699,o),
(325,669,o),
(293,639,c),
(281,665,o),
(265,689,o),
(245,711,c),
(182,701,l),
(172,685,l),
(217,640,o),
(248,594,o),
(274,532,c,{
name = hr00;
})
);
}
);
};
layerId = master01;
shapes = (
{
ref = c;
},
{
pos = (16,0);
ref = caroncomb;
}
);
width = 408;
}
);
unicode = 269;
},
{
glyphname = ccedilla;
lastChange = "2023-02-16 13:47:57 +0000";
layers = (
{
background = {
shapes = (
{
closed = 1;
nodes = (
(369,224,o),
(354,231,o),
(348,231,cs),
(345,231,o),
(342,229,o),
(341,225,cs),
(304,133,o),
(257,77,o),
(206,77,cs),
(164,77,o),
(127,117,o),
(127,195,cs),
(127,295,o),
(181,403,o),
(282,403,cs),
(301,403,o),
(323,399,o),
(346,390,c),
(378,479,l),
(356,498,l),
(104,437,o),
(41,272,o),
(41,144,cs),
(41,57,o),
(77,-5,o),
(143,-19,c),
(111,-89,l),
(125,-108,l),
(137,-102,o),
(150,-99,o),
(163,-99,cs),
(192,-99,o),
(205,-117,o),
(205,-136,cs),
(205,-158,o),
(186,-183,o),
(155,-183,cs),
(131,-183,o),
(103,-169,o),
(89,-143,c),
(64,-191,l),
(69,-206,l),
(92,-219,o),
(118,-225,o),
(142,-225,cs,{
name = hr01;
}),
(226,-225,o),
(269,-171,o),
(269,-124,cs),
(269,-79,o),
(230,-57,o),
(191,-57,cs),
(178,-57,o),
(166,-59,o),
(155,-63,c),
(176,-22,l),
(261,-18,o),
(347,86,o),
(379,217,c)
);
}
);
};
layerId = master01;
shapes = (
{
ref = c;
},
{
pos = (24,0);
ref = cedillacomb;
}
);
width = 408;
}
);
unicode = 231;
},
{
glyphname = ccircumflex;
lastChange = "2023-02-16 13:47:57 +0000";
layers = (
{
background = {
shapes = (
{
closed = 1;
nodes = (
(258,-22,o),
(347,84,o),
(379,217,c),
(369,224,o),
(354,231,o),
(348,231,cs),
(345,231,o),
(342,229,o),
(341,225,cs),
(304,133,o),
(257,77,o),
(206,77,cs),
(164,77,o),
(127,117,o),
(127,195,cs),
(127,295,o),
(181,403,o),
(282,403,cs),
(301,403,o),
(323,399,o),
(346,390,c),
(378,479,l),
(356,498,l),
(104,437,o),
(41,272,o),
(41,144,cs),
(41,45,o),
(88,-22,o),
(172,-22,cs,{
name = hr00;
})
);
},
{
closed = 1;
nodes = (
(309,707,l),
(275,654,o),
(233,609,o),
(160,560,c),
(160,545,o),
(184,523,o),
(193,522,c),
(236,539,o),
(281,569,o),
(314,600,c),
(326,574,o),
(341,550,o),
(362,528,c),
(425,538,l),
(435,554,l),
(390,599,o),
(359,645,o),
(333,707,c,{
name = hr00;
})
);
}
);
};
layerId = master01;
shapes = (
{
ref = c;
},
{
pos = (16,0);
ref = circumflexcomb;
}
);
width = 408;
}
);
unicode = 265;
},
{
glyphname = cdotaccent;
lastChange = "2023-02-16 13:47:57 +0000";
layers = (
{
background = {
shapes = (
{
closed = 1;
nodes = (
(258,-22,o),
(347,84,o),
(379,217,c),
(369,224,o),
(354,231,o),
(348,231,cs),
(345,231,o),
(342,229,o),
(341,225,cs),
(304,133,o),
(257,77,o),
(206,77,cs),
(164,77,o),
(127,117,o),
(127,195,cs),
(127,295,o),
(181,403,o),
(282,403,cs),
(301,403,o),
(323,399,o),
(346,390,c),
(378,479,l),
(356,498,l),
(104,437,o),
(41,272,o),
(41,144,cs),
(41,45,o),
(88,-22,o),
(172,-22,cs,{
name = hr00;
})
);
},
{
closed = 1;
nodes = (
(255,644,o),
(291,677,o),
(358,686,c),
(384,665,o),
(393,636,o),
(393,612,cs),
(393,564,o),
(352,535,o),
(314,535,cs),
(275,535,o),
(255,570,o),
(255,600,cs,{
name = hr00;
})
);
}
);
};
layerId = master01;
shapes = (
{
ref = c;
},
{
pos = (85,0);
ref = dotaccentcomb;
}
);
width = 408;
}
);
unicode = 267;
},
{
glyphname = d;
lastChange = "2023-02-16 13:47:52 +0000";
layers = (
{
anchors = (
{
name = bottom;
pos = (230,0);
},
{
name = center;
pos = (230,77);
},
{
name = top;
pos = (230,894);
},
{
name = topright;
pos = (439,894);
}
);
background = {
shapes = (
{
closed = 1;
nodes = (
(302,626,o),
(299,574,o),
(299,521,cs),
(299,505,o),
(299,488,o),
(300,472,c),
(98,382,o),
(24,209,o),
(24,91,cs),
(24,25,o),
(50,-22,o),
(110,-22,cs),
(182,-22,o),
(271,77,o),
(325,217,c),
(339,129,o),
(355,48,o),
(371,-14,c),
(380,-24,o),
(402,-31,o),
(412,-31,cs,{
name = hr01;
}),
(419,-31,o),
(420,-30,o),
(420,-26,c),
(387,127,o),
(375,265,o),
(375,379,cs),
(375,511,o),
(396,635,o),
(414,696,c),
(389,712,l),
(309,674,l)
);
},
{
closed = 1;
nodes = (
(270,166,o),
(209,98,o),
(168,98,cs,{
name = hr02;
}),
(129,98,o),
(118,129,o),
(118,172,cs),
(118,245,o),
(170,358,o),
(303,418,c),
(305,380,o),
(309,342,o),
(313,304,c)
);
}
);
};
layerId = master01;
shapes = (
{
closed = 1;
nodes = (
(419,-31,o),
(420,-30,o),
(420,-26,c),
(387,127,o),
(375,265,o),
(375,379,cs),
(375,511,o),
(396,635,o),
(414,696,c),
(389,712,l),
(309,674,l),
(302,626,o),
(299,574,o),
(299,521,cs),
(299,505,o),
(299,488,o),
(300,472,c),
(98,382,o),
(24,209,o),
(24,91,cs),
(24,25,o),
(50,-22,o),
(110,-22,cs),
(182,-22,o),
(271,77,o),
(325,217,c),
(339,129,o),
(355,48,o),
(371,-14,c),
(380,-24,o),
(402,-31,o),
(412,-31,cs,{
name = hr01;
})
);
},
{
closed = 1;
nodes = (
(129,98,o),
(118,129,o),
(118,172,cs),
(118,245,o),
(170,358,o),
(303,418,c),
(305,380,o),
(309,342,o),
(313,304,c),
(270,166,o),
(209,98,o),
(168,98,cs,{
name = hr02;
})
);
}
);
width = 459;
}
);
unicode = 100;
},
{
glyphname = eth;
lastChange = "2023-02-16 13:47:52 +0000";
layers = (
{
anchors = (
{
name = bottom;
pos = (239,0);
},
{
name = top;
pos = (239,894);
}
);
background = {
shapes = (
{
closed = 1;
nodes = (
(458,651,l),
(440,661,l),
(418,643,o),
(394,617,o),
(337,586,c),
(286,652,o),
(210,699,o),
(98,704,c),
(74,686,l),
(93,601,l),
(121,608,o),
(145,612,o),
(168,612,cs),
(219,612,o),
(257,593,o),
(285,561,c),
(255,549,o),
(220,535,o),
(177,522,c),
(177,507,o),
(188,490,o),
(198,486,c),
(243,495,o),
(281,503,o),
(315,514,c),
(327,491,o),
(336,465,o),
(343,436,c),
(105,392,o),
(42,277,o),
(42,167,cs),
(42,37,o),
(122,-33,o),
(218,-33,cs),
(361,-33,o),
(434,89,o),
(434,247,cs),
(434,324,o),
(421,439,o),
(371,534,c),
(398,546,o),
(426,560,o),
(458,578,c,{
name = hr00;
})
);
},
{
closed = 1;
nodes = (
(168,58,o),
(133,113,o),
(133,187,cs),
(133,285,o),
(216,355,o),
(328,374,c),
(358,337,o),
(373,286,o),
(373,235,cs),
(373,145,o),
(326,58,o),
(229,58,cs)
);
}
);
};
layerId = master01;
shapes = (
{
closed = 1;
nodes = (
(361,-33,o),
(434,89,o),
(434,247,cs),
(434,324,o),
(421,439,o),
(371,534,c),
(398,546,o),
(426,560,o),
(458,578,c,{
name = hr00;
}),
(458,651,l),
(440,661,l),
(418,643,o),
(394,617,o),
(337,586,c),
(286,652,o),
(210,699,o),
(98,704,c),
(74,686,l),
(93,601,l),
(121,608,o),
(145,612,o),
(168,612,cs),
(219,612,o),
(257,593,o),
(285,561,c),
(255,549,o),
(220,535,o),
(177,522,c),
(177,507,o),
(188,490,o),
(198,486,c),
(243,495,o),
(281,503,o),
(315,514,c),
(327,491,o),
(336,465,o),
(343,436,c),
(105,392,o),
(42,277,o),
(42,167,cs),
(42,37,o),
(122,-33,o),
(218,-33,cs)
);
},
{
closed = 1;
nodes = (
(168,58,o),
(133,113,o),
(133,187,cs),
(133,285,o),
(216,355,o),
(328,374,c),
(358,337,o),
(373,286,o),
(373,235,cs),
(373,145,o),
(326,58,o),
(229,58,cs)
);
}
);
width = 477;
}
);
unicode = 240;
},
{
glyphname = dcaron;
lastChange = "2023-02-16 13:47:57 +0000";
layers = (
{
background = {
shapes = (
{
closed = 1;
nodes = (
(302,626,o),
(299,574,o),
(299,521,cs),
(299,505,o),
(299,488,o),
(300,472,c),
(98,382,o),
(24,209,o),
(24,91,cs),
(24,25,o),
(50,-22,o),
(110,-22,cs),
(182,-22,o),
(271,77,o),
(325,217,c),
(339,129,o),
(355,48,o),
(371,-14,c),
(380,-24,o),
(402,-31,o),
(412,-31,cs,{
name = hr01;
}),
(419,-31,o),
(420,-30,o),
(420,-26,c),
(387,127,o),
(375,265,o),
(375,379,cs),
(375,511,o),
(396,635,o),
(414,696,c),
(389,712,l),
(309,674,l)
);
},
{
closed = 1;
nodes = (
(270,166,o),
(209,98,o),
(168,98,cs,{
name = hr02;
}),
(129,98,o),
(118,129,o),
(118,172,cs),
(118,245,o),
(170,358,o),
(303,418,c),
(305,380,o),
(309,342,o),
(313,304,c)
);
},
{
closed = 1;
nodes = (
(637,695,o),
(612,725,o),
(575,725,cs),
(538,725,o),
(502,699,o),
(502,652,c),
(545,590,l),
(542,550,o),
(522,514,o),
(469,489,c),
(469,479,o),
(479,458,o),
(485,458,cs),
(498,458,o),
(637,514,o),
(637,649,cs,{
name = hr00;
})
);
}
);
};
layerId = master01;
shapes = (
{
ref = d;
},
{
pos = (42,741);
ref = caroncomb;
}
);
width = 459;
}
);
unicode = 271;
},
{
glyphname = dcroat;
lastChange = "2023-02-16 13:46:35 +0000";
layers = (
{
background = {
shapes = (
{
closed = 1;
nodes = (
(302,626,o),
(299,574,o),
(299,521,cs),
(299,505,o),
(299,488,o),
(300,472,c),
(98,382,o),
(24,209,o),
(24,91,cs),
(24,25,o),
(50,-22,o),
(110,-22,cs),
(182,-22,o),
(271,77,o),
(325,217,c),
(339,129,o),
(355,48,o),
(371,-14,c),
(380,-24,o),
(402,-31,o),
(412,-31,cs,{
name = hr01;
}),
(419,-31,o),
(420,-30,o),
(420,-26,c),
(387,127,o),
(375,265,o),
(375,379,cs),
(375,511,o),
(396,635,o),
(414,696,c),
(389,712,l),
(309,674,l)
);
},
{
closed = 1;
nodes = (
(270,166,o),
(209,98,o),
(168,98,cs,{
name = hr02;
}),
(129,98,o),
(118,129,o),
(118,172,cs),
(118,245,o),
(170,358,o),
(303,418,c),
(305,380,o),
(309,342,o),
(313,304,c)
);
},
{
closed = 1;
nodes = (
(365,550,o),
(418,554,o),
(467,562,c),
(473,581,l),
(455,631,l),
(371,605,o),
(238,596,o),
(137,596,c),
(128,589,o),
(125,578,o),
(125,570,cs),
(125,564,o),
(183,550,o),
(305,550,cs,{
name = hr00;
})
);
}
);
};
layerId = master01;
shapes = (
{
alignment = -1;
ref = d;
},
{
alignment = -1;
pos = (35,320);
ref = barra;
scale = (0.9,1);
}
);
width = 459;
}
);
unicode = 273;
},
{
glyphname = e;
lastChange = "2023-02-16 13:47:52 +0000";
layers = (
{
anchors = (
{
name = bottom;
pos = (213,0);
},
{
name = ogonek;
pos = (383,10);
},
{
name = top;
pos = (213,153);
}
);
background = {
shapes = (
{
closed = 1;
nodes = (
(381,412,o),
(366,461,o),
(320,477,c),
(103,427,o),
(41,270,o),
(41,144,cs),
(41,45,o),
(88,-22,o),
(172,-22,cs),
(258,-22,o),
(347,84,o),
(402,217,c),
(393,224,o),
(378,231,o),
(372,231,cs),
(368,231,o),
(366,229,o),
(365,225,c),
(321,133,o),
(267,77,o),
(206,77,cs),
(167,77,o),
(133,105,o),
(127,175,c),
(183,186,o),
(349,237,o),
(381,368,c,{
name = hr00;
})
);
},
{
closed = 1;
nodes = (
(287,398,o),
(299,382,o),
(299,363,cs),
(299,315,o),
(247,246,o),
(127,215,c),
(135,342,o),
(218,398,o),
(264,398,cs)
);
}
);
};
layerId = master01;
shapes = (
{
closed = 1;
nodes = (
(258,-22,o),
(347,84,o),
(402,217,c),
(393,224,o),
(378,231,o),
(372,231,cs),
(368,231,o),
(366,229,o),
(365,225,c),
(321,133,o),
(267,77,o),
(206,77,cs),
(167,77,o),
(133,105,o),
(127,175,c),
(183,186,o),
(349,237,o),
(381,368,c,{
name = hr00;
}),
(381,412,o),
(366,461,o),
(320,477,c),
(103,427,o),
(41,270,o),
(41,144,cs),
(41,45,o),
(88,-22,o),
(172,-22,cs)
);
},
{
closed = 1;
nodes = (
(135,342,o),
(218,398,o),
(264,398,cs),
(287,398,o),
(299,382,o),
(299,363,cs),
(299,315,o),
(247,246,o),
(127,215,c)
);
}
);
width = 426;
}
);
unicode = 101;
},
{
glyphname = eacute;
lastChange = "2023-02-16 13:47:57 +0000";
layers = (
{
background = {
shapes = (
{
closed = 1;
nodes = (
(381,412,o),
(366,461,o),
(320,477,c),
(103,427,o),
(41,270,o),
(41,144,cs),
(41,45,o),
(88,-22,o),
(172,-22,cs),
(258,-22,o),
(347,84,o),
(402,217,c),
(393,224,o),
(378,231,o),
(372,231,cs),
(368,231,o),
(366,229,o),
(365,225,c),
(321,133,o),
(267,77,o),
(206,77,cs),
(167,77,o),
(133,105,o),
(127,175,c),
(183,186,o),
(349,237,o),
(381,368,c,{
name = hr00;
})
);
},
{
closed = 1;
nodes = (
(287,398,o),
(299,382,o),
(299,363,cs),
(299,315,o),
(247,246,o),
(127,215,c),
(135,342,o),
(218,398,o),
(264,398,cs)
);
},
{
closed = 1;
nodes = (
(331,717,l),
(292,664,o),
(230,601,o),
(140,560,c),
(140,545,o),
(164,523,o),
(173,522,c),
(247,545,o),
(299,569,o),
(359,620,c),
(347,707,l,{
name = hr00;
})
);
}
);
};
layerId = master01;
shapes = (
{
ref = e;
},
{
pos = (53,0);
ref = acutecomb;
}
);
width = 426;
}
);
unicode = 233;
},
{
glyphname = ebreve;
lastChange = "2023-02-16 13:47:57 +0000";
layers = (
{
background = {
shapes = (
{
closed = 1;
nodes = (
(381,412,o),
(366,461,o),
(320,477,c),
(103,427,o),
(41,270,o),
(41,144,cs),
(41,45,o),
(88,-22,o),
(172,-22,cs),
(258,-22,o),
(347,84,o),
(402,217,c),
(393,224,o),
(378,231,o),
(372,231,cs),
(368,231,o),
(366,229,o),
(365,225,c),
(321,133,o),
(267,77,o),
(206,77,cs),
(167,77,o),
(133,105,o),
(127,175,c),
(183,186,o),
(349,237,o),
(381,368,c,{
name = hr00;
})
);
},
{
closed = 1;
nodes = (
(287,398,o),
(299,382,o),
(299,363,cs),
(299,315,o),
(247,246,o),
(127,215,c),
(135,342,o),
(218,398,o),
(264,398,cs)
);
},
{
closed = 1;
nodes = (
(349,592,o),
(230,581,o),
(230,663,c),
(215,673,l),
(164,646,l),
(164,578,o),
(212,548,o),
(273,548,cs),
(354,548,o),
(415,610,o),
(415,681,cs),
(401,691,l),
(349,664,l,{
name = hr00;
})
);
}
);
};
layerId = master01;
shapes = (
{
ref = e;
},
{
pos = (36,0);
ref = brevecomb;
}
);
width = 426;
}
);
unicode = 277;
},
{
glyphname = ecaron;
lastChange = "2023-02-16 13:47:57 +0000";
layers = (
{
background = {
shapes = (
{
closed = 1;
nodes = (
(381,412,o),
(366,461,o),
(320,477,c),
(103,427,o),
(41,270,o),
(41,144,cs),
(41,45,o),
(88,-22,o),
(172,-22,cs),
(258,-22,o),
(347,84,o),
(402,217,c),
(393,224,o),
(378,231,o),
(372,231,cs),
(368,231,o),
(366,229,o),
(365,225,c),
(321,133,o),
(267,77,o),
(206,77,cs),
(167,77,o),
(133,105,o),
(127,175,c),
(183,186,o),
(349,237,o),
(381,368,c,{
name = hr00;
})
);
},
{
closed = 1;
nodes = (
(287,398,o),
(299,382,o),
(299,363,cs),
(299,315,o),
(247,246,o),
(127,215,c),
(135,342,o),
(218,398,o),
(264,398,cs)
);
},
{
closed = 1;
nodes = (
(293,532,l),
(327,585,o),
(369,630,o),
(442,679,c),
(442,694,o),
(418,716,o),
(409,717,c),
(366,699,o),
(320,669,o),
(288,639,c),
(276,665,o),
(260,689,o),
(240,711,c),
(177,701,l),
(167,685,l),
(212,640,o),
(243,594,o),
(269,532,c,{
name = hr00;
})
);
}
);
};
layerId = master01;
shapes = (
{
ref = e;
},
{
pos = (25,0);
ref = caroncomb;
}
);
width = 426;
}
);
unicode = 283;
},
{
glyphname = ecircumflex;
lastChange = "2023-02-16 13:47:57 +0000";
layers = (
{
background = {
shapes = (
{
closed = 1;
nodes = (
(381,412,o),
(366,461,o),
(320,477,c),
(103,427,o),
(41,270,o),
(41,144,cs),
(41,45,o),
(88,-22,o),
(172,-22,cs),
(258,-22,o),
(347,84,o),
(402,217,c),
(393,224,o),
(378,231,o),
(372,231,cs),
(368,231,o),
(366,229,o),
(365,225,c),
(321,133,o),
(267,77,o),
(206,77,cs),
(167,77,o),
(133,105,o),
(127,175,c),
(183,186,o),
(349,237,o),
(381,368,c,{
name = hr00;
})
);
},
{
closed = 1;
nodes = (
(287,398,o),
(299,382,o),
(299,363,cs),
(299,315,o),
(247,246,o),
(127,215,c),
(135,342,o),
(218,398,o),
(264,398,cs)
);
},
{
closed = 1;
nodes = (
(278,707,l),
(244,654,o),
(202,609,o),
(129,560,c),
(129,545,o),
(153,523,o),
(162,522,c),
(205,539,o),
(250,569,o),
(283,600,c),
(295,574,o),
(310,550,o),
(331,528,c),
(394,538,l),
(404,554,l),
(359,599,o),
(328,645,o),
(302,707,c,{
name = hr00;
})
);
}
);
};
layerId = master01;
shapes = (
{
ref = e;
},
{
pos = (25,0);
ref = circumflexcomb;
}
);
width = 426;
}
);
unicode = 234;
},
{
glyphname = edieresis;
lastChange = "2023-02-16 13:47:57 +0000";
layers = (
{
background = {
shapes = (
{
closed = 1;
nodes = (
(381,412,o),
(366,461,o),
(320,477,c),
(103,427,o),
(41,270,o),
(41,144,cs),
(41,45,o),
(88,-22,o),
(172,-22,cs),
(258,-22,o),
(347,84,o),
(402,217,c),
(393,224,o),
(378,231,o),
(372,231,cs),
(368,231,o),
(366,229,o),
(365,225,c),
(321,133,o),
(267,77,o),
(206,77,cs),
(167,77,o),
(133,105,o),
(127,175,c),
(183,186,o),
(349,237,o),
(381,368,c,{
name = hr00;
})
);
},
{
closed = 1;
nodes = (
(287,398,o),
(299,382,o),
(299,363,cs),
(299,315,o),
(247,246,o),
(127,215,c),
(135,342,o),
(218,398,o),
(264,398,cs)
);
},
{
closed = 1;
nodes = (
(116,640,o),
(145,666,o),
(201,674,c),
(222,657,o),
(230,633,o),
(230,613,cs),
(230,573,o),
(196,549,o),
(164,549,cs),
(132,549,o),
(116,578,o),
(116,602,cs,{
name = hr00;
})
);
},
{
closed = 1;
nodes = (
(303,640,o),
(332,666,o),
(388,674,c),
(409,657,o),
(417,633,o),
(417,613,cs),
(417,573,o),
(383,549,o),
(351,549,cs),
(319,549,o),
(303,578,o),
(303,602,cs)
);
}
);
};
layerId = master01;
shapes = (
{
ref = e;
},
{
pos = (12,0);
ref = dieresiscomb;
}
);
width = 426;
}
);
unicode = 235;
},
